M48
; DRILL file {KiCad 9.0.6} date 2025-11-16T10:50:52+0100
; FORMAT={-:-/ absolute / metric / decimal}
; #@! TF.CreationDate,2025-11-16T10:50:52+01:00
; #@! TF.GenerationSoftware,Kicad,Pcbnew,9.0.6
; #@! TF.FileFunction,Plated,1,6,PTH
FMAT,2
METRIC
; #@! TA.AperFunction,Plated,PTH,ViaDrill
T1C0.300
; #@! TA.AperFunction,Plated,PTH,ComponentDrill
T2C0.300
; #@! TA.AperFunction,Plated,PTH,ViaDrill
T3C0.400
; #@! TA.AperFunction,Plated,PTH,ComponentDrill
T4C0.500
; #@! TA.AperFunction,Plated,PTH,ViaDrill
T5C0.600
; #@! TA.AperFunction,Plated,PTH,ComponentDrill
T6C0.600
; #@! TA.AperFunction,Plated,PTH,ComponentDrill
T7C0.650
; #@! TA.AperFunction,Plated,PTH,ComponentDrill
T8C1.000
; #@! TA.AperFunction,Plated,PTH,ComponentDrill
T9C1.020
; #@! TA.AperFunction,Plated,PTH,ComponentDrill
T10C1.780
; #@! TA.AperFunction,Plated,PTH,ComponentDrill
T11C2.700
; #@! TA.AperFunction,Plated,PTH,ComponentDrill
T12C3.200
%
G90
G05
T1
X58.5Y-49.2
X58.6Y-59.4
X59.045Y-57.455
X59.7Y-50.6
X59.81Y-55.305
X60.7Y-57.0
X61.1Y-49.4
X69.2Y-49.2
X69.6Y-57.6
X69.6Y-59.475
X70.4Y-50.83
X70.433Y-55.769
X71.4Y-57.045
X71.743Y-49.34
X77.56Y-134.15
X77.9Y-54.5
X77.9Y-60.8
X77.9Y-149.1
X77.92Y-146.06
X77.94Y-143.06
X77.97Y-159.2
X77.97Y-161.21
X78.2Y-147.5
X78.4Y-61.7
X78.9Y-144.7
X79.0Y-62.8
X79.2Y-132.8
X79.794Y-143.04
X79.794Y-149.01
X79.794Y-159.2
X80.0Y-49.2
X80.0Y-130.19
X80.3Y-57.6
X80.4Y-59.5
X80.4Y-128.7
X80.598Y-146.9
X80.97Y-134.1
X81.22Y-55.325
X81.227Y-50.8
X81.3Y-161.0
X81.35Y-143.1
X81.36Y-149.06
X81.43Y-159.08
X81.7Y-145.0
X81.7Y-145.7
X81.8Y-127.4
X81.866Y-131.434
X82.0Y-130.19
X82.12Y-57.025
X82.364Y-49.336
X82.5Y-159.0
X82.5Y-164.9
X82.87Y-148.48
X82.91Y-147.2
X82.997Y-131.348
X83.1Y-165.9
X83.5Y-159.0
X83.91Y-160.82
X83.91Y-144.697
X84.2Y-131.4
X84.68Y-161.18
X85.35Y-143.54
X85.75Y-160.59
X86.506Y-148.4
X86.7Y-127.2
X87.019Y-158.97
X87.049Y-133.1
X87.1Y-143.2
X87.1Y-149.16
X87.7Y-125.0
X87.8Y-148.73
X87.813Y-132.855
X87.96Y-159.08
X88.193Y-143.405
X88.52Y-149.19
X88.8Y-127.3
X88.89Y-143.073
X88.94Y-133.0
X88.98Y-142.05
X88.98Y-150.18
X88.98Y-157.93
X89.08Y-134.12
X89.2Y-159.2
X90.3Y-49.8
X92.7Y-48.9
X92.8Y-50.712
X92.8Y-54.4
X92.99Y-148.02
X93.01Y-144.28
X93.4Y-93.65
X94.0Y-58.5
X94.35Y-92.7
X94.45Y-145.3
X94.45Y-146.8
X94.5Y-52.4
X95.0Y-51.5
X95.0Y-53.204
X95.2Y-60.35
X95.3Y-48.5
X96.1Y-58.5
X96.75Y-92.2
X96.8Y-87.9
X96.8Y-159.0
X96.89Y-132.984
X96.966Y-157.854
X96.997Y-141.816
X97.0Y-143.2
X97.01Y-134.14
X97.03Y-150.13
X97.181Y-148.8
X97.2Y-43.3
X97.871Y-55.638
X98.035Y-159.16
X98.05Y-148.625
X98.06Y-143.25
X98.14Y-132.943
X98.7Y-56.2
X98.824Y-148.996
X98.9Y-143.5
X98.903Y-158.955
X99.0Y-59.0
X99.1Y-47.3
X99.2Y-43.3
X99.2Y-68.9
X99.4Y-56.7
X99.425Y-148.395
X99.5Y-84.55
X99.6Y-93.25
X99.919Y-47.812
X100.13Y-161.965
X100.2Y-45.3
X100.27Y-132.81
X100.4Y-62.2
X100.4Y-87.88
X100.552Y-143.54
X101.0Y-63.3
X101.2Y-93.15
X101.21Y-43.38
X102.0Y-133.0
X102.1Y-131.5
X102.16Y-159.53
X102.619Y-58.9
X102.62Y-143.88
X102.72Y-147.32
X103.0Y-84.55
X103.0Y-133.0
X103.1Y-93.25
X103.135Y-43.4
X103.2Y-62.2
X103.3Y-47.5
X103.6Y-147.6
X103.6Y-148.3
X103.9Y-161.1
X103.925Y-53.188
X104.05Y-45.3
X104.1Y-41.7
X104.25Y-159.03
X104.38Y-148.98
X104.5Y-68.8
X104.619Y-142.866
X104.79Y-133.0
X104.87Y-129.6
X104.97Y-134.1
X105.1Y-71.45
X105.2Y-43.375
X105.532Y-144.72
X105.9Y-87.92
X106.21Y-159.08
X106.24Y-148.54
X106.27Y-142.92
X106.3Y-59.4
X106.4Y-74.3
X107.025Y-43.375
X107.108Y-144.523
X107.21Y-149.11
X107.45Y-62.5
X107.5Y-50.0
X107.5Y-52.0
X107.53Y-161.1
X107.725Y-57.912
X107.8Y-48.0
X107.91Y-159.09
X108.0Y-67.45
X108.02Y-142.95
X108.05Y-72.5
X108.25Y-134.03
X108.5Y-50.0
X108.5Y-64.5
X109.1Y-66.1
X109.4Y-48.5
X109.7Y-62.2
X109.7Y-147.9
X110.3Y-46.8
X111.3Y-132.2
X111.4Y-139.7
X111.6Y-126.1
X112.0Y-131.6
X112.3Y-140.2
X112.6Y-140.9
X112.7Y-127.3
X112.7Y-147.3
X113.4Y-125.0
X113.6Y-130.2
X113.6Y-141.7
X113.6Y-146.779
X114.1Y-92.7
X114.1Y-139.1
X114.3Y-141.7
X115.0Y-143.2
X115.3Y-88.0
X115.3Y-89.9
X115.45Y-86.0
X115.8Y-143.2
X115.8Y-146.0
X115.9Y-128.1
X116.63Y-145.3
X116.7Y-19.6
X116.8Y-70.3
X116.9Y-71.5
X116.9Y-128.1
X117.1Y-69.3
X117.3Y-139.0
X117.3Y-141.4
X117.8Y-139.5
X118.1Y-140.2
X118.45Y-38.0
X118.5Y-140.9
X119.6Y-71.55
X120.2Y-84.0
X120.5Y-37.9
X120.9Y-74.3
X124.2Y-82.5
X124.2Y-84.6
X125.3Y-83.4
X126.6Y-59.3
X128.5Y-64.5
X129.7Y-62.2
X132.3Y-32.0
T2
X60.5Y-53.2
X61.58Y-51.9
X61.58Y-53.2
X61.58Y-54.5
X62.9Y-51.9
X62.9Y-53.2
X62.9Y-54.5
X64.22Y-51.9
X64.22Y-53.2
X64.22Y-54.5
X65.3Y-53.2
X71.2Y-53.2
X72.28Y-51.9
X72.28Y-53.2
X72.28Y-54.5
X73.6Y-51.9
X73.6Y-53.2
X73.6Y-54.5
X74.92Y-51.9
X74.92Y-53.2
X74.92Y-54.5
X76.0Y-53.2
X81.9Y-53.2
X82.98Y-51.9
X82.98Y-53.2
X82.98Y-54.5
X84.3Y-51.9
X84.3Y-53.2
X84.3Y-54.5
X85.62Y-51.9
X85.62Y-53.2
X85.62Y-54.5
X86.7Y-53.2
X97.919Y-50.15
X97.919Y-51.15
X97.919Y-52.15
X97.919Y-53.15
X98.919Y-50.15
X98.919Y-51.15
X98.919Y-52.15
X98.919Y-53.15
X99.919Y-50.15
X99.919Y-51.15
X99.919Y-52.15
X99.919Y-53.15
X100.919Y-50.15
X100.919Y-51.15
X100.919Y-52.15
X100.919Y-53.15
T3
X59.2Y-41.115
X59.2Y-42.115
X59.2Y-43.115
X59.2Y-44.115
X59.2Y-45.115
X59.25Y-40.115
X59.4Y-73.5
X59.4Y-74.5
X59.4Y-75.5
X59.4Y-76.7
X59.4Y-77.7
X59.4Y-78.7
X59.4Y-79.9
X59.4Y-80.9
X59.4Y-81.9
X61.5Y-40.105
X61.5Y-41.105
X61.5Y-42.105
X61.5Y-43.105
X61.5Y-44.105
X61.5Y-45.105
X67.9Y-47.9
X68.625Y-73.5
X68.625Y-74.5
X68.625Y-75.5
X68.625Y-76.7
X68.625Y-77.7
X68.625Y-78.7
X68.625Y-79.9
X68.625Y-80.9
X68.625Y-81.9
X69.0Y-40.1
X69.0Y-41.1
X69.0Y-42.1
X69.0Y-43.1
X69.0Y-44.1
X69.0Y-45.1
X70.0Y-40.1
X70.0Y-41.1
X70.0Y-42.1
X70.0Y-43.1
X70.0Y-44.1
X70.0Y-45.1
X70.1Y-76.7
X70.1Y-77.7
X70.1Y-78.7
X70.125Y-73.5
X70.125Y-74.5
X70.125Y-75.5
X70.125Y-79.9
X70.125Y-80.9
X70.125Y-81.9
X78.6Y-47.9
X79.375Y-76.7
X79.375Y-77.7
X79.375Y-78.7
X79.4Y-73.5
X79.4Y-74.5
X79.4Y-75.5
X79.4Y-79.9
X79.4Y-80.9
X79.4Y-81.9
X79.7Y-40.1
X79.7Y-41.1
X79.7Y-42.1
X79.7Y-43.1
X79.7Y-44.1
X79.7Y-45.1
X80.7Y-40.1
X80.7Y-41.1
X80.7Y-42.1
X80.7Y-43.1
X80.7Y-44.1
X80.7Y-45.1
X80.875Y-76.7
X80.875Y-77.7
X80.875Y-78.7
X80.9Y-73.5
X80.9Y-74.5
X80.9Y-75.5
X80.9Y-79.9
X80.9Y-80.9
X80.9Y-81.9
X81.36Y-151.16
X81.36Y-152.46
X81.36Y-153.36
X81.36Y-154.66
X81.36Y-155.46
X81.36Y-156.76
X81.4Y-135.2
X81.4Y-136.5
X81.4Y-137.4
X81.4Y-138.7
X81.4Y-139.5
X81.4Y-140.8
X82.36Y-151.16
X82.36Y-152.46
X82.36Y-153.36
X82.36Y-154.66
X82.36Y-155.46
X82.36Y-156.76
X82.4Y-135.2
X82.4Y-136.5
X82.4Y-137.4
X82.4Y-138.7
X82.4Y-139.5
X82.4Y-140.8
X83.26Y-151.16
X83.26Y-152.46
X83.26Y-153.36
X83.26Y-154.66
X83.26Y-155.46
X83.26Y-156.76
X83.3Y-135.2
X83.3Y-136.5
X83.3Y-137.4
X83.3Y-138.7
X83.3Y-139.5
X83.3Y-140.8
X84.26Y-151.16
X84.26Y-152.46
X84.26Y-153.36
X84.26Y-154.66
X84.26Y-155.47
X84.26Y-156.76
X84.3Y-135.2
X84.3Y-136.5
X84.3Y-137.4
X84.3Y-138.7
X84.3Y-139.5
X84.3Y-140.8
X85.06Y-151.16
X85.06Y-152.46
X85.06Y-153.36
X85.06Y-154.66
X85.06Y-155.46
X85.06Y-156.76
X85.1Y-135.2
X85.1Y-136.5
X85.1Y-137.4
X85.1Y-138.7
X85.1Y-139.5
X85.1Y-140.8
X86.16Y-151.16
X86.16Y-152.46
X86.16Y-153.36
X86.16Y-154.66
X86.16Y-155.46
X86.16Y-156.76
X86.2Y-135.2
X86.2Y-136.5
X86.2Y-137.4
X86.2Y-138.7
X86.2Y-139.5
X86.2Y-140.8
X87.16Y-151.16
X87.16Y-152.46
X87.16Y-153.36
X87.16Y-154.66
X87.16Y-155.46
X87.16Y-156.76
X87.2Y-135.2
X87.2Y-136.5
X87.2Y-137.4
X87.2Y-138.7
X87.2Y-139.5
X87.2Y-140.8
X88.3Y-40.1
X88.3Y-41.1
X88.3Y-42.1
X88.3Y-43.1
X88.3Y-44.1
X88.3Y-45.1
X88.46Y-151.16
X88.46Y-152.46
X88.46Y-153.36
X88.46Y-154.66
X88.46Y-155.46
X88.46Y-156.76
X88.5Y-135.2
X88.5Y-136.5
X88.5Y-137.4
X88.5Y-138.7
X88.5Y-139.5
X88.5Y-140.8
X89.3Y-47.9
X90.125Y-76.7
X90.125Y-77.7
X90.125Y-78.7
X90.125Y-79.9
X90.125Y-80.9
X90.125Y-81.9
X90.125Y-83.5
X90.125Y-84.5
X90.125Y-85.5
X90.3Y-73.5
X90.3Y-74.5
X90.3Y-75.5
X90.5Y-40.1
X90.5Y-41.1
X90.5Y-42.1
X90.5Y-43.1
X90.5Y-44.1
X90.5Y-45.1
X97.5Y-135.2
X97.5Y-136.5
X97.5Y-137.3
X97.5Y-138.6
X97.5Y-139.5
X97.5Y-140.8
X97.5Y-151.2
X97.5Y-152.5
X97.5Y-153.3
X97.5Y-154.6
X97.5Y-155.5
X97.5Y-156.8
X98.8Y-135.2
X98.8Y-136.5
X98.8Y-137.3
X98.8Y-138.6
X98.8Y-139.5
X98.8Y-140.8
X98.8Y-151.2
X98.8Y-152.5
X98.8Y-153.3
X98.8Y-154.6
X98.8Y-155.5
X98.8Y-156.8
X99.8Y-135.2
X99.8Y-136.5
X99.8Y-137.3
X99.8Y-138.6
X99.8Y-139.5
X99.8Y-140.8
X99.8Y-151.2
X99.8Y-152.5
X99.8Y-153.3
X99.8Y-154.6
X99.8Y-155.5
X99.8Y-156.8
X100.9Y-135.2
X100.9Y-136.5
X100.9Y-137.3
X100.9Y-138.6
X100.9Y-139.5
X100.9Y-140.8
X100.9Y-151.2
X100.9Y-152.5
X100.9Y-153.3
X100.9Y-154.6
X100.9Y-155.5
X100.9Y-156.8
X101.2Y-34.0
X101.2Y-35.0
X101.2Y-36.0
X101.7Y-135.2
X101.7Y-136.5
X101.7Y-137.3
X101.7Y-138.6
X101.7Y-139.5
X101.7Y-140.8
X101.7Y-151.2
X101.7Y-152.5
X101.7Y-153.3
X101.7Y-154.6
X101.7Y-155.5
X101.7Y-156.8
X102.4Y-33.0
X102.4Y-36.9
X102.7Y-135.2
X102.7Y-136.5
X102.7Y-137.3
X102.7Y-138.6
X102.7Y-139.5
X102.7Y-140.8
X102.7Y-151.2
X102.7Y-152.5
X102.7Y-153.3
X102.7Y-154.6
X102.7Y-155.5
X102.7Y-156.8
X103.4Y-33.0
X103.4Y-36.9
X103.6Y-135.2
X103.6Y-136.5
X103.6Y-137.3
X103.6Y-138.6
X103.6Y-139.5
X103.6Y-140.8
X103.6Y-151.2
X103.6Y-152.5
X103.6Y-153.3
X103.6Y-154.6
X103.6Y-155.5
X103.6Y-156.8
X104.4Y-33.0
X104.4Y-36.9
X104.6Y-135.2
X104.6Y-136.5
X104.6Y-137.3
X104.6Y-138.6
X104.6Y-139.5
X104.6Y-140.8
X104.6Y-151.2
X104.6Y-152.5
X104.6Y-153.3
X104.6Y-154.6
X104.6Y-155.5
X104.6Y-156.8
X106.7Y-33.0
X106.7Y-36.9
X107.7Y-33.0
X107.7Y-36.9
X108.7Y-33.0
X108.7Y-36.9
X109.6Y-34.0
X109.6Y-35.0
X109.6Y-36.0
X116.3Y-16.6
X117.7Y-16.6
X119.0Y-27.5
X119.0Y-30.0
X119.1Y-16.6
X124.4Y-20.8
T4
X50.6Y-17.0
X50.6Y-86.0
X50.6Y-193.025
X51.303Y-15.303
X51.303Y-18.697
X51.303Y-84.303
X51.303Y-87.697
X51.303Y-191.328
X51.303Y-194.722
X53.0Y-14.6
X53.0Y-19.4
X53.0Y-83.6
X53.0Y-88.4
X53.0Y-190.625
X53.0Y-195.425
X54.697Y-15.303
X54.697Y-18.697
X54.697Y-84.303
X54.697Y-87.697
X54.697Y-191.328
X54.697Y-194.722
X55.4Y-17.0
X55.4Y-86.0
X55.4Y-193.025
X131.6Y-17.0
X131.6Y-86.0
X131.6Y-193.025
X132.303Y-15.303
X132.303Y-18.697
X132.303Y-84.303
X132.303Y-87.697
X132.303Y-191.328
X132.303Y-194.722
X134.0Y-14.6
X134.0Y-19.4
X134.0Y-83.6
X134.0Y-88.4
X134.0Y-190.625
X134.0Y-195.425
X135.697Y-15.303
X135.697Y-18.697
X135.697Y-84.303
X135.697Y-87.697
X135.697Y-191.328
X135.697Y-194.722
X136.4Y-17.0
X136.4Y-86.0
X136.4Y-193.025
T5
X51.75Y-44.2
X51.75Y-46.2
X51.75Y-48.2
X51.75Y-50.2
X51.75Y-52.4
X51.75Y-54.4
X51.75Y-56.4
X51.75Y-58.4
X51.75Y-60.9
X51.75Y-62.9
X51.75Y-64.9
X51.75Y-66.9
X51.75Y-68.9
X51.75Y-70.9
X51.75Y-120.0
X51.75Y-122.0
X51.75Y-124.0
X51.75Y-126.0
X51.75Y-128.2
X51.75Y-130.2
X51.75Y-132.2
X51.75Y-134.2
X51.75Y-136.7
X51.75Y-138.7
X51.75Y-140.7
X51.75Y-142.7
X51.75Y-144.7
X51.75Y-146.7
X51.75Y-148.9
X51.75Y-150.9
X51.75Y-152.9
X51.75Y-154.9
X51.75Y-157.1
X51.75Y-159.1
X51.75Y-161.1
X51.75Y-163.1
X51.75Y-165.6
X51.75Y-167.6
X51.75Y-169.6
X51.75Y-171.6
X51.75Y-173.6
X51.75Y-175.6
X61.0Y-68.0
X61.0Y-69.5
X61.0Y-70.9
X61.0Y-72.2
X61.1Y-83.4
X61.1Y-86.4
X61.1Y-87.9
X61.1Y-89.4
X61.1Y-90.9
X63.0Y-68.0
X63.1Y-83.4
X63.1Y-86.4
X63.1Y-87.9
X63.1Y-89.4
X63.1Y-90.9
X63.2Y-57.775
X63.2Y-60.4
X63.2Y-64.9
X63.6Y-46.9
X64.0Y-72.5
X64.0Y-79.5
X64.1Y-76.1
X64.3Y-36.6
X65.0Y-68.0
X65.1Y-57.8
X65.1Y-60.4
X65.1Y-64.9
X65.1Y-83.4
X65.1Y-86.4
X65.1Y-87.9
X65.1Y-89.4
X65.1Y-90.9
X66.3Y-36.65
X67.0Y-68.0
X67.0Y-69.5
X67.0Y-70.9
X67.0Y-72.2
X67.1Y-83.4
X67.1Y-86.4
X67.1Y-87.9
X67.1Y-89.4
X67.1Y-90.9
X68.3Y-36.65
X70.3Y-36.65
X71.8Y-83.3
X71.8Y-86.3
X71.8Y-87.8
X71.8Y-89.3
X71.8Y-90.8
X72.0Y-68.0
X72.0Y-69.5
X72.0Y-70.9
X72.0Y-72.2
X72.5Y-36.7
X73.8Y-83.35
X73.8Y-86.35
X73.8Y-87.85
X73.8Y-89.35
X73.8Y-90.85
X74.0Y-57.8
X74.0Y-60.4
X74.0Y-64.9
X74.0Y-68.0
X74.2Y-46.9
X74.5Y-36.75
X74.8Y-72.5
X74.8Y-76.1
X74.8Y-79.4
X75.8Y-57.8
X75.8Y-60.4
X75.8Y-64.9
X75.8Y-83.35
X75.8Y-86.35
X75.8Y-87.85
X75.8Y-89.35
X75.8Y-90.85
X76.0Y-68.0
X76.5Y-36.75
X77.8Y-83.35
X77.8Y-86.35
X77.8Y-87.85
X77.8Y-89.35
X77.8Y-90.85
X78.0Y-68.0
X78.0Y-69.5
X78.0Y-70.9
X78.0Y-72.2
X78.5Y-36.75
X79.3Y-123.1
X79.3Y-168.1
X81.0Y-36.8
X81.3Y-123.1
X81.3Y-168.1
X82.4Y-83.4
X82.4Y-86.4
X82.4Y-87.9
X82.4Y-89.4
X82.4Y-90.9
X82.5Y-68.0
X82.5Y-69.5
X82.5Y-70.9
X82.5Y-72.2
X83.0Y-36.85
X83.3Y-123.1
X83.3Y-168.1
X84.4Y-83.45
X84.4Y-86.45
X84.4Y-87.95
X84.4Y-89.45
X84.4Y-90.95
X84.5Y-68.0
X84.6Y-57.8
X84.6Y-60.4
X84.6Y-64.9
X84.9Y-46.9
X85.0Y-36.85
X85.3Y-123.1
X85.3Y-168.1
X85.5Y-72.5
X85.5Y-76.0
X85.5Y-79.5
X86.4Y-87.95
X86.4Y-89.45
X86.4Y-90.95
X86.5Y-68.0
X86.7Y-57.8
X86.7Y-60.4
X86.7Y-64.9
X87.0Y-36.85
X88.4Y-87.95
X88.4Y-89.45
X88.4Y-90.95
X88.5Y-68.0
X88.5Y-69.5
X88.5Y-70.9
X88.5Y-72.2
X89.0Y-36.9
X89.1Y-17.8
X89.1Y-20.2
X89.1Y-22.2
X89.1Y-25.0
X89.1Y-26.75
X89.1Y-28.5
X89.1Y-30.0
X90.3Y-123.1
X90.3Y-168.1
X91.0Y-36.95
X91.1Y-17.75
X91.1Y-30.05
X91.5Y-130.2
X91.5Y-143.1
X91.5Y-148.7
X92.0Y-135.9
X92.0Y-137.4
X92.0Y-138.9
X92.0Y-140.4
X92.0Y-151.8
X92.0Y-153.3
X92.0Y-154.8
X92.0Y-156.3
X92.3Y-123.1
X92.3Y-168.1
X93.1Y-17.75
X93.1Y-30.05
X94.0Y-135.95
X94.0Y-137.45
X94.0Y-138.95
X94.0Y-140.45
X94.0Y-151.85
X94.0Y-153.35
X94.0Y-154.85
X94.0Y-156.35
X94.3Y-123.1
X94.3Y-168.1
X94.5Y-130.2
X94.5Y-143.1
X94.5Y-148.7
X95.1Y-17.75
X95.1Y-20.15
X95.1Y-22.15
X95.1Y-24.95
X95.1Y-26.7
X95.1Y-28.45
X95.1Y-30.05
X96.3Y-123.1
X96.3Y-168.1
X97.1Y-17.8
X97.1Y-20.15
X97.1Y-22.15
X97.1Y-24.95
X97.1Y-26.7
X97.1Y-28.45
X97.1Y-30.1
X99.1Y-17.75
X99.1Y-20.15
X99.1Y-22.15
X99.1Y-24.95
X99.1Y-26.7
X99.1Y-28.45
X99.1Y-30.15
X101.1Y-17.75
X101.1Y-30.15
X101.3Y-123.1
X101.3Y-168.1
X103.1Y-17.75
X103.1Y-30.15
X103.3Y-123.1
X103.3Y-168.1
X104.9Y-17.8
X104.9Y-20.2
X104.9Y-22.2
X104.9Y-25.0
X104.9Y-26.75
X104.9Y-28.5
X104.9Y-30.2
X105.3Y-168.1
X107.3Y-168.1
X120.5Y-26.5
X120.5Y-30.8
X134.1Y-120.0
X134.1Y-122.0
X134.1Y-124.0
X134.1Y-126.0
X134.1Y-128.2
X134.1Y-130.2
X134.1Y-132.2
X134.1Y-134.2
X134.1Y-136.7
X134.1Y-138.7
X134.1Y-140.7
X134.1Y-142.7
X134.1Y-144.7
X134.1Y-146.7
X134.1Y-148.9
X134.1Y-150.9
X134.1Y-152.9
X134.1Y-154.9
X134.1Y-157.1
X134.1Y-159.1
X134.1Y-161.1
X134.1Y-163.1
X134.1Y-165.6
X134.1Y-167.6
X134.1Y-169.6
X134.1Y-171.6
X134.1Y-173.6
X134.1Y-175.6
T7
X110.0Y-94.7
X111.27Y-94.7
X112.54Y-94.7
X113.81Y-94.7
T8
X111.98Y-37.96
X111.98Y-40.5
X111.98Y-43.04
X111.98Y-45.58
X111.98Y-48.12
X111.98Y-50.66
X111.98Y-53.2
X111.98Y-55.74
X111.98Y-58.28
X111.98Y-60.82
X111.98Y-63.36
X111.98Y-65.9
X134.9Y-37.96
X134.9Y-40.5
X134.9Y-43.04
X134.9Y-45.58
X134.9Y-48.12
X134.9Y-50.66
X134.9Y-53.2
X134.9Y-55.74
X134.9Y-58.28
X134.9Y-60.82
X134.9Y-63.36
X134.9Y-65.9
T9
X102.58Y-79.3
X105.12Y-79.3
X107.66Y-79.3
X110.2Y-79.3
X115.6Y-79.3
X118.14Y-79.3
X120.68Y-79.3
X123.22Y-79.3
X128.62Y-79.3
X131.16Y-79.3
X133.7Y-79.3
X136.24Y-79.3
T10
X79.8Y-19.04
X79.8Y-28.96
X83.2Y-19.04
X83.2Y-28.96
T11
X63.2Y-29.45
X70.4Y-29.45
T12
X53.0Y-17.0
X53.0Y-86.0
X53.0Y-193.025
X55.0Y-38.0
X55.0Y-78.0
X95.0Y-38.0
X95.0Y-78.0
X134.0Y-17.0
X134.0Y-86.0
X134.0Y-193.025
T6
X60.05Y-22.9G85X60.05Y-24.0
G05
X73.55Y-22.9G85X73.55Y-24.0
G05
M30
