G04 #@! TF.GenerationSoftware,KiCad,Pcbnew,9.0.2*
G04 #@! TF.CreationDate,2025-06-03T19:19:20+02:00*
G04 #@! TF.ProjectId,Nerd QX,4e657264-2051-4582-9e6b-696361645f70,rev?*
G04 #@! TF.SameCoordinates,Original*
G04 #@! TF.FileFunction,Soldermask,Bot*
G04 #@! TF.FilePolarity,Negative*
%FSLAX46Y46*%
G04 Gerber Fmt 4.6, Leading zero omitted, Abs format (unit mm)*
G04 Created by KiCad (PCBNEW 9.0.2) date 2025-06-03 19:19:20*
%MOMM*%
%LPD*%
G01*
G04 APERTURE LIST*
G04 Aperture macros list*
%AMRoundRect*
0 Rectangle with rounded corners*
0 $1 Rounding radius*
0 $2 $3 $4 $5 $6 $7 $8 $9 X,Y pos of 4 corners*
0 Add a 4 corners polygon primitive as box body*
4,1,4,$2,$3,$4,$5,$6,$7,$8,$9,$2,$3,0*
0 Add four circle primitives for the rounded corners*
1,1,$1+$1,$2,$3*
1,1,$1+$1,$4,$5*
1,1,$1+$1,$6,$7*
1,1,$1+$1,$8,$9*
0 Add four rect primitives between the rounded corners*
20,1,$1+$1,$2,$3,$4,$5,0*
20,1,$1+$1,$4,$5,$6,$7,0*
20,1,$1+$1,$6,$7,$8,$9,0*
20,1,$1+$1,$8,$9,$2,$3,0*%
%AMFreePoly0*
4,1,23,0.500000,-0.750000,0.000000,-0.750000,0.000000,-0.745722,-0.065263,-0.745722,-0.191342,-0.711940,-0.304381,-0.646677,-0.396677,-0.554381,-0.461940,-0.441342,-0.495722,-0.315263,-0.495722,-0.250000,-0.500000,-0.250000,-0.500000,0.250000,-0.495722,0.250000,-0.495722,0.315263,-0.461940,0.441342,-0.396677,0.554381,-0.304381,0.646677,-0.191342,0.711940,-0.065263,0.745722,0.000000,0.745722,
0.000000,0.750000,0.500000,0.750000,0.500000,-0.750000,0.500000,-0.750000,$1*%
%AMFreePoly1*
4,1,23,0.000000,0.745722,0.065263,0.745722,0.191342,0.711940,0.304381,0.646677,0.396677,0.554381,0.461940,0.441342,0.495722,0.315263,0.495722,0.250000,0.500000,0.250000,0.500000,-0.250000,0.495722,-0.250000,0.495722,-0.315263,0.461940,-0.441342,0.396677,-0.554381,0.304381,-0.646677,0.191342,-0.711940,0.065263,-0.745722,0.000000,-0.745722,0.000000,-0.750000,-0.500000,-0.750000,
-0.500000,0.750000,0.000000,0.750000,0.000000,0.745722,0.000000,0.745722,$1*%
G04 Aperture macros list end*
%ADD10C,1.500000*%
%ADD11C,0.600000*%
%ADD12C,0.800000*%
%ADD13C,6.400000*%
%ADD14C,1.100000*%
%ADD15R,1.730000X2.030000*%
%ADD16O,1.730000X2.030000*%
%ADD17C,5.000000*%
%ADD18C,4.000000*%
%ADD19C,1.700000*%
%ADD20C,3.600000*%
%ADD21C,5.600000*%
%ADD22C,2.780000*%
%ADD23R,0.900000X2.000000*%
%ADD24RoundRect,1.025000X-1.025000X-1.025000X1.025000X-1.025000X1.025000X1.025000X-1.025000X1.025000X0*%
%ADD25C,4.100000*%
%ADD26RoundRect,0.250000X-0.475000X0.250000X-0.475000X-0.250000X0.475000X-0.250000X0.475000X0.250000X0*%
%ADD27RoundRect,0.250000X0.250000X0.475000X-0.250000X0.475000X-0.250000X-0.475000X0.250000X-0.475000X0*%
%ADD28C,2.000000*%
%ADD29RoundRect,0.250000X-0.262500X-0.450000X0.262500X-0.450000X0.262500X0.450000X-0.262500X0.450000X0*%
%ADD30RoundRect,0.250000X0.262500X0.450000X-0.262500X0.450000X-0.262500X-0.450000X0.262500X-0.450000X0*%
%ADD31RoundRect,0.250000X0.475000X-0.250000X0.475000X0.250000X-0.475000X0.250000X-0.475000X-0.250000X0*%
%ADD32RoundRect,0.250000X-0.450000X0.262500X-0.450000X-0.262500X0.450000X-0.262500X0.450000X0.262500X0*%
%ADD33RoundRect,0.250000X-0.325000X-1.100000X0.325000X-1.100000X0.325000X1.100000X-0.325000X1.100000X0*%
%ADD34RoundRect,0.250000X0.450000X-0.262500X0.450000X0.262500X-0.450000X0.262500X-0.450000X-0.262500X0*%
%ADD35RoundRect,0.250000X-0.250000X-0.475000X0.250000X-0.475000X0.250000X0.475000X-0.250000X0.475000X0*%
%ADD36R,1.000000X1.000000*%
%ADD37C,1.000000*%
%ADD38RoundRect,0.250000X0.325000X1.100000X-0.325000X1.100000X-0.325000X-1.100000X0.325000X-1.100000X0*%
%ADD39R,1.000000X0.900000*%
%ADD40FreePoly0,270.000000*%
%ADD41FreePoly1,270.000000*%
%ADD42FreePoly0,0.000000*%
%ADD43FreePoly1,0.000000*%
G04 #@! TA.AperFunction,Profile*
%ADD44C,0.100000*%
G04 #@! TD*
G04 APERTURE END LIST*
G36*
X101850000Y-46050000D02*
G01*
X102150000Y-46050000D01*
X102150000Y-44550000D01*
X101850000Y-44550000D01*
X101850000Y-46050000D01*
G37*
D10*
X60000000Y-113000000D03*
D11*
X72280000Y-54500003D03*
X73600000Y-54500003D03*
X74920000Y-54500003D03*
X71200000Y-53200003D03*
X72280000Y-53200000D03*
X73600000Y-53200000D03*
X76000000Y-53200000D03*
X74920000Y-53199998D03*
X72280000Y-51900003D03*
X73600000Y-51900003D03*
X74920000Y-51900003D03*
X61580000Y-54500000D03*
X62900000Y-54500000D03*
X64220000Y-54500000D03*
X60500000Y-53200000D03*
X61580000Y-53199997D03*
X62900000Y-53199997D03*
X65300000Y-53199997D03*
X64220000Y-53199995D03*
X61580000Y-51900000D03*
X62900000Y-51900000D03*
X64220000Y-51900000D03*
D12*
X50600000Y-18000000D03*
X51302944Y-16302944D03*
X51302944Y-19697056D03*
X53000000Y-15600000D03*
D13*
X53000000Y-18000000D03*
D12*
X53000000Y-20400000D03*
X54697056Y-16302944D03*
X54697056Y-19697056D03*
X55400000Y-18000000D03*
D14*
X131160000Y-81460000D03*
D15*
X136240000Y-79300000D03*
D16*
X133700000Y-79300000D03*
X131160000Y-79300000D03*
X128620000Y-79300000D03*
D17*
X121000000Y-99000000D03*
D18*
X130500000Y-183500000D03*
D19*
X111980000Y-65900000D03*
X111980000Y-63360000D03*
X111980000Y-60820000D03*
X111980000Y-58280000D03*
X111980000Y-55740000D03*
X111980000Y-53200000D03*
X111980000Y-50660000D03*
X111980000Y-48120000D03*
X111980000Y-45580000D03*
X111980000Y-43040000D03*
X111980000Y-40500000D03*
X111980000Y-37960000D03*
X134900000Y-37960000D03*
X134900000Y-40500000D03*
X134900000Y-43040000D03*
X134900000Y-45580000D03*
X134900000Y-48120000D03*
X134900000Y-50660000D03*
X134900000Y-53200000D03*
X134900000Y-55740000D03*
X134900000Y-58280000D03*
X134900000Y-60820000D03*
X134900000Y-63360000D03*
X134900000Y-65900000D03*
D17*
X65000000Y-193000000D03*
X121000000Y-193000000D03*
D11*
X82980000Y-54500003D03*
X84300000Y-54500003D03*
X85620000Y-54500003D03*
X81900000Y-53200003D03*
X82980000Y-53200000D03*
X84300000Y-53200000D03*
X86700000Y-53200000D03*
X85620000Y-53199998D03*
X82980000Y-51900003D03*
X84300000Y-51900003D03*
X85620000Y-51900003D03*
D14*
X118140000Y-81460000D03*
D15*
X123220000Y-79300000D03*
D16*
X120680000Y-79300000D03*
X118140000Y-79300000D03*
X115600000Y-79300000D03*
D18*
X55500000Y-183500000D03*
D20*
X95000000Y-38000000D03*
D21*
X95000000Y-38000000D03*
D18*
X55500000Y-108500000D03*
D22*
X83200000Y-19040000D03*
X79800000Y-19040000D03*
X83200000Y-28960000D03*
X79800000Y-28960000D03*
D10*
X60000000Y-179000000D03*
D12*
X131600000Y-18000000D03*
X132302944Y-16302944D03*
X132302944Y-19697056D03*
X134000000Y-15600000D03*
D13*
X134000000Y-18000000D03*
D12*
X134000000Y-20400000D03*
X135697056Y-16302944D03*
X135697056Y-19697056D03*
X136400000Y-18000000D03*
D18*
X130500000Y-108500000D03*
D10*
X126000000Y-179000000D03*
D23*
X60050000Y-23450000D03*
X73550000Y-23450000D03*
D24*
X63200000Y-29450000D03*
D25*
X70400000Y-29450000D03*
D12*
X131600000Y-193025000D03*
X132302944Y-191327944D03*
X132302944Y-194722056D03*
X134000000Y-190625000D03*
D13*
X134000000Y-193025000D03*
D12*
X134000000Y-195425000D03*
X135697056Y-191327944D03*
X135697056Y-194722056D03*
X136400000Y-193025000D03*
X50600000Y-86000000D03*
X51302944Y-84302944D03*
X51302944Y-87697056D03*
X53000000Y-83600000D03*
D13*
X53000000Y-86000000D03*
D12*
X53000000Y-88400000D03*
X54697056Y-84302944D03*
X54697056Y-87697056D03*
X55400000Y-86000000D03*
D14*
X105120000Y-81460000D03*
D15*
X110200000Y-79300000D03*
D16*
X107660000Y-79300000D03*
X105120000Y-79300000D03*
X102580000Y-79300000D03*
D20*
X55000000Y-38000000D03*
D21*
X55000000Y-38000000D03*
D12*
X131600000Y-86000000D03*
X132302944Y-84302944D03*
X132302944Y-87697056D03*
X134000000Y-83600000D03*
D13*
X134000000Y-86000000D03*
D12*
X134000000Y-88400000D03*
X135697056Y-84302944D03*
X135697056Y-87697056D03*
X136400000Y-86000000D03*
D20*
X95000000Y-78000000D03*
D21*
X95000000Y-78000000D03*
D10*
X126000000Y-113000000D03*
D17*
X65000000Y-99000000D03*
D12*
X50600000Y-193025000D03*
X51302944Y-191327944D03*
X51302944Y-194722056D03*
X53000000Y-190625000D03*
D13*
X53000000Y-193025000D03*
D12*
X53000000Y-195425000D03*
X54697056Y-191327944D03*
X54697056Y-194722056D03*
X55400000Y-193025000D03*
D20*
X55000000Y-78000000D03*
D21*
X55000000Y-78000000D03*
D26*
X90180000Y-150340000D03*
X90180000Y-152240000D03*
D27*
X107190000Y-148190000D03*
X105290000Y-148190000D03*
D28*
X99600000Y-94100000D03*
D29*
X83697500Y-148460000D03*
X85522500Y-148460000D03*
D30*
X77612500Y-59500000D03*
X75787500Y-59500000D03*
D26*
X100860000Y-130190000D03*
X100860000Y-132090000D03*
D31*
X95190000Y-161950000D03*
X95190000Y-160050000D03*
D32*
X102720000Y-144687500D03*
X102720000Y-146512500D03*
D26*
X90855000Y-160020000D03*
X90855000Y-161920000D03*
D33*
X97725000Y-153100000D03*
X100675000Y-153100000D03*
D31*
X84890000Y-146545000D03*
X84890000Y-144645000D03*
D32*
X101100000Y-160077500D03*
X101100000Y-161902500D03*
D26*
X104790000Y-130220000D03*
X104790000Y-132120000D03*
D34*
X82900000Y-146522500D03*
X82900000Y-144697500D03*
D30*
X84212500Y-142900000D03*
X82387500Y-142900000D03*
D27*
X87600000Y-155700000D03*
X85700000Y-155700000D03*
D28*
X103100000Y-94000000D03*
D26*
X86870000Y-160020000D03*
X86870000Y-161920000D03*
D27*
X80190000Y-134120000D03*
X78290000Y-134120000D03*
D29*
X101757500Y-142890000D03*
X103582500Y-142890000D03*
D31*
X77600000Y-57750000D03*
X77600000Y-55850000D03*
D35*
X105130000Y-145500000D03*
X107030000Y-145500000D03*
X98340000Y-139770000D03*
X100240000Y-139770000D03*
X98210000Y-157700000D03*
X100110000Y-157700000D03*
X98220000Y-150400000D03*
X100120000Y-150400000D03*
X98330000Y-141750000D03*
X100230000Y-141750000D03*
D27*
X80590000Y-146030000D03*
X78690000Y-146030000D03*
D26*
X90200000Y-155930000D03*
X90200000Y-157830000D03*
X82100000Y-57650000D03*
X82100000Y-59550000D03*
D31*
X66900000Y-57750000D03*
X66900000Y-55850000D03*
X99150000Y-161965000D03*
X99150000Y-160065000D03*
D27*
X107160000Y-159110000D03*
X105260000Y-159110000D03*
D36*
X110000000Y-94700000D03*
D37*
X111270000Y-94700000D03*
X112540000Y-94700000D03*
X113810000Y-94700000D03*
D26*
X60700000Y-57650000D03*
X60700000Y-59550000D03*
D31*
X93000000Y-147050000D03*
X93000000Y-145150000D03*
X86890000Y-146545000D03*
X86890000Y-144645000D03*
D32*
X83010000Y-160047500D03*
X83010000Y-161872500D03*
D35*
X78760000Y-143070000D03*
X80660000Y-143070000D03*
D31*
X97175000Y-161965000D03*
X97175000Y-160065000D03*
D35*
X78700000Y-149020000D03*
X80600000Y-149020000D03*
D26*
X90100000Y-139950000D03*
X90100000Y-141850000D03*
D31*
X77600000Y-53950000D03*
X77600000Y-52050000D03*
D34*
X84920000Y-161882500D03*
X84920000Y-160057500D03*
D31*
X88887476Y-132088486D03*
X88887476Y-130188486D03*
D28*
X120500000Y-37900000D03*
D31*
X100770000Y-146520000D03*
X100770000Y-144620000D03*
D27*
X87650000Y-141700000D03*
X85750000Y-141700000D03*
X87650000Y-139700000D03*
X85750000Y-139700000D03*
D28*
X127200000Y-38000000D03*
D31*
X95980000Y-157840000D03*
X95980000Y-155940000D03*
D28*
X135000000Y-25000000D03*
D31*
X85100000Y-128650000D03*
X85100000Y-126750000D03*
D30*
X66912500Y-59500000D03*
X65087500Y-59500000D03*
D35*
X105700000Y-134130000D03*
X107600000Y-134130000D03*
D31*
X95820000Y-141860000D03*
X95820000Y-139960000D03*
D28*
X132200000Y-32000000D03*
D32*
X82927476Y-130215986D03*
X82927476Y-132040986D03*
D38*
X88175000Y-137000000D03*
X85225000Y-137000000D03*
D31*
X57700000Y-59550000D03*
X57700000Y-57650000D03*
X86887476Y-132088486D03*
X86887476Y-130188486D03*
X95820000Y-152240000D03*
X95820000Y-150340000D03*
D30*
X102182500Y-148420000D03*
X100357500Y-148420000D03*
D26*
X98850000Y-130190000D03*
X98850000Y-132090000D03*
D39*
X83275000Y-128475000D03*
X81125000Y-128475000D03*
X81125000Y-126925000D03*
X83275000Y-126925000D03*
D35*
X98370000Y-134340000D03*
X100270000Y-134340000D03*
X98210000Y-155700000D03*
X100110000Y-155700000D03*
D27*
X107220000Y-142900000D03*
X105320000Y-142900000D03*
D34*
X81007476Y-132040986D03*
X81007476Y-130215986D03*
D30*
X88512500Y-59500000D03*
X86687500Y-59500000D03*
D38*
X88155000Y-153110000D03*
X85205000Y-153110000D03*
D26*
X71400000Y-57650000D03*
X71400000Y-59550000D03*
D28*
X52000000Y-25000000D03*
D34*
X102820000Y-132062500D03*
X102820000Y-130237500D03*
D35*
X78830000Y-159140000D03*
X80730000Y-159140000D03*
D27*
X80730000Y-161130000D03*
X78830000Y-161130000D03*
D28*
X95000000Y-193000000D03*
D31*
X88500000Y-57750000D03*
X88500000Y-55850000D03*
D40*
X120500000Y-28150000D03*
D41*
X120500000Y-29450000D03*
D31*
X88890000Y-146545000D03*
X88890000Y-144645000D03*
D27*
X87620000Y-150470000D03*
X85720000Y-150470000D03*
D33*
X97845000Y-137070000D03*
X100795000Y-137070000D03*
D27*
X87620000Y-157700000D03*
X85720000Y-157700000D03*
X87640000Y-134300000D03*
X85740000Y-134300000D03*
D35*
X104920000Y-161120000D03*
X106820000Y-161120000D03*
D42*
X101350000Y-45300000D03*
D43*
X102650000Y-45300000D03*
D31*
X84887476Y-132088486D03*
X84887476Y-130188486D03*
D26*
X88870000Y-160020000D03*
X88870000Y-161920000D03*
D31*
X96830000Y-146530000D03*
X96830000Y-144630000D03*
X95890000Y-135940000D03*
X95890000Y-134040000D03*
D26*
X79030000Y-130190000D03*
X79030000Y-132090000D03*
X90100000Y-134050000D03*
X90100000Y-135950000D03*
X96890000Y-130190000D03*
X96890000Y-132090000D03*
D31*
X98800000Y-146520000D03*
X98800000Y-144620000D03*
D28*
X120500000Y-32000000D03*
D44*
X138000000Y-195500000D02*
X138000000Y-14500000D01*
X136500000Y-13000000D02*
X50500000Y-13000000D01*
X136500000Y-13000000D02*
G75*
G02*
X138000000Y-14500000I0J-1500000D01*
G01*
X138000000Y-195500000D02*
G75*
G02*
X136500000Y-197000000I-1500000J0D01*
G01*
X50500000Y-197000000D02*
G75*
G02*
X49000000Y-195500000I0J1500000D01*
G01*
X50500000Y-197000000D02*
X136500000Y-197000000D01*
X49000000Y-14500000D02*
G75*
G02*
X50500000Y-13000000I1500000J0D01*
G01*
X49000000Y-14500000D02*
X49000000Y-195500000D01*
M02*
