G04 #@! TF.GenerationSoftware,KiCad,Pcbnew,9.0.0*
G04 #@! TF.CreationDate,2025-09-08T10:21:56-04:00*
G04 #@! TF.ProjectId,Nerd QX,4e657264-2051-4582-9e6b-696361645f70,1.00*
G04 #@! TF.SameCoordinates,Original*
G04 #@! TF.FileFunction,Other,User*
%FSLAX46Y46*%
G04 Gerber Fmt 4.6, Leading zero omitted, Abs format (unit mm)*
G04 Created by KiCad (PCBNEW 9.0.0) date 2025-09-08 10:21:56*
%MOMM*%
%LPD*%
G01*
G04 APERTURE LIST*
%ADD10C,0.150000*%
G04 #@! TA.AperFunction,Profile*
%ADD11C,0.100000*%
G04 #@! TD*
G04 APERTURE END LIST*
D10*
X53900000Y-66500000D02*
X90200000Y-66500000D01*
X53900000Y-53100000D02*
X90100000Y-53100000D01*
X140304819Y-144036309D02*
X140304819Y-144607737D01*
X140304819Y-144322023D02*
X139304819Y-144322023D01*
X139304819Y-144322023D02*
X139447676Y-144417261D01*
X139447676Y-144417261D02*
X139542914Y-144512499D01*
X139542914Y-144512499D02*
X139590533Y-144607737D01*
X139304819Y-143417261D02*
X139304819Y-143322023D01*
X139304819Y-143322023D02*
X139352438Y-143226785D01*
X139352438Y-143226785D02*
X139400057Y-143179166D01*
X139400057Y-143179166D02*
X139495295Y-143131547D01*
X139495295Y-143131547D02*
X139685771Y-143083928D01*
X139685771Y-143083928D02*
X139923866Y-143083928D01*
X139923866Y-143083928D02*
X140114342Y-143131547D01*
X140114342Y-143131547D02*
X140209580Y-143179166D01*
X140209580Y-143179166D02*
X140257200Y-143226785D01*
X140257200Y-143226785D02*
X140304819Y-143322023D01*
X140304819Y-143322023D02*
X140304819Y-143417261D01*
X140304819Y-143417261D02*
X140257200Y-143512499D01*
X140257200Y-143512499D02*
X140209580Y-143560118D01*
X140209580Y-143560118D02*
X140114342Y-143607737D01*
X140114342Y-143607737D02*
X139923866Y-143655356D01*
X139923866Y-143655356D02*
X139685771Y-143655356D01*
X139685771Y-143655356D02*
X139495295Y-143607737D01*
X139495295Y-143607737D02*
X139400057Y-143560118D01*
X139400057Y-143560118D02*
X139352438Y-143512499D01*
X139352438Y-143512499D02*
X139304819Y-143417261D01*
X139304819Y-142750594D02*
X139304819Y-142083928D01*
X139304819Y-142083928D02*
X140304819Y-142512499D01*
X140209580Y-141702975D02*
X140257200Y-141655356D01*
X140257200Y-141655356D02*
X140304819Y-141702975D01*
X140304819Y-141702975D02*
X140257200Y-141750594D01*
X140257200Y-141750594D02*
X140209580Y-141702975D01*
X140209580Y-141702975D02*
X140304819Y-141702975D01*
X139304819Y-141036309D02*
X139304819Y-140941071D01*
X139304819Y-140941071D02*
X139352438Y-140845833D01*
X139352438Y-140845833D02*
X139400057Y-140798214D01*
X139400057Y-140798214D02*
X139495295Y-140750595D01*
X139495295Y-140750595D02*
X139685771Y-140702976D01*
X139685771Y-140702976D02*
X139923866Y-140702976D01*
X139923866Y-140702976D02*
X140114342Y-140750595D01*
X140114342Y-140750595D02*
X140209580Y-140798214D01*
X140209580Y-140798214D02*
X140257200Y-140845833D01*
X140257200Y-140845833D02*
X140304819Y-140941071D01*
X140304819Y-140941071D02*
X140304819Y-141036309D01*
X140304819Y-141036309D02*
X140257200Y-141131547D01*
X140257200Y-141131547D02*
X140209580Y-141179166D01*
X140209580Y-141179166D02*
X140114342Y-141226785D01*
X140114342Y-141226785D02*
X139923866Y-141274404D01*
X139923866Y-141274404D02*
X139685771Y-141274404D01*
X139685771Y-141274404D02*
X139495295Y-141226785D01*
X139495295Y-141226785D02*
X139400057Y-141179166D01*
X139400057Y-141179166D02*
X139352438Y-141131547D01*
X139352438Y-141131547D02*
X139304819Y-141036309D01*
X139400057Y-140322023D02*
X139352438Y-140274404D01*
X139352438Y-140274404D02*
X139304819Y-140179166D01*
X139304819Y-140179166D02*
X139304819Y-139941071D01*
X139304819Y-139941071D02*
X139352438Y-139845833D01*
X139352438Y-139845833D02*
X139400057Y-139798214D01*
X139400057Y-139798214D02*
X139495295Y-139750595D01*
X139495295Y-139750595D02*
X139590533Y-139750595D01*
X139590533Y-139750595D02*
X139733390Y-139798214D01*
X139733390Y-139798214D02*
X140304819Y-140369642D01*
X140304819Y-140369642D02*
X140304819Y-139750595D01*
X139304819Y-138845833D02*
X139304819Y-139322023D01*
X139304819Y-139322023D02*
X139781009Y-139369642D01*
X139781009Y-139369642D02*
X139733390Y-139322023D01*
X139733390Y-139322023D02*
X139685771Y-139226785D01*
X139685771Y-139226785D02*
X139685771Y-138988690D01*
X139685771Y-138988690D02*
X139733390Y-138893452D01*
X139733390Y-138893452D02*
X139781009Y-138845833D01*
X139781009Y-138845833D02*
X139876247Y-138798214D01*
X139876247Y-138798214D02*
X140114342Y-138798214D01*
X140114342Y-138798214D02*
X140209580Y-138845833D01*
X140209580Y-138845833D02*
X140257200Y-138893452D01*
X140257200Y-138893452D02*
X140304819Y-138988690D01*
X140304819Y-138988690D02*
X140304819Y-139226785D01*
X140304819Y-139226785D02*
X140257200Y-139322023D01*
X140257200Y-139322023D02*
X140209580Y-139369642D01*
X139304819Y-138179166D02*
X139304819Y-138083928D01*
X139304819Y-138083928D02*
X139352438Y-137988690D01*
X139352438Y-137988690D02*
X139400057Y-137941071D01*
X139400057Y-137941071D02*
X139495295Y-137893452D01*
X139495295Y-137893452D02*
X139685771Y-137845833D01*
X139685771Y-137845833D02*
X139923866Y-137845833D01*
X139923866Y-137845833D02*
X140114342Y-137893452D01*
X140114342Y-137893452D02*
X140209580Y-137941071D01*
X140209580Y-137941071D02*
X140257200Y-137988690D01*
X140257200Y-137988690D02*
X140304819Y-138083928D01*
X140304819Y-138083928D02*
X140304819Y-138179166D01*
X140304819Y-138179166D02*
X140257200Y-138274404D01*
X140257200Y-138274404D02*
X140209580Y-138322023D01*
X140209580Y-138322023D02*
X140114342Y-138369642D01*
X140114342Y-138369642D02*
X139923866Y-138417261D01*
X139923866Y-138417261D02*
X139685771Y-138417261D01*
X139685771Y-138417261D02*
X139495295Y-138369642D01*
X139495295Y-138369642D02*
X139400057Y-138322023D01*
X139400057Y-138322023D02*
X139352438Y-138274404D01*
X139352438Y-138274404D02*
X139304819Y-138179166D01*
X140304819Y-136655356D02*
X139638152Y-136655356D01*
X139733390Y-136655356D02*
X139685771Y-136607737D01*
X139685771Y-136607737D02*
X139638152Y-136512499D01*
X139638152Y-136512499D02*
X139638152Y-136369642D01*
X139638152Y-136369642D02*
X139685771Y-136274404D01*
X139685771Y-136274404D02*
X139781009Y-136226785D01*
X139781009Y-136226785D02*
X140304819Y-136226785D01*
X139781009Y-136226785D02*
X139685771Y-136179166D01*
X139685771Y-136179166D02*
X139638152Y-136083928D01*
X139638152Y-136083928D02*
X139638152Y-135941071D01*
X139638152Y-135941071D02*
X139685771Y-135845832D01*
X139685771Y-135845832D02*
X139781009Y-135798213D01*
X139781009Y-135798213D02*
X140304819Y-135798213D01*
X140304819Y-135322023D02*
X139638152Y-135322023D01*
X139733390Y-135322023D02*
X139685771Y-135274404D01*
X139685771Y-135274404D02*
X139638152Y-135179166D01*
X139638152Y-135179166D02*
X139638152Y-135036309D01*
X139638152Y-135036309D02*
X139685771Y-134941071D01*
X139685771Y-134941071D02*
X139781009Y-134893452D01*
X139781009Y-134893452D02*
X140304819Y-134893452D01*
X139781009Y-134893452D02*
X139685771Y-134845833D01*
X139685771Y-134845833D02*
X139638152Y-134750595D01*
X139638152Y-134750595D02*
X139638152Y-134607738D01*
X139638152Y-134607738D02*
X139685771Y-134512499D01*
X139685771Y-134512499D02*
X139781009Y-134464880D01*
X139781009Y-134464880D02*
X140304819Y-134464880D01*
X134500000Y-86000000D02*
X141586420Y-86000000D01*
X134500000Y-193025000D02*
X141586420Y-193025000D01*
X141000000Y-86000000D02*
X141000000Y-193025000D01*
X141000000Y-86000000D02*
X141000000Y-193025000D01*
X141000000Y-86000000D02*
X141586421Y-87126504D01*
X141000000Y-86000000D02*
X140413579Y-87126504D01*
X141000000Y-193025000D02*
X140413579Y-191898496D01*
X141000000Y-193025000D02*
X141586421Y-191898496D01*
X141000000Y-86000000D02*
X141000000Y-193025000D01*
X141000000Y-86000000D02*
X141000000Y-193025000D01*
X141000000Y-86000000D02*
X141586421Y-87126504D01*
X141000000Y-86000000D02*
X140413579Y-87126504D01*
X141000000Y-193025000D02*
X140413579Y-191898496D01*
X141000000Y-193025000D02*
X141586421Y-191898496D01*
X44104819Y-150666665D02*
X44104819Y-149999999D01*
X44104819Y-149999999D02*
X45104819Y-150428570D01*
X44104819Y-149142856D02*
X44104819Y-149619046D01*
X44104819Y-149619046D02*
X44581009Y-149666665D01*
X44581009Y-149666665D02*
X44533390Y-149619046D01*
X44533390Y-149619046D02*
X44485771Y-149523808D01*
X44485771Y-149523808D02*
X44485771Y-149285713D01*
X44485771Y-149285713D02*
X44533390Y-149190475D01*
X44533390Y-149190475D02*
X44581009Y-149142856D01*
X44581009Y-149142856D02*
X44676247Y-149095237D01*
X44676247Y-149095237D02*
X44914342Y-149095237D01*
X44914342Y-149095237D02*
X45009580Y-149142856D01*
X45009580Y-149142856D02*
X45057200Y-149190475D01*
X45057200Y-149190475D02*
X45104819Y-149285713D01*
X45104819Y-149285713D02*
X45104819Y-149523808D01*
X45104819Y-149523808D02*
X45057200Y-149619046D01*
X45057200Y-149619046D02*
X45009580Y-149666665D01*
X45009580Y-148666665D02*
X45057200Y-148619046D01*
X45057200Y-148619046D02*
X45104819Y-148666665D01*
X45104819Y-148666665D02*
X45057200Y-148714284D01*
X45057200Y-148714284D02*
X45009580Y-148666665D01*
X45009580Y-148666665D02*
X45104819Y-148666665D01*
X44104819Y-147999999D02*
X44104819Y-147904761D01*
X44104819Y-147904761D02*
X44152438Y-147809523D01*
X44152438Y-147809523D02*
X44200057Y-147761904D01*
X44200057Y-147761904D02*
X44295295Y-147714285D01*
X44295295Y-147714285D02*
X44485771Y-147666666D01*
X44485771Y-147666666D02*
X44723866Y-147666666D01*
X44723866Y-147666666D02*
X44914342Y-147714285D01*
X44914342Y-147714285D02*
X45009580Y-147761904D01*
X45009580Y-147761904D02*
X45057200Y-147809523D01*
X45057200Y-147809523D02*
X45104819Y-147904761D01*
X45104819Y-147904761D02*
X45104819Y-147999999D01*
X45104819Y-147999999D02*
X45057200Y-148095237D01*
X45057200Y-148095237D02*
X45009580Y-148142856D01*
X45009580Y-148142856D02*
X44914342Y-148190475D01*
X44914342Y-148190475D02*
X44723866Y-148238094D01*
X44723866Y-148238094D02*
X44485771Y-148238094D01*
X44485771Y-148238094D02*
X44295295Y-148190475D01*
X44295295Y-148190475D02*
X44200057Y-148142856D01*
X44200057Y-148142856D02*
X44152438Y-148095237D01*
X44152438Y-148095237D02*
X44104819Y-147999999D01*
X44104819Y-147047618D02*
X44104819Y-146952380D01*
X44104819Y-146952380D02*
X44152438Y-146857142D01*
X44152438Y-146857142D02*
X44200057Y-146809523D01*
X44200057Y-146809523D02*
X44295295Y-146761904D01*
X44295295Y-146761904D02*
X44485771Y-146714285D01*
X44485771Y-146714285D02*
X44723866Y-146714285D01*
X44723866Y-146714285D02*
X44914342Y-146761904D01*
X44914342Y-146761904D02*
X45009580Y-146809523D01*
X45009580Y-146809523D02*
X45057200Y-146857142D01*
X45057200Y-146857142D02*
X45104819Y-146952380D01*
X45104819Y-146952380D02*
X45104819Y-147047618D01*
X45104819Y-147047618D02*
X45057200Y-147142856D01*
X45057200Y-147142856D02*
X45009580Y-147190475D01*
X45009580Y-147190475D02*
X44914342Y-147238094D01*
X44914342Y-147238094D02*
X44723866Y-147285713D01*
X44723866Y-147285713D02*
X44485771Y-147285713D01*
X44485771Y-147285713D02*
X44295295Y-147238094D01*
X44295295Y-147238094D02*
X44200057Y-147190475D01*
X44200057Y-147190475D02*
X44152438Y-147142856D01*
X44152438Y-147142856D02*
X44104819Y-147047618D01*
X44104819Y-146095237D02*
X44104819Y-145999999D01*
X44104819Y-145999999D02*
X44152438Y-145904761D01*
X44152438Y-145904761D02*
X44200057Y-145857142D01*
X44200057Y-145857142D02*
X44295295Y-145809523D01*
X44295295Y-145809523D02*
X44485771Y-145761904D01*
X44485771Y-145761904D02*
X44723866Y-145761904D01*
X44723866Y-145761904D02*
X44914342Y-145809523D01*
X44914342Y-145809523D02*
X45009580Y-145857142D01*
X45009580Y-145857142D02*
X45057200Y-145904761D01*
X45057200Y-145904761D02*
X45104819Y-145999999D01*
X45104819Y-145999999D02*
X45104819Y-146095237D01*
X45104819Y-146095237D02*
X45057200Y-146190475D01*
X45057200Y-146190475D02*
X45009580Y-146238094D01*
X45009580Y-146238094D02*
X44914342Y-146285713D01*
X44914342Y-146285713D02*
X44723866Y-146333332D01*
X44723866Y-146333332D02*
X44485771Y-146333332D01*
X44485771Y-146333332D02*
X44295295Y-146285713D01*
X44295295Y-146285713D02*
X44200057Y-146238094D01*
X44200057Y-146238094D02*
X44152438Y-146190475D01*
X44152438Y-146190475D02*
X44104819Y-146095237D01*
X44104819Y-145142856D02*
X44104819Y-145047618D01*
X44104819Y-145047618D02*
X44152438Y-144952380D01*
X44152438Y-144952380D02*
X44200057Y-144904761D01*
X44200057Y-144904761D02*
X44295295Y-144857142D01*
X44295295Y-144857142D02*
X44485771Y-144809523D01*
X44485771Y-144809523D02*
X44723866Y-144809523D01*
X44723866Y-144809523D02*
X44914342Y-144857142D01*
X44914342Y-144857142D02*
X45009580Y-144904761D01*
X45009580Y-144904761D02*
X45057200Y-144952380D01*
X45057200Y-144952380D02*
X45104819Y-145047618D01*
X45104819Y-145047618D02*
X45104819Y-145142856D01*
X45104819Y-145142856D02*
X45057200Y-145238094D01*
X45057200Y-145238094D02*
X45009580Y-145285713D01*
X45009580Y-145285713D02*
X44914342Y-145333332D01*
X44914342Y-145333332D02*
X44723866Y-145380951D01*
X44723866Y-145380951D02*
X44485771Y-145380951D01*
X44485771Y-145380951D02*
X44295295Y-145333332D01*
X44295295Y-145333332D02*
X44200057Y-145285713D01*
X44200057Y-145285713D02*
X44152438Y-145238094D01*
X44152438Y-145238094D02*
X44104819Y-145142856D01*
X45104819Y-143619046D02*
X44438152Y-143619046D01*
X44533390Y-143619046D02*
X44485771Y-143571427D01*
X44485771Y-143571427D02*
X44438152Y-143476189D01*
X44438152Y-143476189D02*
X44438152Y-143333332D01*
X44438152Y-143333332D02*
X44485771Y-143238094D01*
X44485771Y-143238094D02*
X44581009Y-143190475D01*
X44581009Y-143190475D02*
X45104819Y-143190475D01*
X44581009Y-143190475D02*
X44485771Y-143142856D01*
X44485771Y-143142856D02*
X44438152Y-143047618D01*
X44438152Y-143047618D02*
X44438152Y-142904761D01*
X44438152Y-142904761D02*
X44485771Y-142809522D01*
X44485771Y-142809522D02*
X44581009Y-142761903D01*
X44581009Y-142761903D02*
X45104819Y-142761903D01*
X45104819Y-142285713D02*
X44438152Y-142285713D01*
X44533390Y-142285713D02*
X44485771Y-142238094D01*
X44485771Y-142238094D02*
X44438152Y-142142856D01*
X44438152Y-142142856D02*
X44438152Y-141999999D01*
X44438152Y-141999999D02*
X44485771Y-141904761D01*
X44485771Y-141904761D02*
X44581009Y-141857142D01*
X44581009Y-141857142D02*
X45104819Y-141857142D01*
X44581009Y-141857142D02*
X44485771Y-141809523D01*
X44485771Y-141809523D02*
X44438152Y-141714285D01*
X44438152Y-141714285D02*
X44438152Y-141571428D01*
X44438152Y-141571428D02*
X44485771Y-141476189D01*
X44485771Y-141476189D02*
X44581009Y-141428570D01*
X44581009Y-141428570D02*
X45104819Y-141428570D01*
X55000000Y-183500000D02*
X45213580Y-183500000D01*
X55000000Y-108500000D02*
X45213580Y-108500000D01*
X45800000Y-183500000D02*
X45800000Y-108500000D01*
X45800000Y-183500000D02*
X45800000Y-108500000D01*
X45800000Y-183500000D02*
X45213579Y-182373496D01*
X45800000Y-183500000D02*
X46386421Y-182373496D01*
X45800000Y-108500000D02*
X46386421Y-109626504D01*
X45800000Y-108500000D02*
X45213579Y-109626504D01*
X45800000Y-183500000D02*
X45800000Y-108500000D01*
X45800000Y-183500000D02*
X45800000Y-108500000D01*
X45800000Y-183500000D02*
X45213579Y-182373496D01*
X45800000Y-183500000D02*
X46386421Y-182373496D01*
X45800000Y-108500000D02*
X46386421Y-109626504D01*
X45800000Y-108500000D02*
X45213579Y-109626504D01*
X89071429Y-9733390D02*
X88976191Y-9685771D01*
X88976191Y-9685771D02*
X88928572Y-9638152D01*
X88928572Y-9638152D02*
X88880953Y-9542914D01*
X88880953Y-9542914D02*
X88880953Y-9495295D01*
X88880953Y-9495295D02*
X88928572Y-9400057D01*
X88928572Y-9400057D02*
X88976191Y-9352438D01*
X88976191Y-9352438D02*
X89071429Y-9304819D01*
X89071429Y-9304819D02*
X89261905Y-9304819D01*
X89261905Y-9304819D02*
X89357143Y-9352438D01*
X89357143Y-9352438D02*
X89404762Y-9400057D01*
X89404762Y-9400057D02*
X89452381Y-9495295D01*
X89452381Y-9495295D02*
X89452381Y-9542914D01*
X89452381Y-9542914D02*
X89404762Y-9638152D01*
X89404762Y-9638152D02*
X89357143Y-9685771D01*
X89357143Y-9685771D02*
X89261905Y-9733390D01*
X89261905Y-9733390D02*
X89071429Y-9733390D01*
X89071429Y-9733390D02*
X88976191Y-9781009D01*
X88976191Y-9781009D02*
X88928572Y-9828628D01*
X88928572Y-9828628D02*
X88880953Y-9923866D01*
X88880953Y-9923866D02*
X88880953Y-10114342D01*
X88880953Y-10114342D02*
X88928572Y-10209580D01*
X88928572Y-10209580D02*
X88976191Y-10257200D01*
X88976191Y-10257200D02*
X89071429Y-10304819D01*
X89071429Y-10304819D02*
X89261905Y-10304819D01*
X89261905Y-10304819D02*
X89357143Y-10257200D01*
X89357143Y-10257200D02*
X89404762Y-10209580D01*
X89404762Y-10209580D02*
X89452381Y-10114342D01*
X89452381Y-10114342D02*
X89452381Y-9923866D01*
X89452381Y-9923866D02*
X89404762Y-9828628D01*
X89404762Y-9828628D02*
X89357143Y-9781009D01*
X89357143Y-9781009D02*
X89261905Y-9733390D01*
X90404762Y-10304819D02*
X89833334Y-10304819D01*
X90119048Y-10304819D02*
X90119048Y-9304819D01*
X90119048Y-9304819D02*
X90023810Y-9447676D01*
X90023810Y-9447676D02*
X89928572Y-9542914D01*
X89928572Y-9542914D02*
X89833334Y-9590533D01*
X90833334Y-10209580D02*
X90880953Y-10257200D01*
X90880953Y-10257200D02*
X90833334Y-10304819D01*
X90833334Y-10304819D02*
X90785715Y-10257200D01*
X90785715Y-10257200D02*
X90833334Y-10209580D01*
X90833334Y-10209580D02*
X90833334Y-10304819D01*
X91500000Y-9304819D02*
X91595238Y-9304819D01*
X91595238Y-9304819D02*
X91690476Y-9352438D01*
X91690476Y-9352438D02*
X91738095Y-9400057D01*
X91738095Y-9400057D02*
X91785714Y-9495295D01*
X91785714Y-9495295D02*
X91833333Y-9685771D01*
X91833333Y-9685771D02*
X91833333Y-9923866D01*
X91833333Y-9923866D02*
X91785714Y-10114342D01*
X91785714Y-10114342D02*
X91738095Y-10209580D01*
X91738095Y-10209580D02*
X91690476Y-10257200D01*
X91690476Y-10257200D02*
X91595238Y-10304819D01*
X91595238Y-10304819D02*
X91500000Y-10304819D01*
X91500000Y-10304819D02*
X91404762Y-10257200D01*
X91404762Y-10257200D02*
X91357143Y-10209580D01*
X91357143Y-10209580D02*
X91309524Y-10114342D01*
X91309524Y-10114342D02*
X91261905Y-9923866D01*
X91261905Y-9923866D02*
X91261905Y-9685771D01*
X91261905Y-9685771D02*
X91309524Y-9495295D01*
X91309524Y-9495295D02*
X91357143Y-9400057D01*
X91357143Y-9400057D02*
X91404762Y-9352438D01*
X91404762Y-9352438D02*
X91500000Y-9304819D01*
X92452381Y-9304819D02*
X92547619Y-9304819D01*
X92547619Y-9304819D02*
X92642857Y-9352438D01*
X92642857Y-9352438D02*
X92690476Y-9400057D01*
X92690476Y-9400057D02*
X92738095Y-9495295D01*
X92738095Y-9495295D02*
X92785714Y-9685771D01*
X92785714Y-9685771D02*
X92785714Y-9923866D01*
X92785714Y-9923866D02*
X92738095Y-10114342D01*
X92738095Y-10114342D02*
X92690476Y-10209580D01*
X92690476Y-10209580D02*
X92642857Y-10257200D01*
X92642857Y-10257200D02*
X92547619Y-10304819D01*
X92547619Y-10304819D02*
X92452381Y-10304819D01*
X92452381Y-10304819D02*
X92357143Y-10257200D01*
X92357143Y-10257200D02*
X92309524Y-10209580D01*
X92309524Y-10209580D02*
X92261905Y-10114342D01*
X92261905Y-10114342D02*
X92214286Y-9923866D01*
X92214286Y-9923866D02*
X92214286Y-9685771D01*
X92214286Y-9685771D02*
X92261905Y-9495295D01*
X92261905Y-9495295D02*
X92309524Y-9400057D01*
X92309524Y-9400057D02*
X92357143Y-9352438D01*
X92357143Y-9352438D02*
X92452381Y-9304819D01*
X93404762Y-9304819D02*
X93500000Y-9304819D01*
X93500000Y-9304819D02*
X93595238Y-9352438D01*
X93595238Y-9352438D02*
X93642857Y-9400057D01*
X93642857Y-9400057D02*
X93690476Y-9495295D01*
X93690476Y-9495295D02*
X93738095Y-9685771D01*
X93738095Y-9685771D02*
X93738095Y-9923866D01*
X93738095Y-9923866D02*
X93690476Y-10114342D01*
X93690476Y-10114342D02*
X93642857Y-10209580D01*
X93642857Y-10209580D02*
X93595238Y-10257200D01*
X93595238Y-10257200D02*
X93500000Y-10304819D01*
X93500000Y-10304819D02*
X93404762Y-10304819D01*
X93404762Y-10304819D02*
X93309524Y-10257200D01*
X93309524Y-10257200D02*
X93261905Y-10209580D01*
X93261905Y-10209580D02*
X93214286Y-10114342D01*
X93214286Y-10114342D02*
X93166667Y-9923866D01*
X93166667Y-9923866D02*
X93166667Y-9685771D01*
X93166667Y-9685771D02*
X93214286Y-9495295D01*
X93214286Y-9495295D02*
X93261905Y-9400057D01*
X93261905Y-9400057D02*
X93309524Y-9352438D01*
X93309524Y-9352438D02*
X93404762Y-9304819D01*
X94357143Y-9304819D02*
X94452381Y-9304819D01*
X94452381Y-9304819D02*
X94547619Y-9352438D01*
X94547619Y-9352438D02*
X94595238Y-9400057D01*
X94595238Y-9400057D02*
X94642857Y-9495295D01*
X94642857Y-9495295D02*
X94690476Y-9685771D01*
X94690476Y-9685771D02*
X94690476Y-9923866D01*
X94690476Y-9923866D02*
X94642857Y-10114342D01*
X94642857Y-10114342D02*
X94595238Y-10209580D01*
X94595238Y-10209580D02*
X94547619Y-10257200D01*
X94547619Y-10257200D02*
X94452381Y-10304819D01*
X94452381Y-10304819D02*
X94357143Y-10304819D01*
X94357143Y-10304819D02*
X94261905Y-10257200D01*
X94261905Y-10257200D02*
X94214286Y-10209580D01*
X94214286Y-10209580D02*
X94166667Y-10114342D01*
X94166667Y-10114342D02*
X94119048Y-9923866D01*
X94119048Y-9923866D02*
X94119048Y-9685771D01*
X94119048Y-9685771D02*
X94166667Y-9495295D01*
X94166667Y-9495295D02*
X94214286Y-9400057D01*
X94214286Y-9400057D02*
X94261905Y-9352438D01*
X94261905Y-9352438D02*
X94357143Y-9304819D01*
X95880953Y-10304819D02*
X95880953Y-9638152D01*
X95880953Y-9733390D02*
X95928572Y-9685771D01*
X95928572Y-9685771D02*
X96023810Y-9638152D01*
X96023810Y-9638152D02*
X96166667Y-9638152D01*
X96166667Y-9638152D02*
X96261905Y-9685771D01*
X96261905Y-9685771D02*
X96309524Y-9781009D01*
X96309524Y-9781009D02*
X96309524Y-10304819D01*
X96309524Y-9781009D02*
X96357143Y-9685771D01*
X96357143Y-9685771D02*
X96452381Y-9638152D01*
X96452381Y-9638152D02*
X96595238Y-9638152D01*
X96595238Y-9638152D02*
X96690477Y-9685771D01*
X96690477Y-9685771D02*
X96738096Y-9781009D01*
X96738096Y-9781009D02*
X96738096Y-10304819D01*
X97214286Y-10304819D02*
X97214286Y-9638152D01*
X97214286Y-9733390D02*
X97261905Y-9685771D01*
X97261905Y-9685771D02*
X97357143Y-9638152D01*
X97357143Y-9638152D02*
X97500000Y-9638152D01*
X97500000Y-9638152D02*
X97595238Y-9685771D01*
X97595238Y-9685771D02*
X97642857Y-9781009D01*
X97642857Y-9781009D02*
X97642857Y-10304819D01*
X97642857Y-9781009D02*
X97690476Y-9685771D01*
X97690476Y-9685771D02*
X97785714Y-9638152D01*
X97785714Y-9638152D02*
X97928571Y-9638152D01*
X97928571Y-9638152D02*
X98023810Y-9685771D01*
X98023810Y-9685771D02*
X98071429Y-9781009D01*
X98071429Y-9781009D02*
X98071429Y-10304819D01*
X53000000Y-17500000D02*
X53000000Y-10413580D01*
X134000000Y-17500000D02*
X134000000Y-10413580D01*
X53000000Y-11000000D02*
X134000000Y-11000000D01*
X53000000Y-11000000D02*
X134000000Y-11000000D01*
X53000000Y-11000000D02*
X54126504Y-10413579D01*
X53000000Y-11000000D02*
X54126504Y-11586421D01*
X134000000Y-11000000D02*
X132873496Y-11586421D01*
X134000000Y-11000000D02*
X132873496Y-10413579D01*
X53000000Y-11000000D02*
X134000000Y-11000000D01*
X53000000Y-11000000D02*
X134000000Y-11000000D01*
X53000000Y-11000000D02*
X54126504Y-10413579D01*
X53000000Y-11000000D02*
X54126504Y-11586421D01*
X134000000Y-11000000D02*
X132873496Y-11586421D01*
X134000000Y-11000000D02*
X132873496Y-10413579D01*
X53152381Y-204329819D02*
X52580953Y-204329819D01*
X52866667Y-204329819D02*
X52866667Y-203329819D01*
X52866667Y-203329819D02*
X52771429Y-203472676D01*
X52771429Y-203472676D02*
X52676191Y-203567914D01*
X52676191Y-203567914D02*
X52580953Y-203615533D01*
X54009524Y-203329819D02*
X53819048Y-203329819D01*
X53819048Y-203329819D02*
X53723810Y-203377438D01*
X53723810Y-203377438D02*
X53676191Y-203425057D01*
X53676191Y-203425057D02*
X53580953Y-203567914D01*
X53580953Y-203567914D02*
X53533334Y-203758390D01*
X53533334Y-203758390D02*
X53533334Y-204139342D01*
X53533334Y-204139342D02*
X53580953Y-204234580D01*
X53580953Y-204234580D02*
X53628572Y-204282200D01*
X53628572Y-204282200D02*
X53723810Y-204329819D01*
X53723810Y-204329819D02*
X53914286Y-204329819D01*
X53914286Y-204329819D02*
X54009524Y-204282200D01*
X54009524Y-204282200D02*
X54057143Y-204234580D01*
X54057143Y-204234580D02*
X54104762Y-204139342D01*
X54104762Y-204139342D02*
X54104762Y-203901247D01*
X54104762Y-203901247D02*
X54057143Y-203806009D01*
X54057143Y-203806009D02*
X54009524Y-203758390D01*
X54009524Y-203758390D02*
X53914286Y-203710771D01*
X53914286Y-203710771D02*
X53723810Y-203710771D01*
X53723810Y-203710771D02*
X53628572Y-203758390D01*
X53628572Y-203758390D02*
X53580953Y-203806009D01*
X53580953Y-203806009D02*
X53533334Y-203901247D01*
X54533334Y-204234580D02*
X54580953Y-204282200D01*
X54580953Y-204282200D02*
X54533334Y-204329819D01*
X54533334Y-204329819D02*
X54485715Y-204282200D01*
X54485715Y-204282200D02*
X54533334Y-204234580D01*
X54533334Y-204234580D02*
X54533334Y-204329819D01*
X55200000Y-203329819D02*
X55295238Y-203329819D01*
X55295238Y-203329819D02*
X55390476Y-203377438D01*
X55390476Y-203377438D02*
X55438095Y-203425057D01*
X55438095Y-203425057D02*
X55485714Y-203520295D01*
X55485714Y-203520295D02*
X55533333Y-203710771D01*
X55533333Y-203710771D02*
X55533333Y-203948866D01*
X55533333Y-203948866D02*
X55485714Y-204139342D01*
X55485714Y-204139342D02*
X55438095Y-204234580D01*
X55438095Y-204234580D02*
X55390476Y-204282200D01*
X55390476Y-204282200D02*
X55295238Y-204329819D01*
X55295238Y-204329819D02*
X55200000Y-204329819D01*
X55200000Y-204329819D02*
X55104762Y-204282200D01*
X55104762Y-204282200D02*
X55057143Y-204234580D01*
X55057143Y-204234580D02*
X55009524Y-204139342D01*
X55009524Y-204139342D02*
X54961905Y-203948866D01*
X54961905Y-203948866D02*
X54961905Y-203710771D01*
X54961905Y-203710771D02*
X55009524Y-203520295D01*
X55009524Y-203520295D02*
X55057143Y-203425057D01*
X55057143Y-203425057D02*
X55104762Y-203377438D01*
X55104762Y-203377438D02*
X55200000Y-203329819D01*
X56152381Y-203329819D02*
X56247619Y-203329819D01*
X56247619Y-203329819D02*
X56342857Y-203377438D01*
X56342857Y-203377438D02*
X56390476Y-203425057D01*
X56390476Y-203425057D02*
X56438095Y-203520295D01*
X56438095Y-203520295D02*
X56485714Y-203710771D01*
X56485714Y-203710771D02*
X56485714Y-203948866D01*
X56485714Y-203948866D02*
X56438095Y-204139342D01*
X56438095Y-204139342D02*
X56390476Y-204234580D01*
X56390476Y-204234580D02*
X56342857Y-204282200D01*
X56342857Y-204282200D02*
X56247619Y-204329819D01*
X56247619Y-204329819D02*
X56152381Y-204329819D01*
X56152381Y-204329819D02*
X56057143Y-204282200D01*
X56057143Y-204282200D02*
X56009524Y-204234580D01*
X56009524Y-204234580D02*
X55961905Y-204139342D01*
X55961905Y-204139342D02*
X55914286Y-203948866D01*
X55914286Y-203948866D02*
X55914286Y-203710771D01*
X55914286Y-203710771D02*
X55961905Y-203520295D01*
X55961905Y-203520295D02*
X56009524Y-203425057D01*
X56009524Y-203425057D02*
X56057143Y-203377438D01*
X56057143Y-203377438D02*
X56152381Y-203329819D01*
X57104762Y-203329819D02*
X57200000Y-203329819D01*
X57200000Y-203329819D02*
X57295238Y-203377438D01*
X57295238Y-203377438D02*
X57342857Y-203425057D01*
X57342857Y-203425057D02*
X57390476Y-203520295D01*
X57390476Y-203520295D02*
X57438095Y-203710771D01*
X57438095Y-203710771D02*
X57438095Y-203948866D01*
X57438095Y-203948866D02*
X57390476Y-204139342D01*
X57390476Y-204139342D02*
X57342857Y-204234580D01*
X57342857Y-204234580D02*
X57295238Y-204282200D01*
X57295238Y-204282200D02*
X57200000Y-204329819D01*
X57200000Y-204329819D02*
X57104762Y-204329819D01*
X57104762Y-204329819D02*
X57009524Y-204282200D01*
X57009524Y-204282200D02*
X56961905Y-204234580D01*
X56961905Y-204234580D02*
X56914286Y-204139342D01*
X56914286Y-204139342D02*
X56866667Y-203948866D01*
X56866667Y-203948866D02*
X56866667Y-203710771D01*
X56866667Y-203710771D02*
X56914286Y-203520295D01*
X56914286Y-203520295D02*
X56961905Y-203425057D01*
X56961905Y-203425057D02*
X57009524Y-203377438D01*
X57009524Y-203377438D02*
X57104762Y-203329819D01*
X58057143Y-203329819D02*
X58152381Y-203329819D01*
X58152381Y-203329819D02*
X58247619Y-203377438D01*
X58247619Y-203377438D02*
X58295238Y-203425057D01*
X58295238Y-203425057D02*
X58342857Y-203520295D01*
X58342857Y-203520295D02*
X58390476Y-203710771D01*
X58390476Y-203710771D02*
X58390476Y-203948866D01*
X58390476Y-203948866D02*
X58342857Y-204139342D01*
X58342857Y-204139342D02*
X58295238Y-204234580D01*
X58295238Y-204234580D02*
X58247619Y-204282200D01*
X58247619Y-204282200D02*
X58152381Y-204329819D01*
X58152381Y-204329819D02*
X58057143Y-204329819D01*
X58057143Y-204329819D02*
X57961905Y-204282200D01*
X57961905Y-204282200D02*
X57914286Y-204234580D01*
X57914286Y-204234580D02*
X57866667Y-204139342D01*
X57866667Y-204139342D02*
X57819048Y-203948866D01*
X57819048Y-203948866D02*
X57819048Y-203710771D01*
X57819048Y-203710771D02*
X57866667Y-203520295D01*
X57866667Y-203520295D02*
X57914286Y-203425057D01*
X57914286Y-203425057D02*
X57961905Y-203377438D01*
X57961905Y-203377438D02*
X58057143Y-203329819D01*
X59580953Y-204329819D02*
X59580953Y-203663152D01*
X59580953Y-203758390D02*
X59628572Y-203710771D01*
X59628572Y-203710771D02*
X59723810Y-203663152D01*
X59723810Y-203663152D02*
X59866667Y-203663152D01*
X59866667Y-203663152D02*
X59961905Y-203710771D01*
X59961905Y-203710771D02*
X60009524Y-203806009D01*
X60009524Y-203806009D02*
X60009524Y-204329819D01*
X60009524Y-203806009D02*
X60057143Y-203710771D01*
X60057143Y-203710771D02*
X60152381Y-203663152D01*
X60152381Y-203663152D02*
X60295238Y-203663152D01*
X60295238Y-203663152D02*
X60390477Y-203710771D01*
X60390477Y-203710771D02*
X60438096Y-203806009D01*
X60438096Y-203806009D02*
X60438096Y-204329819D01*
X60914286Y-204329819D02*
X60914286Y-203663152D01*
X60914286Y-203758390D02*
X60961905Y-203710771D01*
X60961905Y-203710771D02*
X61057143Y-203663152D01*
X61057143Y-203663152D02*
X61200000Y-203663152D01*
X61200000Y-203663152D02*
X61295238Y-203710771D01*
X61295238Y-203710771D02*
X61342857Y-203806009D01*
X61342857Y-203806009D02*
X61342857Y-204329819D01*
X61342857Y-203806009D02*
X61390476Y-203710771D01*
X61390476Y-203710771D02*
X61485714Y-203663152D01*
X61485714Y-203663152D02*
X61628571Y-203663152D01*
X61628571Y-203663152D02*
X61723810Y-203710771D01*
X61723810Y-203710771D02*
X61771429Y-203806009D01*
X61771429Y-203806009D02*
X61771429Y-204329819D01*
X65000000Y-193500000D02*
X65000000Y-203586420D01*
X49000000Y-193500000D02*
X49000000Y-203586420D01*
X65000000Y-203000000D02*
X49000000Y-203000000D01*
X65000000Y-203000000D02*
X49000000Y-203000000D01*
X65000000Y-203000000D02*
X63873496Y-203586421D01*
X65000000Y-203000000D02*
X63873496Y-202413579D01*
X49000000Y-203000000D02*
X50126504Y-202413579D01*
X49000000Y-203000000D02*
X50126504Y-203586421D01*
X65000000Y-203000000D02*
X49000000Y-203000000D01*
X65000000Y-203000000D02*
X49000000Y-203000000D01*
X65000000Y-203000000D02*
X63873496Y-203586421D01*
X65000000Y-203000000D02*
X63873496Y-202413579D01*
X49000000Y-203000000D02*
X50126504Y-202413579D01*
X49000000Y-203000000D02*
X50126504Y-203586421D01*
X89071429Y-6733390D02*
X88976191Y-6685771D01*
X88976191Y-6685771D02*
X88928572Y-6638152D01*
X88928572Y-6638152D02*
X88880953Y-6542914D01*
X88880953Y-6542914D02*
X88880953Y-6495295D01*
X88880953Y-6495295D02*
X88928572Y-6400057D01*
X88928572Y-6400057D02*
X88976191Y-6352438D01*
X88976191Y-6352438D02*
X89071429Y-6304819D01*
X89071429Y-6304819D02*
X89261905Y-6304819D01*
X89261905Y-6304819D02*
X89357143Y-6352438D01*
X89357143Y-6352438D02*
X89404762Y-6400057D01*
X89404762Y-6400057D02*
X89452381Y-6495295D01*
X89452381Y-6495295D02*
X89452381Y-6542914D01*
X89452381Y-6542914D02*
X89404762Y-6638152D01*
X89404762Y-6638152D02*
X89357143Y-6685771D01*
X89357143Y-6685771D02*
X89261905Y-6733390D01*
X89261905Y-6733390D02*
X89071429Y-6733390D01*
X89071429Y-6733390D02*
X88976191Y-6781009D01*
X88976191Y-6781009D02*
X88928572Y-6828628D01*
X88928572Y-6828628D02*
X88880953Y-6923866D01*
X88880953Y-6923866D02*
X88880953Y-7114342D01*
X88880953Y-7114342D02*
X88928572Y-7209580D01*
X88928572Y-7209580D02*
X88976191Y-7257200D01*
X88976191Y-7257200D02*
X89071429Y-7304819D01*
X89071429Y-7304819D02*
X89261905Y-7304819D01*
X89261905Y-7304819D02*
X89357143Y-7257200D01*
X89357143Y-7257200D02*
X89404762Y-7209580D01*
X89404762Y-7209580D02*
X89452381Y-7114342D01*
X89452381Y-7114342D02*
X89452381Y-6923866D01*
X89452381Y-6923866D02*
X89404762Y-6828628D01*
X89404762Y-6828628D02*
X89357143Y-6781009D01*
X89357143Y-6781009D02*
X89261905Y-6733390D01*
X89928572Y-7304819D02*
X90119048Y-7304819D01*
X90119048Y-7304819D02*
X90214286Y-7257200D01*
X90214286Y-7257200D02*
X90261905Y-7209580D01*
X90261905Y-7209580D02*
X90357143Y-7066723D01*
X90357143Y-7066723D02*
X90404762Y-6876247D01*
X90404762Y-6876247D02*
X90404762Y-6495295D01*
X90404762Y-6495295D02*
X90357143Y-6400057D01*
X90357143Y-6400057D02*
X90309524Y-6352438D01*
X90309524Y-6352438D02*
X90214286Y-6304819D01*
X90214286Y-6304819D02*
X90023810Y-6304819D01*
X90023810Y-6304819D02*
X89928572Y-6352438D01*
X89928572Y-6352438D02*
X89880953Y-6400057D01*
X89880953Y-6400057D02*
X89833334Y-6495295D01*
X89833334Y-6495295D02*
X89833334Y-6733390D01*
X89833334Y-6733390D02*
X89880953Y-6828628D01*
X89880953Y-6828628D02*
X89928572Y-6876247D01*
X89928572Y-6876247D02*
X90023810Y-6923866D01*
X90023810Y-6923866D02*
X90214286Y-6923866D01*
X90214286Y-6923866D02*
X90309524Y-6876247D01*
X90309524Y-6876247D02*
X90357143Y-6828628D01*
X90357143Y-6828628D02*
X90404762Y-6733390D01*
X90833334Y-7209580D02*
X90880953Y-7257200D01*
X90880953Y-7257200D02*
X90833334Y-7304819D01*
X90833334Y-7304819D02*
X90785715Y-7257200D01*
X90785715Y-7257200D02*
X90833334Y-7209580D01*
X90833334Y-7209580D02*
X90833334Y-7304819D01*
X91500000Y-6304819D02*
X91595238Y-6304819D01*
X91595238Y-6304819D02*
X91690476Y-6352438D01*
X91690476Y-6352438D02*
X91738095Y-6400057D01*
X91738095Y-6400057D02*
X91785714Y-6495295D01*
X91785714Y-6495295D02*
X91833333Y-6685771D01*
X91833333Y-6685771D02*
X91833333Y-6923866D01*
X91833333Y-6923866D02*
X91785714Y-7114342D01*
X91785714Y-7114342D02*
X91738095Y-7209580D01*
X91738095Y-7209580D02*
X91690476Y-7257200D01*
X91690476Y-7257200D02*
X91595238Y-7304819D01*
X91595238Y-7304819D02*
X91500000Y-7304819D01*
X91500000Y-7304819D02*
X91404762Y-7257200D01*
X91404762Y-7257200D02*
X91357143Y-7209580D01*
X91357143Y-7209580D02*
X91309524Y-7114342D01*
X91309524Y-7114342D02*
X91261905Y-6923866D01*
X91261905Y-6923866D02*
X91261905Y-6685771D01*
X91261905Y-6685771D02*
X91309524Y-6495295D01*
X91309524Y-6495295D02*
X91357143Y-6400057D01*
X91357143Y-6400057D02*
X91404762Y-6352438D01*
X91404762Y-6352438D02*
X91500000Y-6304819D01*
X92452381Y-6304819D02*
X92547619Y-6304819D01*
X92547619Y-6304819D02*
X92642857Y-6352438D01*
X92642857Y-6352438D02*
X92690476Y-6400057D01*
X92690476Y-6400057D02*
X92738095Y-6495295D01*
X92738095Y-6495295D02*
X92785714Y-6685771D01*
X92785714Y-6685771D02*
X92785714Y-6923866D01*
X92785714Y-6923866D02*
X92738095Y-7114342D01*
X92738095Y-7114342D02*
X92690476Y-7209580D01*
X92690476Y-7209580D02*
X92642857Y-7257200D01*
X92642857Y-7257200D02*
X92547619Y-7304819D01*
X92547619Y-7304819D02*
X92452381Y-7304819D01*
X92452381Y-7304819D02*
X92357143Y-7257200D01*
X92357143Y-7257200D02*
X92309524Y-7209580D01*
X92309524Y-7209580D02*
X92261905Y-7114342D01*
X92261905Y-7114342D02*
X92214286Y-6923866D01*
X92214286Y-6923866D02*
X92214286Y-6685771D01*
X92214286Y-6685771D02*
X92261905Y-6495295D01*
X92261905Y-6495295D02*
X92309524Y-6400057D01*
X92309524Y-6400057D02*
X92357143Y-6352438D01*
X92357143Y-6352438D02*
X92452381Y-6304819D01*
X93404762Y-6304819D02*
X93500000Y-6304819D01*
X93500000Y-6304819D02*
X93595238Y-6352438D01*
X93595238Y-6352438D02*
X93642857Y-6400057D01*
X93642857Y-6400057D02*
X93690476Y-6495295D01*
X93690476Y-6495295D02*
X93738095Y-6685771D01*
X93738095Y-6685771D02*
X93738095Y-6923866D01*
X93738095Y-6923866D02*
X93690476Y-7114342D01*
X93690476Y-7114342D02*
X93642857Y-7209580D01*
X93642857Y-7209580D02*
X93595238Y-7257200D01*
X93595238Y-7257200D02*
X93500000Y-7304819D01*
X93500000Y-7304819D02*
X93404762Y-7304819D01*
X93404762Y-7304819D02*
X93309524Y-7257200D01*
X93309524Y-7257200D02*
X93261905Y-7209580D01*
X93261905Y-7209580D02*
X93214286Y-7114342D01*
X93214286Y-7114342D02*
X93166667Y-6923866D01*
X93166667Y-6923866D02*
X93166667Y-6685771D01*
X93166667Y-6685771D02*
X93214286Y-6495295D01*
X93214286Y-6495295D02*
X93261905Y-6400057D01*
X93261905Y-6400057D02*
X93309524Y-6352438D01*
X93309524Y-6352438D02*
X93404762Y-6304819D01*
X94357143Y-6304819D02*
X94452381Y-6304819D01*
X94452381Y-6304819D02*
X94547619Y-6352438D01*
X94547619Y-6352438D02*
X94595238Y-6400057D01*
X94595238Y-6400057D02*
X94642857Y-6495295D01*
X94642857Y-6495295D02*
X94690476Y-6685771D01*
X94690476Y-6685771D02*
X94690476Y-6923866D01*
X94690476Y-6923866D02*
X94642857Y-7114342D01*
X94642857Y-7114342D02*
X94595238Y-7209580D01*
X94595238Y-7209580D02*
X94547619Y-7257200D01*
X94547619Y-7257200D02*
X94452381Y-7304819D01*
X94452381Y-7304819D02*
X94357143Y-7304819D01*
X94357143Y-7304819D02*
X94261905Y-7257200D01*
X94261905Y-7257200D02*
X94214286Y-7209580D01*
X94214286Y-7209580D02*
X94166667Y-7114342D01*
X94166667Y-7114342D02*
X94119048Y-6923866D01*
X94119048Y-6923866D02*
X94119048Y-6685771D01*
X94119048Y-6685771D02*
X94166667Y-6495295D01*
X94166667Y-6495295D02*
X94214286Y-6400057D01*
X94214286Y-6400057D02*
X94261905Y-6352438D01*
X94261905Y-6352438D02*
X94357143Y-6304819D01*
X95880953Y-7304819D02*
X95880953Y-6638152D01*
X95880953Y-6733390D02*
X95928572Y-6685771D01*
X95928572Y-6685771D02*
X96023810Y-6638152D01*
X96023810Y-6638152D02*
X96166667Y-6638152D01*
X96166667Y-6638152D02*
X96261905Y-6685771D01*
X96261905Y-6685771D02*
X96309524Y-6781009D01*
X96309524Y-6781009D02*
X96309524Y-7304819D01*
X96309524Y-6781009D02*
X96357143Y-6685771D01*
X96357143Y-6685771D02*
X96452381Y-6638152D01*
X96452381Y-6638152D02*
X96595238Y-6638152D01*
X96595238Y-6638152D02*
X96690477Y-6685771D01*
X96690477Y-6685771D02*
X96738096Y-6781009D01*
X96738096Y-6781009D02*
X96738096Y-7304819D01*
X97214286Y-7304819D02*
X97214286Y-6638152D01*
X97214286Y-6733390D02*
X97261905Y-6685771D01*
X97261905Y-6685771D02*
X97357143Y-6638152D01*
X97357143Y-6638152D02*
X97500000Y-6638152D01*
X97500000Y-6638152D02*
X97595238Y-6685771D01*
X97595238Y-6685771D02*
X97642857Y-6781009D01*
X97642857Y-6781009D02*
X97642857Y-7304819D01*
X97642857Y-6781009D02*
X97690476Y-6685771D01*
X97690476Y-6685771D02*
X97785714Y-6638152D01*
X97785714Y-6638152D02*
X97928571Y-6638152D01*
X97928571Y-6638152D02*
X98023810Y-6685771D01*
X98023810Y-6685771D02*
X98071429Y-6781009D01*
X98071429Y-6781009D02*
X98071429Y-7304819D01*
X49000000Y-31500000D02*
X49000000Y-7413580D01*
X138000000Y-31500000D02*
X138000000Y-7413580D01*
X49000000Y-8000000D02*
X138000000Y-8000000D01*
X49000000Y-8000000D02*
X138000000Y-8000000D01*
X49000000Y-8000000D02*
X50126504Y-7413579D01*
X49000000Y-8000000D02*
X50126504Y-8586421D01*
X138000000Y-8000000D02*
X136873496Y-8586421D01*
X138000000Y-8000000D02*
X136873496Y-7413579D01*
X49000000Y-8000000D02*
X138000000Y-8000000D01*
X49000000Y-8000000D02*
X138000000Y-8000000D01*
X49000000Y-8000000D02*
X50126504Y-7413579D01*
X49000000Y-8000000D02*
X50126504Y-8586421D01*
X138000000Y-8000000D02*
X136873496Y-8586421D01*
X138000000Y-8000000D02*
X136873496Y-7413579D01*
X88333334Y-102204819D02*
X89000000Y-102204819D01*
X89000000Y-102204819D02*
X88571429Y-103204819D01*
X89857143Y-102204819D02*
X89380953Y-102204819D01*
X89380953Y-102204819D02*
X89333334Y-102681009D01*
X89333334Y-102681009D02*
X89380953Y-102633390D01*
X89380953Y-102633390D02*
X89476191Y-102585771D01*
X89476191Y-102585771D02*
X89714286Y-102585771D01*
X89714286Y-102585771D02*
X89809524Y-102633390D01*
X89809524Y-102633390D02*
X89857143Y-102681009D01*
X89857143Y-102681009D02*
X89904762Y-102776247D01*
X89904762Y-102776247D02*
X89904762Y-103014342D01*
X89904762Y-103014342D02*
X89857143Y-103109580D01*
X89857143Y-103109580D02*
X89809524Y-103157200D01*
X89809524Y-103157200D02*
X89714286Y-103204819D01*
X89714286Y-103204819D02*
X89476191Y-103204819D01*
X89476191Y-103204819D02*
X89380953Y-103157200D01*
X89380953Y-103157200D02*
X89333334Y-103109580D01*
X90333334Y-103109580D02*
X90380953Y-103157200D01*
X90380953Y-103157200D02*
X90333334Y-103204819D01*
X90333334Y-103204819D02*
X90285715Y-103157200D01*
X90285715Y-103157200D02*
X90333334Y-103109580D01*
X90333334Y-103109580D02*
X90333334Y-103204819D01*
X91000000Y-102204819D02*
X91095238Y-102204819D01*
X91095238Y-102204819D02*
X91190476Y-102252438D01*
X91190476Y-102252438D02*
X91238095Y-102300057D01*
X91238095Y-102300057D02*
X91285714Y-102395295D01*
X91285714Y-102395295D02*
X91333333Y-102585771D01*
X91333333Y-102585771D02*
X91333333Y-102823866D01*
X91333333Y-102823866D02*
X91285714Y-103014342D01*
X91285714Y-103014342D02*
X91238095Y-103109580D01*
X91238095Y-103109580D02*
X91190476Y-103157200D01*
X91190476Y-103157200D02*
X91095238Y-103204819D01*
X91095238Y-103204819D02*
X91000000Y-103204819D01*
X91000000Y-103204819D02*
X90904762Y-103157200D01*
X90904762Y-103157200D02*
X90857143Y-103109580D01*
X90857143Y-103109580D02*
X90809524Y-103014342D01*
X90809524Y-103014342D02*
X90761905Y-102823866D01*
X90761905Y-102823866D02*
X90761905Y-102585771D01*
X90761905Y-102585771D02*
X90809524Y-102395295D01*
X90809524Y-102395295D02*
X90857143Y-102300057D01*
X90857143Y-102300057D02*
X90904762Y-102252438D01*
X90904762Y-102252438D02*
X91000000Y-102204819D01*
X91952381Y-102204819D02*
X92047619Y-102204819D01*
X92047619Y-102204819D02*
X92142857Y-102252438D01*
X92142857Y-102252438D02*
X92190476Y-102300057D01*
X92190476Y-102300057D02*
X92238095Y-102395295D01*
X92238095Y-102395295D02*
X92285714Y-102585771D01*
X92285714Y-102585771D02*
X92285714Y-102823866D01*
X92285714Y-102823866D02*
X92238095Y-103014342D01*
X92238095Y-103014342D02*
X92190476Y-103109580D01*
X92190476Y-103109580D02*
X92142857Y-103157200D01*
X92142857Y-103157200D02*
X92047619Y-103204819D01*
X92047619Y-103204819D02*
X91952381Y-103204819D01*
X91952381Y-103204819D02*
X91857143Y-103157200D01*
X91857143Y-103157200D02*
X91809524Y-103109580D01*
X91809524Y-103109580D02*
X91761905Y-103014342D01*
X91761905Y-103014342D02*
X91714286Y-102823866D01*
X91714286Y-102823866D02*
X91714286Y-102585771D01*
X91714286Y-102585771D02*
X91761905Y-102395295D01*
X91761905Y-102395295D02*
X91809524Y-102300057D01*
X91809524Y-102300057D02*
X91857143Y-102252438D01*
X91857143Y-102252438D02*
X91952381Y-102204819D01*
X92904762Y-102204819D02*
X93000000Y-102204819D01*
X93000000Y-102204819D02*
X93095238Y-102252438D01*
X93095238Y-102252438D02*
X93142857Y-102300057D01*
X93142857Y-102300057D02*
X93190476Y-102395295D01*
X93190476Y-102395295D02*
X93238095Y-102585771D01*
X93238095Y-102585771D02*
X93238095Y-102823866D01*
X93238095Y-102823866D02*
X93190476Y-103014342D01*
X93190476Y-103014342D02*
X93142857Y-103109580D01*
X93142857Y-103109580D02*
X93095238Y-103157200D01*
X93095238Y-103157200D02*
X93000000Y-103204819D01*
X93000000Y-103204819D02*
X92904762Y-103204819D01*
X92904762Y-103204819D02*
X92809524Y-103157200D01*
X92809524Y-103157200D02*
X92761905Y-103109580D01*
X92761905Y-103109580D02*
X92714286Y-103014342D01*
X92714286Y-103014342D02*
X92666667Y-102823866D01*
X92666667Y-102823866D02*
X92666667Y-102585771D01*
X92666667Y-102585771D02*
X92714286Y-102395295D01*
X92714286Y-102395295D02*
X92761905Y-102300057D01*
X92761905Y-102300057D02*
X92809524Y-102252438D01*
X92809524Y-102252438D02*
X92904762Y-102204819D01*
X93857143Y-102204819D02*
X93952381Y-102204819D01*
X93952381Y-102204819D02*
X94047619Y-102252438D01*
X94047619Y-102252438D02*
X94095238Y-102300057D01*
X94095238Y-102300057D02*
X94142857Y-102395295D01*
X94142857Y-102395295D02*
X94190476Y-102585771D01*
X94190476Y-102585771D02*
X94190476Y-102823866D01*
X94190476Y-102823866D02*
X94142857Y-103014342D01*
X94142857Y-103014342D02*
X94095238Y-103109580D01*
X94095238Y-103109580D02*
X94047619Y-103157200D01*
X94047619Y-103157200D02*
X93952381Y-103204819D01*
X93952381Y-103204819D02*
X93857143Y-103204819D01*
X93857143Y-103204819D02*
X93761905Y-103157200D01*
X93761905Y-103157200D02*
X93714286Y-103109580D01*
X93714286Y-103109580D02*
X93666667Y-103014342D01*
X93666667Y-103014342D02*
X93619048Y-102823866D01*
X93619048Y-102823866D02*
X93619048Y-102585771D01*
X93619048Y-102585771D02*
X93666667Y-102395295D01*
X93666667Y-102395295D02*
X93714286Y-102300057D01*
X93714286Y-102300057D02*
X93761905Y-102252438D01*
X93761905Y-102252438D02*
X93857143Y-102204819D01*
X95380953Y-103204819D02*
X95380953Y-102538152D01*
X95380953Y-102633390D02*
X95428572Y-102585771D01*
X95428572Y-102585771D02*
X95523810Y-102538152D01*
X95523810Y-102538152D02*
X95666667Y-102538152D01*
X95666667Y-102538152D02*
X95761905Y-102585771D01*
X95761905Y-102585771D02*
X95809524Y-102681009D01*
X95809524Y-102681009D02*
X95809524Y-103204819D01*
X95809524Y-102681009D02*
X95857143Y-102585771D01*
X95857143Y-102585771D02*
X95952381Y-102538152D01*
X95952381Y-102538152D02*
X96095238Y-102538152D01*
X96095238Y-102538152D02*
X96190477Y-102585771D01*
X96190477Y-102585771D02*
X96238096Y-102681009D01*
X96238096Y-102681009D02*
X96238096Y-103204819D01*
X96714286Y-103204819D02*
X96714286Y-102538152D01*
X96714286Y-102633390D02*
X96761905Y-102585771D01*
X96761905Y-102585771D02*
X96857143Y-102538152D01*
X96857143Y-102538152D02*
X97000000Y-102538152D01*
X97000000Y-102538152D02*
X97095238Y-102585771D01*
X97095238Y-102585771D02*
X97142857Y-102681009D01*
X97142857Y-102681009D02*
X97142857Y-103204819D01*
X97142857Y-102681009D02*
X97190476Y-102585771D01*
X97190476Y-102585771D02*
X97285714Y-102538152D01*
X97285714Y-102538152D02*
X97428571Y-102538152D01*
X97428571Y-102538152D02*
X97523810Y-102585771D01*
X97523810Y-102585771D02*
X97571429Y-102681009D01*
X97571429Y-102681009D02*
X97571429Y-103204819D01*
X55500000Y-108000000D02*
X55500000Y-103313580D01*
X130500000Y-108000000D02*
X130500000Y-103313580D01*
X55500000Y-103900000D02*
X130500000Y-103900000D01*
X55500000Y-103900000D02*
X130500000Y-103900000D01*
X55500000Y-103900000D02*
X56626504Y-103313579D01*
X55500000Y-103900000D02*
X56626504Y-104486421D01*
X130500000Y-103900000D02*
X129373496Y-104486421D01*
X130500000Y-103900000D02*
X129373496Y-103313579D01*
X55500000Y-103900000D02*
X130500000Y-103900000D01*
X55500000Y-103900000D02*
X130500000Y-103900000D01*
X55500000Y-103900000D02*
X56626504Y-103313579D01*
X55500000Y-103900000D02*
X56626504Y-104486421D01*
X130500000Y-103900000D02*
X129373496Y-104486421D01*
X130500000Y-103900000D02*
X129373496Y-103313579D01*
X45304819Y-194297618D02*
X45304819Y-194869046D01*
X45304819Y-194583332D02*
X44304819Y-194583332D01*
X44304819Y-194583332D02*
X44447676Y-194678570D01*
X44447676Y-194678570D02*
X44542914Y-194773808D01*
X44542914Y-194773808D02*
X44590533Y-194869046D01*
X44304819Y-193964284D02*
X44304819Y-193345237D01*
X44304819Y-193345237D02*
X44685771Y-193678570D01*
X44685771Y-193678570D02*
X44685771Y-193535713D01*
X44685771Y-193535713D02*
X44733390Y-193440475D01*
X44733390Y-193440475D02*
X44781009Y-193392856D01*
X44781009Y-193392856D02*
X44876247Y-193345237D01*
X44876247Y-193345237D02*
X45114342Y-193345237D01*
X45114342Y-193345237D02*
X45209580Y-193392856D01*
X45209580Y-193392856D02*
X45257200Y-193440475D01*
X45257200Y-193440475D02*
X45304819Y-193535713D01*
X45304819Y-193535713D02*
X45304819Y-193821427D01*
X45304819Y-193821427D02*
X45257200Y-193916665D01*
X45257200Y-193916665D02*
X45209580Y-193964284D01*
X45209580Y-192916665D02*
X45257200Y-192869046D01*
X45257200Y-192869046D02*
X45304819Y-192916665D01*
X45304819Y-192916665D02*
X45257200Y-192964284D01*
X45257200Y-192964284D02*
X45209580Y-192916665D01*
X45209580Y-192916665D02*
X45304819Y-192916665D01*
X44304819Y-191964285D02*
X44304819Y-192440475D01*
X44304819Y-192440475D02*
X44781009Y-192488094D01*
X44781009Y-192488094D02*
X44733390Y-192440475D01*
X44733390Y-192440475D02*
X44685771Y-192345237D01*
X44685771Y-192345237D02*
X44685771Y-192107142D01*
X44685771Y-192107142D02*
X44733390Y-192011904D01*
X44733390Y-192011904D02*
X44781009Y-191964285D01*
X44781009Y-191964285D02*
X44876247Y-191916666D01*
X44876247Y-191916666D02*
X45114342Y-191916666D01*
X45114342Y-191916666D02*
X45209580Y-191964285D01*
X45209580Y-191964285D02*
X45257200Y-192011904D01*
X45257200Y-192011904D02*
X45304819Y-192107142D01*
X45304819Y-192107142D02*
X45304819Y-192345237D01*
X45304819Y-192345237D02*
X45257200Y-192440475D01*
X45257200Y-192440475D02*
X45209580Y-192488094D01*
X44304819Y-191297618D02*
X44304819Y-191202380D01*
X44304819Y-191202380D02*
X44352438Y-191107142D01*
X44352438Y-191107142D02*
X44400057Y-191059523D01*
X44400057Y-191059523D02*
X44495295Y-191011904D01*
X44495295Y-191011904D02*
X44685771Y-190964285D01*
X44685771Y-190964285D02*
X44923866Y-190964285D01*
X44923866Y-190964285D02*
X45114342Y-191011904D01*
X45114342Y-191011904D02*
X45209580Y-191059523D01*
X45209580Y-191059523D02*
X45257200Y-191107142D01*
X45257200Y-191107142D02*
X45304819Y-191202380D01*
X45304819Y-191202380D02*
X45304819Y-191297618D01*
X45304819Y-191297618D02*
X45257200Y-191392856D01*
X45257200Y-191392856D02*
X45209580Y-191440475D01*
X45209580Y-191440475D02*
X45114342Y-191488094D01*
X45114342Y-191488094D02*
X44923866Y-191535713D01*
X44923866Y-191535713D02*
X44685771Y-191535713D01*
X44685771Y-191535713D02*
X44495295Y-191488094D01*
X44495295Y-191488094D02*
X44400057Y-191440475D01*
X44400057Y-191440475D02*
X44352438Y-191392856D01*
X44352438Y-191392856D02*
X44304819Y-191297618D01*
X44304819Y-190345237D02*
X44304819Y-190249999D01*
X44304819Y-190249999D02*
X44352438Y-190154761D01*
X44352438Y-190154761D02*
X44400057Y-190107142D01*
X44400057Y-190107142D02*
X44495295Y-190059523D01*
X44495295Y-190059523D02*
X44685771Y-190011904D01*
X44685771Y-190011904D02*
X44923866Y-190011904D01*
X44923866Y-190011904D02*
X45114342Y-190059523D01*
X45114342Y-190059523D02*
X45209580Y-190107142D01*
X45209580Y-190107142D02*
X45257200Y-190154761D01*
X45257200Y-190154761D02*
X45304819Y-190249999D01*
X45304819Y-190249999D02*
X45304819Y-190345237D01*
X45304819Y-190345237D02*
X45257200Y-190440475D01*
X45257200Y-190440475D02*
X45209580Y-190488094D01*
X45209580Y-190488094D02*
X45114342Y-190535713D01*
X45114342Y-190535713D02*
X44923866Y-190583332D01*
X44923866Y-190583332D02*
X44685771Y-190583332D01*
X44685771Y-190583332D02*
X44495295Y-190535713D01*
X44495295Y-190535713D02*
X44400057Y-190488094D01*
X44400057Y-190488094D02*
X44352438Y-190440475D01*
X44352438Y-190440475D02*
X44304819Y-190345237D01*
X44304819Y-189392856D02*
X44304819Y-189297618D01*
X44304819Y-189297618D02*
X44352438Y-189202380D01*
X44352438Y-189202380D02*
X44400057Y-189154761D01*
X44400057Y-189154761D02*
X44495295Y-189107142D01*
X44495295Y-189107142D02*
X44685771Y-189059523D01*
X44685771Y-189059523D02*
X44923866Y-189059523D01*
X44923866Y-189059523D02*
X45114342Y-189107142D01*
X45114342Y-189107142D02*
X45209580Y-189154761D01*
X45209580Y-189154761D02*
X45257200Y-189202380D01*
X45257200Y-189202380D02*
X45304819Y-189297618D01*
X45304819Y-189297618D02*
X45304819Y-189392856D01*
X45304819Y-189392856D02*
X45257200Y-189488094D01*
X45257200Y-189488094D02*
X45209580Y-189535713D01*
X45209580Y-189535713D02*
X45114342Y-189583332D01*
X45114342Y-189583332D02*
X44923866Y-189630951D01*
X44923866Y-189630951D02*
X44685771Y-189630951D01*
X44685771Y-189630951D02*
X44495295Y-189583332D01*
X44495295Y-189583332D02*
X44400057Y-189535713D01*
X44400057Y-189535713D02*
X44352438Y-189488094D01*
X44352438Y-189488094D02*
X44304819Y-189392856D01*
X45304819Y-187869046D02*
X44638152Y-187869046D01*
X44733390Y-187869046D02*
X44685771Y-187821427D01*
X44685771Y-187821427D02*
X44638152Y-187726189D01*
X44638152Y-187726189D02*
X44638152Y-187583332D01*
X44638152Y-187583332D02*
X44685771Y-187488094D01*
X44685771Y-187488094D02*
X44781009Y-187440475D01*
X44781009Y-187440475D02*
X45304819Y-187440475D01*
X44781009Y-187440475D02*
X44685771Y-187392856D01*
X44685771Y-187392856D02*
X44638152Y-187297618D01*
X44638152Y-187297618D02*
X44638152Y-187154761D01*
X44638152Y-187154761D02*
X44685771Y-187059522D01*
X44685771Y-187059522D02*
X44781009Y-187011903D01*
X44781009Y-187011903D02*
X45304819Y-187011903D01*
X45304819Y-186535713D02*
X44638152Y-186535713D01*
X44733390Y-186535713D02*
X44685771Y-186488094D01*
X44685771Y-186488094D02*
X44638152Y-186392856D01*
X44638152Y-186392856D02*
X44638152Y-186249999D01*
X44638152Y-186249999D02*
X44685771Y-186154761D01*
X44685771Y-186154761D02*
X44781009Y-186107142D01*
X44781009Y-186107142D02*
X45304819Y-186107142D01*
X44781009Y-186107142D02*
X44685771Y-186059523D01*
X44685771Y-186059523D02*
X44638152Y-185964285D01*
X44638152Y-185964285D02*
X44638152Y-185821428D01*
X44638152Y-185821428D02*
X44685771Y-185726189D01*
X44685771Y-185726189D02*
X44781009Y-185678570D01*
X44781009Y-185678570D02*
X45304819Y-185678570D01*
X55000000Y-183500000D02*
X45413580Y-183500000D01*
X55000000Y-197000000D02*
X45413580Y-197000000D01*
X46000000Y-183500000D02*
X46000000Y-197000000D01*
X46000000Y-183500000D02*
X46000000Y-197000000D01*
X46000000Y-183500000D02*
X46586421Y-184626504D01*
X46000000Y-183500000D02*
X45413579Y-184626504D01*
X46000000Y-197000000D02*
X45413579Y-195873496D01*
X46000000Y-197000000D02*
X46586421Y-195873496D01*
X46000000Y-183500000D02*
X46000000Y-197000000D01*
X46000000Y-183500000D02*
X46000000Y-197000000D01*
X46000000Y-183500000D02*
X46586421Y-184626504D01*
X46000000Y-183500000D02*
X45413579Y-184626504D01*
X46000000Y-197000000D02*
X45413579Y-195873496D01*
X46000000Y-197000000D02*
X46586421Y-195873496D01*
X50008333Y-179279819D02*
X49817857Y-179279819D01*
X49817857Y-179279819D02*
X49722619Y-179327438D01*
X49722619Y-179327438D02*
X49675000Y-179375057D01*
X49675000Y-179375057D02*
X49579762Y-179517914D01*
X49579762Y-179517914D02*
X49532143Y-179708390D01*
X49532143Y-179708390D02*
X49532143Y-180089342D01*
X49532143Y-180089342D02*
X49579762Y-180184580D01*
X49579762Y-180184580D02*
X49627381Y-180232200D01*
X49627381Y-180232200D02*
X49722619Y-180279819D01*
X49722619Y-180279819D02*
X49913095Y-180279819D01*
X49913095Y-180279819D02*
X50008333Y-180232200D01*
X50008333Y-180232200D02*
X50055952Y-180184580D01*
X50055952Y-180184580D02*
X50103571Y-180089342D01*
X50103571Y-180089342D02*
X50103571Y-179851247D01*
X50103571Y-179851247D02*
X50055952Y-179756009D01*
X50055952Y-179756009D02*
X50008333Y-179708390D01*
X50008333Y-179708390D02*
X49913095Y-179660771D01*
X49913095Y-179660771D02*
X49722619Y-179660771D01*
X49722619Y-179660771D02*
X49627381Y-179708390D01*
X49627381Y-179708390D02*
X49579762Y-179756009D01*
X49579762Y-179756009D02*
X49532143Y-179851247D01*
X50532143Y-180184580D02*
X50579762Y-180232200D01*
X50579762Y-180232200D02*
X50532143Y-180279819D01*
X50532143Y-180279819D02*
X50484524Y-180232200D01*
X50484524Y-180232200D02*
X50532143Y-180184580D01*
X50532143Y-180184580D02*
X50532143Y-180279819D01*
X51484523Y-179279819D02*
X51008333Y-179279819D01*
X51008333Y-179279819D02*
X50960714Y-179756009D01*
X50960714Y-179756009D02*
X51008333Y-179708390D01*
X51008333Y-179708390D02*
X51103571Y-179660771D01*
X51103571Y-179660771D02*
X51341666Y-179660771D01*
X51341666Y-179660771D02*
X51436904Y-179708390D01*
X51436904Y-179708390D02*
X51484523Y-179756009D01*
X51484523Y-179756009D02*
X51532142Y-179851247D01*
X51532142Y-179851247D02*
X51532142Y-180089342D01*
X51532142Y-180089342D02*
X51484523Y-180184580D01*
X51484523Y-180184580D02*
X51436904Y-180232200D01*
X51436904Y-180232200D02*
X51341666Y-180279819D01*
X51341666Y-180279819D02*
X51103571Y-180279819D01*
X51103571Y-180279819D02*
X51008333Y-180232200D01*
X51008333Y-180232200D02*
X50960714Y-180184580D01*
X52151190Y-179279819D02*
X52246428Y-179279819D01*
X52246428Y-179279819D02*
X52341666Y-179327438D01*
X52341666Y-179327438D02*
X52389285Y-179375057D01*
X52389285Y-179375057D02*
X52436904Y-179470295D01*
X52436904Y-179470295D02*
X52484523Y-179660771D01*
X52484523Y-179660771D02*
X52484523Y-179898866D01*
X52484523Y-179898866D02*
X52436904Y-180089342D01*
X52436904Y-180089342D02*
X52389285Y-180184580D01*
X52389285Y-180184580D02*
X52341666Y-180232200D01*
X52341666Y-180232200D02*
X52246428Y-180279819D01*
X52246428Y-180279819D02*
X52151190Y-180279819D01*
X52151190Y-180279819D02*
X52055952Y-180232200D01*
X52055952Y-180232200D02*
X52008333Y-180184580D01*
X52008333Y-180184580D02*
X51960714Y-180089342D01*
X51960714Y-180089342D02*
X51913095Y-179898866D01*
X51913095Y-179898866D02*
X51913095Y-179660771D01*
X51913095Y-179660771D02*
X51960714Y-179470295D01*
X51960714Y-179470295D02*
X52008333Y-179375057D01*
X52008333Y-179375057D02*
X52055952Y-179327438D01*
X52055952Y-179327438D02*
X52151190Y-179279819D01*
X53103571Y-179279819D02*
X53198809Y-179279819D01*
X53198809Y-179279819D02*
X53294047Y-179327438D01*
X53294047Y-179327438D02*
X53341666Y-179375057D01*
X53341666Y-179375057D02*
X53389285Y-179470295D01*
X53389285Y-179470295D02*
X53436904Y-179660771D01*
X53436904Y-179660771D02*
X53436904Y-179898866D01*
X53436904Y-179898866D02*
X53389285Y-180089342D01*
X53389285Y-180089342D02*
X53341666Y-180184580D01*
X53341666Y-180184580D02*
X53294047Y-180232200D01*
X53294047Y-180232200D02*
X53198809Y-180279819D01*
X53198809Y-180279819D02*
X53103571Y-180279819D01*
X53103571Y-180279819D02*
X53008333Y-180232200D01*
X53008333Y-180232200D02*
X52960714Y-180184580D01*
X52960714Y-180184580D02*
X52913095Y-180089342D01*
X52913095Y-180089342D02*
X52865476Y-179898866D01*
X52865476Y-179898866D02*
X52865476Y-179660771D01*
X52865476Y-179660771D02*
X52913095Y-179470295D01*
X52913095Y-179470295D02*
X52960714Y-179375057D01*
X52960714Y-179375057D02*
X53008333Y-179327438D01*
X53008333Y-179327438D02*
X53103571Y-179279819D01*
X54055952Y-179279819D02*
X54151190Y-179279819D01*
X54151190Y-179279819D02*
X54246428Y-179327438D01*
X54246428Y-179327438D02*
X54294047Y-179375057D01*
X54294047Y-179375057D02*
X54341666Y-179470295D01*
X54341666Y-179470295D02*
X54389285Y-179660771D01*
X54389285Y-179660771D02*
X54389285Y-179898866D01*
X54389285Y-179898866D02*
X54341666Y-180089342D01*
X54341666Y-180089342D02*
X54294047Y-180184580D01*
X54294047Y-180184580D02*
X54246428Y-180232200D01*
X54246428Y-180232200D02*
X54151190Y-180279819D01*
X54151190Y-180279819D02*
X54055952Y-180279819D01*
X54055952Y-180279819D02*
X53960714Y-180232200D01*
X53960714Y-180232200D02*
X53913095Y-180184580D01*
X53913095Y-180184580D02*
X53865476Y-180089342D01*
X53865476Y-180089342D02*
X53817857Y-179898866D01*
X53817857Y-179898866D02*
X53817857Y-179660771D01*
X53817857Y-179660771D02*
X53865476Y-179470295D01*
X53865476Y-179470295D02*
X53913095Y-179375057D01*
X53913095Y-179375057D02*
X53960714Y-179327438D01*
X53960714Y-179327438D02*
X54055952Y-179279819D01*
X55579762Y-180279819D02*
X55579762Y-179613152D01*
X55579762Y-179708390D02*
X55627381Y-179660771D01*
X55627381Y-179660771D02*
X55722619Y-179613152D01*
X55722619Y-179613152D02*
X55865476Y-179613152D01*
X55865476Y-179613152D02*
X55960714Y-179660771D01*
X55960714Y-179660771D02*
X56008333Y-179756009D01*
X56008333Y-179756009D02*
X56008333Y-180279819D01*
X56008333Y-179756009D02*
X56055952Y-179660771D01*
X56055952Y-179660771D02*
X56151190Y-179613152D01*
X56151190Y-179613152D02*
X56294047Y-179613152D01*
X56294047Y-179613152D02*
X56389286Y-179660771D01*
X56389286Y-179660771D02*
X56436905Y-179756009D01*
X56436905Y-179756009D02*
X56436905Y-180279819D01*
X56913095Y-180279819D02*
X56913095Y-179613152D01*
X56913095Y-179708390D02*
X56960714Y-179660771D01*
X56960714Y-179660771D02*
X57055952Y-179613152D01*
X57055952Y-179613152D02*
X57198809Y-179613152D01*
X57198809Y-179613152D02*
X57294047Y-179660771D01*
X57294047Y-179660771D02*
X57341666Y-179756009D01*
X57341666Y-179756009D02*
X57341666Y-180279819D01*
X57341666Y-179756009D02*
X57389285Y-179660771D01*
X57389285Y-179660771D02*
X57484523Y-179613152D01*
X57484523Y-179613152D02*
X57627380Y-179613152D01*
X57627380Y-179613152D02*
X57722619Y-179660771D01*
X57722619Y-179660771D02*
X57770238Y-179756009D01*
X57770238Y-179756009D02*
X57770238Y-180279819D01*
X55500000Y-183000000D02*
X55500000Y-177913580D01*
X49000000Y-183000000D02*
X49000000Y-177913580D01*
X55500000Y-178500000D02*
X49000000Y-178500000D01*
X55500000Y-178500000D02*
X49000000Y-178500000D01*
X55500000Y-178500000D02*
X54373496Y-179086421D01*
X55500000Y-178500000D02*
X54373496Y-177913579D01*
X49000000Y-178500000D02*
X50126504Y-177913579D01*
X49000000Y-178500000D02*
X50126504Y-179086421D01*
X55500000Y-178500000D02*
X49000000Y-178500000D01*
X55500000Y-178500000D02*
X49000000Y-178500000D01*
X55500000Y-178500000D02*
X54373496Y-179086421D01*
X55500000Y-178500000D02*
X54373496Y-177913579D01*
X49000000Y-178500000D02*
X50126504Y-177913579D01*
X49000000Y-178500000D02*
X50126504Y-179086421D01*
X150304819Y-109523809D02*
X150304819Y-110095237D01*
X150304819Y-109809523D02*
X149304819Y-109809523D01*
X149304819Y-109809523D02*
X149447676Y-109904761D01*
X149447676Y-109904761D02*
X149542914Y-109999999D01*
X149542914Y-109999999D02*
X149590533Y-110095237D01*
X149733390Y-108952380D02*
X149685771Y-109047618D01*
X149685771Y-109047618D02*
X149638152Y-109095237D01*
X149638152Y-109095237D02*
X149542914Y-109142856D01*
X149542914Y-109142856D02*
X149495295Y-109142856D01*
X149495295Y-109142856D02*
X149400057Y-109095237D01*
X149400057Y-109095237D02*
X149352438Y-109047618D01*
X149352438Y-109047618D02*
X149304819Y-108952380D01*
X149304819Y-108952380D02*
X149304819Y-108761904D01*
X149304819Y-108761904D02*
X149352438Y-108666666D01*
X149352438Y-108666666D02*
X149400057Y-108619047D01*
X149400057Y-108619047D02*
X149495295Y-108571428D01*
X149495295Y-108571428D02*
X149542914Y-108571428D01*
X149542914Y-108571428D02*
X149638152Y-108619047D01*
X149638152Y-108619047D02*
X149685771Y-108666666D01*
X149685771Y-108666666D02*
X149733390Y-108761904D01*
X149733390Y-108761904D02*
X149733390Y-108952380D01*
X149733390Y-108952380D02*
X149781009Y-109047618D01*
X149781009Y-109047618D02*
X149828628Y-109095237D01*
X149828628Y-109095237D02*
X149923866Y-109142856D01*
X149923866Y-109142856D02*
X150114342Y-109142856D01*
X150114342Y-109142856D02*
X150209580Y-109095237D01*
X150209580Y-109095237D02*
X150257200Y-109047618D01*
X150257200Y-109047618D02*
X150304819Y-108952380D01*
X150304819Y-108952380D02*
X150304819Y-108761904D01*
X150304819Y-108761904D02*
X150257200Y-108666666D01*
X150257200Y-108666666D02*
X150209580Y-108619047D01*
X150209580Y-108619047D02*
X150114342Y-108571428D01*
X150114342Y-108571428D02*
X149923866Y-108571428D01*
X149923866Y-108571428D02*
X149828628Y-108619047D01*
X149828628Y-108619047D02*
X149781009Y-108666666D01*
X149781009Y-108666666D02*
X149733390Y-108761904D01*
X149638152Y-107714285D02*
X150304819Y-107714285D01*
X149257200Y-107952380D02*
X149971485Y-108190475D01*
X149971485Y-108190475D02*
X149971485Y-107571428D01*
X150209580Y-107190475D02*
X150257200Y-107142856D01*
X150257200Y-107142856D02*
X150304819Y-107190475D01*
X150304819Y-107190475D02*
X150257200Y-107238094D01*
X150257200Y-107238094D02*
X150209580Y-107190475D01*
X150209580Y-107190475D02*
X150304819Y-107190475D01*
X149304819Y-106523809D02*
X149304819Y-106428571D01*
X149304819Y-106428571D02*
X149352438Y-106333333D01*
X149352438Y-106333333D02*
X149400057Y-106285714D01*
X149400057Y-106285714D02*
X149495295Y-106238095D01*
X149495295Y-106238095D02*
X149685771Y-106190476D01*
X149685771Y-106190476D02*
X149923866Y-106190476D01*
X149923866Y-106190476D02*
X150114342Y-106238095D01*
X150114342Y-106238095D02*
X150209580Y-106285714D01*
X150209580Y-106285714D02*
X150257200Y-106333333D01*
X150257200Y-106333333D02*
X150304819Y-106428571D01*
X150304819Y-106428571D02*
X150304819Y-106523809D01*
X150304819Y-106523809D02*
X150257200Y-106619047D01*
X150257200Y-106619047D02*
X150209580Y-106666666D01*
X150209580Y-106666666D02*
X150114342Y-106714285D01*
X150114342Y-106714285D02*
X149923866Y-106761904D01*
X149923866Y-106761904D02*
X149685771Y-106761904D01*
X149685771Y-106761904D02*
X149495295Y-106714285D01*
X149495295Y-106714285D02*
X149400057Y-106666666D01*
X149400057Y-106666666D02*
X149352438Y-106619047D01*
X149352438Y-106619047D02*
X149304819Y-106523809D01*
X149304819Y-105571428D02*
X149304819Y-105476190D01*
X149304819Y-105476190D02*
X149352438Y-105380952D01*
X149352438Y-105380952D02*
X149400057Y-105333333D01*
X149400057Y-105333333D02*
X149495295Y-105285714D01*
X149495295Y-105285714D02*
X149685771Y-105238095D01*
X149685771Y-105238095D02*
X149923866Y-105238095D01*
X149923866Y-105238095D02*
X150114342Y-105285714D01*
X150114342Y-105285714D02*
X150209580Y-105333333D01*
X150209580Y-105333333D02*
X150257200Y-105380952D01*
X150257200Y-105380952D02*
X150304819Y-105476190D01*
X150304819Y-105476190D02*
X150304819Y-105571428D01*
X150304819Y-105571428D02*
X150257200Y-105666666D01*
X150257200Y-105666666D02*
X150209580Y-105714285D01*
X150209580Y-105714285D02*
X150114342Y-105761904D01*
X150114342Y-105761904D02*
X149923866Y-105809523D01*
X149923866Y-105809523D02*
X149685771Y-105809523D01*
X149685771Y-105809523D02*
X149495295Y-105761904D01*
X149495295Y-105761904D02*
X149400057Y-105714285D01*
X149400057Y-105714285D02*
X149352438Y-105666666D01*
X149352438Y-105666666D02*
X149304819Y-105571428D01*
X149304819Y-104619047D02*
X149304819Y-104523809D01*
X149304819Y-104523809D02*
X149352438Y-104428571D01*
X149352438Y-104428571D02*
X149400057Y-104380952D01*
X149400057Y-104380952D02*
X149495295Y-104333333D01*
X149495295Y-104333333D02*
X149685771Y-104285714D01*
X149685771Y-104285714D02*
X149923866Y-104285714D01*
X149923866Y-104285714D02*
X150114342Y-104333333D01*
X150114342Y-104333333D02*
X150209580Y-104380952D01*
X150209580Y-104380952D02*
X150257200Y-104428571D01*
X150257200Y-104428571D02*
X150304819Y-104523809D01*
X150304819Y-104523809D02*
X150304819Y-104619047D01*
X150304819Y-104619047D02*
X150257200Y-104714285D01*
X150257200Y-104714285D02*
X150209580Y-104761904D01*
X150209580Y-104761904D02*
X150114342Y-104809523D01*
X150114342Y-104809523D02*
X149923866Y-104857142D01*
X149923866Y-104857142D02*
X149685771Y-104857142D01*
X149685771Y-104857142D02*
X149495295Y-104809523D01*
X149495295Y-104809523D02*
X149400057Y-104761904D01*
X149400057Y-104761904D02*
X149352438Y-104714285D01*
X149352438Y-104714285D02*
X149304819Y-104619047D01*
X149304819Y-103666666D02*
X149304819Y-103571428D01*
X149304819Y-103571428D02*
X149352438Y-103476190D01*
X149352438Y-103476190D02*
X149400057Y-103428571D01*
X149400057Y-103428571D02*
X149495295Y-103380952D01*
X149495295Y-103380952D02*
X149685771Y-103333333D01*
X149685771Y-103333333D02*
X149923866Y-103333333D01*
X149923866Y-103333333D02*
X150114342Y-103380952D01*
X150114342Y-103380952D02*
X150209580Y-103428571D01*
X150209580Y-103428571D02*
X150257200Y-103476190D01*
X150257200Y-103476190D02*
X150304819Y-103571428D01*
X150304819Y-103571428D02*
X150304819Y-103666666D01*
X150304819Y-103666666D02*
X150257200Y-103761904D01*
X150257200Y-103761904D02*
X150209580Y-103809523D01*
X150209580Y-103809523D02*
X150114342Y-103857142D01*
X150114342Y-103857142D02*
X149923866Y-103904761D01*
X149923866Y-103904761D02*
X149685771Y-103904761D01*
X149685771Y-103904761D02*
X149495295Y-103857142D01*
X149495295Y-103857142D02*
X149400057Y-103809523D01*
X149400057Y-103809523D02*
X149352438Y-103761904D01*
X149352438Y-103761904D02*
X149304819Y-103666666D01*
X150304819Y-102142856D02*
X149638152Y-102142856D01*
X149733390Y-102142856D02*
X149685771Y-102095237D01*
X149685771Y-102095237D02*
X149638152Y-101999999D01*
X149638152Y-101999999D02*
X149638152Y-101857142D01*
X149638152Y-101857142D02*
X149685771Y-101761904D01*
X149685771Y-101761904D02*
X149781009Y-101714285D01*
X149781009Y-101714285D02*
X150304819Y-101714285D01*
X149781009Y-101714285D02*
X149685771Y-101666666D01*
X149685771Y-101666666D02*
X149638152Y-101571428D01*
X149638152Y-101571428D02*
X149638152Y-101428571D01*
X149638152Y-101428571D02*
X149685771Y-101333332D01*
X149685771Y-101333332D02*
X149781009Y-101285713D01*
X149781009Y-101285713D02*
X150304819Y-101285713D01*
X150304819Y-100809523D02*
X149638152Y-100809523D01*
X149733390Y-100809523D02*
X149685771Y-100761904D01*
X149685771Y-100761904D02*
X149638152Y-100666666D01*
X149638152Y-100666666D02*
X149638152Y-100523809D01*
X149638152Y-100523809D02*
X149685771Y-100428571D01*
X149685771Y-100428571D02*
X149781009Y-100380952D01*
X149781009Y-100380952D02*
X150304819Y-100380952D01*
X149781009Y-100380952D02*
X149685771Y-100333333D01*
X149685771Y-100333333D02*
X149638152Y-100238095D01*
X149638152Y-100238095D02*
X149638152Y-100095238D01*
X149638152Y-100095238D02*
X149685771Y-99999999D01*
X149685771Y-99999999D02*
X149781009Y-99952380D01*
X149781009Y-99952380D02*
X150304819Y-99952380D01*
X134500000Y-13000000D02*
X151586420Y-13000000D01*
X134500000Y-197000000D02*
X151586420Y-197000000D01*
X151000000Y-13000000D02*
X151000000Y-197000000D01*
X151000000Y-13000000D02*
X151000000Y-197000000D01*
X151000000Y-13000000D02*
X151586421Y-14126504D01*
X151000000Y-13000000D02*
X150413579Y-14126504D01*
X151000000Y-197000000D02*
X150413579Y-195873496D01*
X151000000Y-197000000D02*
X151586421Y-195873496D01*
X151000000Y-13000000D02*
X151000000Y-197000000D01*
X151000000Y-13000000D02*
X151000000Y-197000000D01*
X151000000Y-13000000D02*
X151586421Y-14126504D01*
X151000000Y-13000000D02*
X150413579Y-14126504D01*
X151000000Y-197000000D02*
X150413579Y-195873496D01*
X151000000Y-197000000D02*
X151586421Y-195873496D01*
X88854762Y-203379819D02*
X88378572Y-203379819D01*
X88378572Y-203379819D02*
X88330953Y-203856009D01*
X88330953Y-203856009D02*
X88378572Y-203808390D01*
X88378572Y-203808390D02*
X88473810Y-203760771D01*
X88473810Y-203760771D02*
X88711905Y-203760771D01*
X88711905Y-203760771D02*
X88807143Y-203808390D01*
X88807143Y-203808390D02*
X88854762Y-203856009D01*
X88854762Y-203856009D02*
X88902381Y-203951247D01*
X88902381Y-203951247D02*
X88902381Y-204189342D01*
X88902381Y-204189342D02*
X88854762Y-204284580D01*
X88854762Y-204284580D02*
X88807143Y-204332200D01*
X88807143Y-204332200D02*
X88711905Y-204379819D01*
X88711905Y-204379819D02*
X88473810Y-204379819D01*
X88473810Y-204379819D02*
X88378572Y-204332200D01*
X88378572Y-204332200D02*
X88330953Y-204284580D01*
X89759524Y-203379819D02*
X89569048Y-203379819D01*
X89569048Y-203379819D02*
X89473810Y-203427438D01*
X89473810Y-203427438D02*
X89426191Y-203475057D01*
X89426191Y-203475057D02*
X89330953Y-203617914D01*
X89330953Y-203617914D02*
X89283334Y-203808390D01*
X89283334Y-203808390D02*
X89283334Y-204189342D01*
X89283334Y-204189342D02*
X89330953Y-204284580D01*
X89330953Y-204284580D02*
X89378572Y-204332200D01*
X89378572Y-204332200D02*
X89473810Y-204379819D01*
X89473810Y-204379819D02*
X89664286Y-204379819D01*
X89664286Y-204379819D02*
X89759524Y-204332200D01*
X89759524Y-204332200D02*
X89807143Y-204284580D01*
X89807143Y-204284580D02*
X89854762Y-204189342D01*
X89854762Y-204189342D02*
X89854762Y-203951247D01*
X89854762Y-203951247D02*
X89807143Y-203856009D01*
X89807143Y-203856009D02*
X89759524Y-203808390D01*
X89759524Y-203808390D02*
X89664286Y-203760771D01*
X89664286Y-203760771D02*
X89473810Y-203760771D01*
X89473810Y-203760771D02*
X89378572Y-203808390D01*
X89378572Y-203808390D02*
X89330953Y-203856009D01*
X89330953Y-203856009D02*
X89283334Y-203951247D01*
X90283334Y-204284580D02*
X90330953Y-204332200D01*
X90330953Y-204332200D02*
X90283334Y-204379819D01*
X90283334Y-204379819D02*
X90235715Y-204332200D01*
X90235715Y-204332200D02*
X90283334Y-204284580D01*
X90283334Y-204284580D02*
X90283334Y-204379819D01*
X90950000Y-203379819D02*
X91045238Y-203379819D01*
X91045238Y-203379819D02*
X91140476Y-203427438D01*
X91140476Y-203427438D02*
X91188095Y-203475057D01*
X91188095Y-203475057D02*
X91235714Y-203570295D01*
X91235714Y-203570295D02*
X91283333Y-203760771D01*
X91283333Y-203760771D02*
X91283333Y-203998866D01*
X91283333Y-203998866D02*
X91235714Y-204189342D01*
X91235714Y-204189342D02*
X91188095Y-204284580D01*
X91188095Y-204284580D02*
X91140476Y-204332200D01*
X91140476Y-204332200D02*
X91045238Y-204379819D01*
X91045238Y-204379819D02*
X90950000Y-204379819D01*
X90950000Y-204379819D02*
X90854762Y-204332200D01*
X90854762Y-204332200D02*
X90807143Y-204284580D01*
X90807143Y-204284580D02*
X90759524Y-204189342D01*
X90759524Y-204189342D02*
X90711905Y-203998866D01*
X90711905Y-203998866D02*
X90711905Y-203760771D01*
X90711905Y-203760771D02*
X90759524Y-203570295D01*
X90759524Y-203570295D02*
X90807143Y-203475057D01*
X90807143Y-203475057D02*
X90854762Y-203427438D01*
X90854762Y-203427438D02*
X90950000Y-203379819D01*
X91902381Y-203379819D02*
X91997619Y-203379819D01*
X91997619Y-203379819D02*
X92092857Y-203427438D01*
X92092857Y-203427438D02*
X92140476Y-203475057D01*
X92140476Y-203475057D02*
X92188095Y-203570295D01*
X92188095Y-203570295D02*
X92235714Y-203760771D01*
X92235714Y-203760771D02*
X92235714Y-203998866D01*
X92235714Y-203998866D02*
X92188095Y-204189342D01*
X92188095Y-204189342D02*
X92140476Y-204284580D01*
X92140476Y-204284580D02*
X92092857Y-204332200D01*
X92092857Y-204332200D02*
X91997619Y-204379819D01*
X91997619Y-204379819D02*
X91902381Y-204379819D01*
X91902381Y-204379819D02*
X91807143Y-204332200D01*
X91807143Y-204332200D02*
X91759524Y-204284580D01*
X91759524Y-204284580D02*
X91711905Y-204189342D01*
X91711905Y-204189342D02*
X91664286Y-203998866D01*
X91664286Y-203998866D02*
X91664286Y-203760771D01*
X91664286Y-203760771D02*
X91711905Y-203570295D01*
X91711905Y-203570295D02*
X91759524Y-203475057D01*
X91759524Y-203475057D02*
X91807143Y-203427438D01*
X91807143Y-203427438D02*
X91902381Y-203379819D01*
X92854762Y-203379819D02*
X92950000Y-203379819D01*
X92950000Y-203379819D02*
X93045238Y-203427438D01*
X93045238Y-203427438D02*
X93092857Y-203475057D01*
X93092857Y-203475057D02*
X93140476Y-203570295D01*
X93140476Y-203570295D02*
X93188095Y-203760771D01*
X93188095Y-203760771D02*
X93188095Y-203998866D01*
X93188095Y-203998866D02*
X93140476Y-204189342D01*
X93140476Y-204189342D02*
X93092857Y-204284580D01*
X93092857Y-204284580D02*
X93045238Y-204332200D01*
X93045238Y-204332200D02*
X92950000Y-204379819D01*
X92950000Y-204379819D02*
X92854762Y-204379819D01*
X92854762Y-204379819D02*
X92759524Y-204332200D01*
X92759524Y-204332200D02*
X92711905Y-204284580D01*
X92711905Y-204284580D02*
X92664286Y-204189342D01*
X92664286Y-204189342D02*
X92616667Y-203998866D01*
X92616667Y-203998866D02*
X92616667Y-203760771D01*
X92616667Y-203760771D02*
X92664286Y-203570295D01*
X92664286Y-203570295D02*
X92711905Y-203475057D01*
X92711905Y-203475057D02*
X92759524Y-203427438D01*
X92759524Y-203427438D02*
X92854762Y-203379819D01*
X93807143Y-203379819D02*
X93902381Y-203379819D01*
X93902381Y-203379819D02*
X93997619Y-203427438D01*
X93997619Y-203427438D02*
X94045238Y-203475057D01*
X94045238Y-203475057D02*
X94092857Y-203570295D01*
X94092857Y-203570295D02*
X94140476Y-203760771D01*
X94140476Y-203760771D02*
X94140476Y-203998866D01*
X94140476Y-203998866D02*
X94092857Y-204189342D01*
X94092857Y-204189342D02*
X94045238Y-204284580D01*
X94045238Y-204284580D02*
X93997619Y-204332200D01*
X93997619Y-204332200D02*
X93902381Y-204379819D01*
X93902381Y-204379819D02*
X93807143Y-204379819D01*
X93807143Y-204379819D02*
X93711905Y-204332200D01*
X93711905Y-204332200D02*
X93664286Y-204284580D01*
X93664286Y-204284580D02*
X93616667Y-204189342D01*
X93616667Y-204189342D02*
X93569048Y-203998866D01*
X93569048Y-203998866D02*
X93569048Y-203760771D01*
X93569048Y-203760771D02*
X93616667Y-203570295D01*
X93616667Y-203570295D02*
X93664286Y-203475057D01*
X93664286Y-203475057D02*
X93711905Y-203427438D01*
X93711905Y-203427438D02*
X93807143Y-203379819D01*
X95330953Y-204379819D02*
X95330953Y-203713152D01*
X95330953Y-203808390D02*
X95378572Y-203760771D01*
X95378572Y-203760771D02*
X95473810Y-203713152D01*
X95473810Y-203713152D02*
X95616667Y-203713152D01*
X95616667Y-203713152D02*
X95711905Y-203760771D01*
X95711905Y-203760771D02*
X95759524Y-203856009D01*
X95759524Y-203856009D02*
X95759524Y-204379819D01*
X95759524Y-203856009D02*
X95807143Y-203760771D01*
X95807143Y-203760771D02*
X95902381Y-203713152D01*
X95902381Y-203713152D02*
X96045238Y-203713152D01*
X96045238Y-203713152D02*
X96140477Y-203760771D01*
X96140477Y-203760771D02*
X96188096Y-203856009D01*
X96188096Y-203856009D02*
X96188096Y-204379819D01*
X96664286Y-204379819D02*
X96664286Y-203713152D01*
X96664286Y-203808390D02*
X96711905Y-203760771D01*
X96711905Y-203760771D02*
X96807143Y-203713152D01*
X96807143Y-203713152D02*
X96950000Y-203713152D01*
X96950000Y-203713152D02*
X97045238Y-203760771D01*
X97045238Y-203760771D02*
X97092857Y-203856009D01*
X97092857Y-203856009D02*
X97092857Y-204379819D01*
X97092857Y-203856009D02*
X97140476Y-203760771D01*
X97140476Y-203760771D02*
X97235714Y-203713152D01*
X97235714Y-203713152D02*
X97378571Y-203713152D01*
X97378571Y-203713152D02*
X97473810Y-203760771D01*
X97473810Y-203760771D02*
X97521429Y-203856009D01*
X97521429Y-203856009D02*
X97521429Y-204379819D01*
X65000000Y-193500000D02*
X65000000Y-203586420D01*
X121000000Y-193500000D02*
X121000000Y-203586420D01*
X65000000Y-203000000D02*
X121000000Y-203000000D01*
X65000000Y-203000000D02*
X121000000Y-203000000D01*
X65000000Y-203000000D02*
X66126504Y-202413579D01*
X65000000Y-203000000D02*
X66126504Y-203586421D01*
X121000000Y-203000000D02*
X119873496Y-203586421D01*
X121000000Y-203000000D02*
X119873496Y-202413579D01*
X65000000Y-203000000D02*
X121000000Y-203000000D01*
X65000000Y-203000000D02*
X121000000Y-203000000D01*
X65000000Y-203000000D02*
X66126504Y-202413579D01*
X65000000Y-203000000D02*
X66126504Y-203586421D01*
X121000000Y-203000000D02*
X119873496Y-203586421D01*
X121000000Y-203000000D02*
X119873496Y-202413579D01*
X141879820Y-196765473D02*
X141879820Y-196146426D01*
X141879820Y-196146426D02*
X142260772Y-196479759D01*
X142260772Y-196479759D02*
X142260772Y-196336902D01*
X142260772Y-196336902D02*
X142308391Y-196241664D01*
X142308391Y-196241664D02*
X142356010Y-196194045D01*
X142356010Y-196194045D02*
X142451248Y-196146426D01*
X142451248Y-196146426D02*
X142689343Y-196146426D01*
X142689343Y-196146426D02*
X142784581Y-196194045D01*
X142784581Y-196194045D02*
X142832201Y-196241664D01*
X142832201Y-196241664D02*
X142879820Y-196336902D01*
X142879820Y-196336902D02*
X142879820Y-196622616D01*
X142879820Y-196622616D02*
X142832201Y-196717854D01*
X142832201Y-196717854D02*
X142784581Y-196765473D01*
X142784581Y-195717854D02*
X142832201Y-195670235D01*
X142832201Y-195670235D02*
X142879820Y-195717854D01*
X142879820Y-195717854D02*
X142832201Y-195765473D01*
X142832201Y-195765473D02*
X142784581Y-195717854D01*
X142784581Y-195717854D02*
X142879820Y-195717854D01*
X142879820Y-195194045D02*
X142879820Y-195003569D01*
X142879820Y-195003569D02*
X142832201Y-194908331D01*
X142832201Y-194908331D02*
X142784581Y-194860712D01*
X142784581Y-194860712D02*
X142641724Y-194765474D01*
X142641724Y-194765474D02*
X142451248Y-194717855D01*
X142451248Y-194717855D02*
X142070296Y-194717855D01*
X142070296Y-194717855D02*
X141975058Y-194765474D01*
X141975058Y-194765474D02*
X141927439Y-194813093D01*
X141927439Y-194813093D02*
X141879820Y-194908331D01*
X141879820Y-194908331D02*
X141879820Y-195098807D01*
X141879820Y-195098807D02*
X141927439Y-195194045D01*
X141927439Y-195194045D02*
X141975058Y-195241664D01*
X141975058Y-195241664D02*
X142070296Y-195289283D01*
X142070296Y-195289283D02*
X142308391Y-195289283D01*
X142308391Y-195289283D02*
X142403629Y-195241664D01*
X142403629Y-195241664D02*
X142451248Y-195194045D01*
X142451248Y-195194045D02*
X142498867Y-195098807D01*
X142498867Y-195098807D02*
X142498867Y-194908331D01*
X142498867Y-194908331D02*
X142451248Y-194813093D01*
X142451248Y-194813093D02*
X142403629Y-194765474D01*
X142403629Y-194765474D02*
X142308391Y-194717855D01*
X141879820Y-194384521D02*
X141879820Y-193717855D01*
X141879820Y-193717855D02*
X142879820Y-194146426D01*
X141879820Y-192860712D02*
X141879820Y-193336902D01*
X141879820Y-193336902D02*
X142356010Y-193384521D01*
X142356010Y-193384521D02*
X142308391Y-193336902D01*
X142308391Y-193336902D02*
X142260772Y-193241664D01*
X142260772Y-193241664D02*
X142260772Y-193003569D01*
X142260772Y-193003569D02*
X142308391Y-192908331D01*
X142308391Y-192908331D02*
X142356010Y-192860712D01*
X142356010Y-192860712D02*
X142451248Y-192813093D01*
X142451248Y-192813093D02*
X142689343Y-192813093D01*
X142689343Y-192813093D02*
X142784581Y-192860712D01*
X142784581Y-192860712D02*
X142832201Y-192908331D01*
X142832201Y-192908331D02*
X142879820Y-193003569D01*
X142879820Y-193003569D02*
X142879820Y-193241664D01*
X142879820Y-193241664D02*
X142832201Y-193336902D01*
X142832201Y-193336902D02*
X142784581Y-193384521D01*
X141879820Y-192194045D02*
X141879820Y-192098807D01*
X141879820Y-192098807D02*
X141927439Y-192003569D01*
X141927439Y-192003569D02*
X141975058Y-191955950D01*
X141975058Y-191955950D02*
X142070296Y-191908331D01*
X142070296Y-191908331D02*
X142260772Y-191860712D01*
X142260772Y-191860712D02*
X142498867Y-191860712D01*
X142498867Y-191860712D02*
X142689343Y-191908331D01*
X142689343Y-191908331D02*
X142784581Y-191955950D01*
X142784581Y-191955950D02*
X142832201Y-192003569D01*
X142832201Y-192003569D02*
X142879820Y-192098807D01*
X142879820Y-192098807D02*
X142879820Y-192194045D01*
X142879820Y-192194045D02*
X142832201Y-192289283D01*
X142832201Y-192289283D02*
X142784581Y-192336902D01*
X142784581Y-192336902D02*
X142689343Y-192384521D01*
X142689343Y-192384521D02*
X142498867Y-192432140D01*
X142498867Y-192432140D02*
X142260772Y-192432140D01*
X142260772Y-192432140D02*
X142070296Y-192384521D01*
X142070296Y-192384521D02*
X141975058Y-192336902D01*
X141975058Y-192336902D02*
X141927439Y-192289283D01*
X141927439Y-192289283D02*
X141879820Y-192194045D01*
X142879820Y-190670235D02*
X142213153Y-190670235D01*
X142308391Y-190670235D02*
X142260772Y-190622616D01*
X142260772Y-190622616D02*
X142213153Y-190527378D01*
X142213153Y-190527378D02*
X142213153Y-190384521D01*
X142213153Y-190384521D02*
X142260772Y-190289283D01*
X142260772Y-190289283D02*
X142356010Y-190241664D01*
X142356010Y-190241664D02*
X142879820Y-190241664D01*
X142356010Y-190241664D02*
X142260772Y-190194045D01*
X142260772Y-190194045D02*
X142213153Y-190098807D01*
X142213153Y-190098807D02*
X142213153Y-189955950D01*
X142213153Y-189955950D02*
X142260772Y-189860711D01*
X142260772Y-189860711D02*
X142356010Y-189813092D01*
X142356010Y-189813092D02*
X142879820Y-189813092D01*
X142879820Y-189336902D02*
X142213153Y-189336902D01*
X142308391Y-189336902D02*
X142260772Y-189289283D01*
X142260772Y-189289283D02*
X142213153Y-189194045D01*
X142213153Y-189194045D02*
X142213153Y-189051188D01*
X142213153Y-189051188D02*
X142260772Y-188955950D01*
X142260772Y-188955950D02*
X142356010Y-188908331D01*
X142356010Y-188908331D02*
X142879820Y-188908331D01*
X142356010Y-188908331D02*
X142260772Y-188860712D01*
X142260772Y-188860712D02*
X142213153Y-188765474D01*
X142213153Y-188765474D02*
X142213153Y-188622617D01*
X142213153Y-188622617D02*
X142260772Y-188527378D01*
X142260772Y-188527378D02*
X142356010Y-188479759D01*
X142356010Y-188479759D02*
X142879820Y-188479759D01*
X134500000Y-193025000D02*
X141586420Y-193025000D01*
X134500000Y-197000000D02*
X141586420Y-197000000D01*
X141000000Y-193025000D02*
X141000000Y-197000000D01*
X141000000Y-193025000D02*
X141000000Y-197000000D01*
X141000000Y-193025000D02*
X141586421Y-194151504D01*
X141000000Y-193025000D02*
X140413579Y-194151504D01*
X141000000Y-197000000D02*
X140413579Y-195873496D01*
X141000000Y-197000000D02*
X141586421Y-195873496D01*
X141000000Y-193025000D02*
X141000000Y-197000000D01*
X141000000Y-193025000D02*
X141000000Y-197000000D01*
X141000000Y-193025000D02*
X141586421Y-194151504D01*
X141000000Y-193025000D02*
X140413579Y-194151504D01*
X141000000Y-197000000D02*
X140413579Y-195873496D01*
X141000000Y-197000000D02*
X141586421Y-195873496D01*
X43100057Y-70169046D02*
X43052438Y-70121427D01*
X43052438Y-70121427D02*
X43004819Y-70026189D01*
X43004819Y-70026189D02*
X43004819Y-69788094D01*
X43004819Y-69788094D02*
X43052438Y-69692856D01*
X43052438Y-69692856D02*
X43100057Y-69645237D01*
X43100057Y-69645237D02*
X43195295Y-69597618D01*
X43195295Y-69597618D02*
X43290533Y-69597618D01*
X43290533Y-69597618D02*
X43433390Y-69645237D01*
X43433390Y-69645237D02*
X44004819Y-70216665D01*
X44004819Y-70216665D02*
X44004819Y-69597618D01*
X43338152Y-68740475D02*
X44004819Y-68740475D01*
X42957200Y-68978570D02*
X43671485Y-69216665D01*
X43671485Y-69216665D02*
X43671485Y-68597618D01*
X43909580Y-68216665D02*
X43957200Y-68169046D01*
X43957200Y-68169046D02*
X44004819Y-68216665D01*
X44004819Y-68216665D02*
X43957200Y-68264284D01*
X43957200Y-68264284D02*
X43909580Y-68216665D01*
X43909580Y-68216665D02*
X44004819Y-68216665D01*
X44004819Y-67692856D02*
X44004819Y-67502380D01*
X44004819Y-67502380D02*
X43957200Y-67407142D01*
X43957200Y-67407142D02*
X43909580Y-67359523D01*
X43909580Y-67359523D02*
X43766723Y-67264285D01*
X43766723Y-67264285D02*
X43576247Y-67216666D01*
X43576247Y-67216666D02*
X43195295Y-67216666D01*
X43195295Y-67216666D02*
X43100057Y-67264285D01*
X43100057Y-67264285D02*
X43052438Y-67311904D01*
X43052438Y-67311904D02*
X43004819Y-67407142D01*
X43004819Y-67407142D02*
X43004819Y-67597618D01*
X43004819Y-67597618D02*
X43052438Y-67692856D01*
X43052438Y-67692856D02*
X43100057Y-67740475D01*
X43100057Y-67740475D02*
X43195295Y-67788094D01*
X43195295Y-67788094D02*
X43433390Y-67788094D01*
X43433390Y-67788094D02*
X43528628Y-67740475D01*
X43528628Y-67740475D02*
X43576247Y-67692856D01*
X43576247Y-67692856D02*
X43623866Y-67597618D01*
X43623866Y-67597618D02*
X43623866Y-67407142D01*
X43623866Y-67407142D02*
X43576247Y-67311904D01*
X43576247Y-67311904D02*
X43528628Y-67264285D01*
X43528628Y-67264285D02*
X43433390Y-67216666D01*
X43004819Y-66597618D02*
X43004819Y-66502380D01*
X43004819Y-66502380D02*
X43052438Y-66407142D01*
X43052438Y-66407142D02*
X43100057Y-66359523D01*
X43100057Y-66359523D02*
X43195295Y-66311904D01*
X43195295Y-66311904D02*
X43385771Y-66264285D01*
X43385771Y-66264285D02*
X43623866Y-66264285D01*
X43623866Y-66264285D02*
X43814342Y-66311904D01*
X43814342Y-66311904D02*
X43909580Y-66359523D01*
X43909580Y-66359523D02*
X43957200Y-66407142D01*
X43957200Y-66407142D02*
X44004819Y-66502380D01*
X44004819Y-66502380D02*
X44004819Y-66597618D01*
X44004819Y-66597618D02*
X43957200Y-66692856D01*
X43957200Y-66692856D02*
X43909580Y-66740475D01*
X43909580Y-66740475D02*
X43814342Y-66788094D01*
X43814342Y-66788094D02*
X43623866Y-66835713D01*
X43623866Y-66835713D02*
X43385771Y-66835713D01*
X43385771Y-66835713D02*
X43195295Y-66788094D01*
X43195295Y-66788094D02*
X43100057Y-66740475D01*
X43100057Y-66740475D02*
X43052438Y-66692856D01*
X43052438Y-66692856D02*
X43004819Y-66597618D01*
X43004819Y-65645237D02*
X43004819Y-65549999D01*
X43004819Y-65549999D02*
X43052438Y-65454761D01*
X43052438Y-65454761D02*
X43100057Y-65407142D01*
X43100057Y-65407142D02*
X43195295Y-65359523D01*
X43195295Y-65359523D02*
X43385771Y-65311904D01*
X43385771Y-65311904D02*
X43623866Y-65311904D01*
X43623866Y-65311904D02*
X43814342Y-65359523D01*
X43814342Y-65359523D02*
X43909580Y-65407142D01*
X43909580Y-65407142D02*
X43957200Y-65454761D01*
X43957200Y-65454761D02*
X44004819Y-65549999D01*
X44004819Y-65549999D02*
X44004819Y-65645237D01*
X44004819Y-65645237D02*
X43957200Y-65740475D01*
X43957200Y-65740475D02*
X43909580Y-65788094D01*
X43909580Y-65788094D02*
X43814342Y-65835713D01*
X43814342Y-65835713D02*
X43623866Y-65883332D01*
X43623866Y-65883332D02*
X43385771Y-65883332D01*
X43385771Y-65883332D02*
X43195295Y-65835713D01*
X43195295Y-65835713D02*
X43100057Y-65788094D01*
X43100057Y-65788094D02*
X43052438Y-65740475D01*
X43052438Y-65740475D02*
X43004819Y-65645237D01*
X43004819Y-64692856D02*
X43004819Y-64597618D01*
X43004819Y-64597618D02*
X43052438Y-64502380D01*
X43052438Y-64502380D02*
X43100057Y-64454761D01*
X43100057Y-64454761D02*
X43195295Y-64407142D01*
X43195295Y-64407142D02*
X43385771Y-64359523D01*
X43385771Y-64359523D02*
X43623866Y-64359523D01*
X43623866Y-64359523D02*
X43814342Y-64407142D01*
X43814342Y-64407142D02*
X43909580Y-64454761D01*
X43909580Y-64454761D02*
X43957200Y-64502380D01*
X43957200Y-64502380D02*
X44004819Y-64597618D01*
X44004819Y-64597618D02*
X44004819Y-64692856D01*
X44004819Y-64692856D02*
X43957200Y-64788094D01*
X43957200Y-64788094D02*
X43909580Y-64835713D01*
X43909580Y-64835713D02*
X43814342Y-64883332D01*
X43814342Y-64883332D02*
X43623866Y-64930951D01*
X43623866Y-64930951D02*
X43385771Y-64930951D01*
X43385771Y-64930951D02*
X43195295Y-64883332D01*
X43195295Y-64883332D02*
X43100057Y-64835713D01*
X43100057Y-64835713D02*
X43052438Y-64788094D01*
X43052438Y-64788094D02*
X43004819Y-64692856D01*
X44004819Y-63169046D02*
X43338152Y-63169046D01*
X43433390Y-63169046D02*
X43385771Y-63121427D01*
X43385771Y-63121427D02*
X43338152Y-63026189D01*
X43338152Y-63026189D02*
X43338152Y-62883332D01*
X43338152Y-62883332D02*
X43385771Y-62788094D01*
X43385771Y-62788094D02*
X43481009Y-62740475D01*
X43481009Y-62740475D02*
X44004819Y-62740475D01*
X43481009Y-62740475D02*
X43385771Y-62692856D01*
X43385771Y-62692856D02*
X43338152Y-62597618D01*
X43338152Y-62597618D02*
X43338152Y-62454761D01*
X43338152Y-62454761D02*
X43385771Y-62359522D01*
X43385771Y-62359522D02*
X43481009Y-62311903D01*
X43481009Y-62311903D02*
X44004819Y-62311903D01*
X44004819Y-61835713D02*
X43338152Y-61835713D01*
X43433390Y-61835713D02*
X43385771Y-61788094D01*
X43385771Y-61788094D02*
X43338152Y-61692856D01*
X43338152Y-61692856D02*
X43338152Y-61549999D01*
X43338152Y-61549999D02*
X43385771Y-61454761D01*
X43385771Y-61454761D02*
X43481009Y-61407142D01*
X43481009Y-61407142D02*
X44004819Y-61407142D01*
X43481009Y-61407142D02*
X43385771Y-61359523D01*
X43385771Y-61359523D02*
X43338152Y-61264285D01*
X43338152Y-61264285D02*
X43338152Y-61121428D01*
X43338152Y-61121428D02*
X43385771Y-61026189D01*
X43385771Y-61026189D02*
X43481009Y-60978570D01*
X43481009Y-60978570D02*
X44004819Y-60978570D01*
X54500000Y-78000000D02*
X44113580Y-78000000D01*
X44113580Y-53100000D02*
X54500000Y-53100000D01*
X44700000Y-78000000D02*
X44700000Y-53100000D01*
X44700000Y-78000000D02*
X44700000Y-53100000D01*
X44700000Y-78000000D02*
X44113579Y-76873496D01*
X44700000Y-78000000D02*
X45286421Y-76873496D01*
X44700000Y-53100000D02*
X45286421Y-54226504D01*
X44700000Y-53100000D02*
X44113579Y-54226504D01*
X44700000Y-78000000D02*
X44700000Y-53100000D01*
X44700000Y-78000000D02*
X44700000Y-53100000D01*
X44700000Y-78000000D02*
X44113579Y-76873496D01*
X44700000Y-78000000D02*
X45286421Y-76873496D01*
X44700000Y-53100000D02*
X45286421Y-54226504D01*
X44700000Y-53100000D02*
X44113579Y-54226504D01*
X70857143Y-33238152D02*
X70857143Y-33904819D01*
X70619048Y-32857200D02*
X70380953Y-33571485D01*
X70380953Y-33571485D02*
X71000000Y-33571485D01*
X71571429Y-32904819D02*
X71666667Y-32904819D01*
X71666667Y-32904819D02*
X71761905Y-32952438D01*
X71761905Y-32952438D02*
X71809524Y-33000057D01*
X71809524Y-33000057D02*
X71857143Y-33095295D01*
X71857143Y-33095295D02*
X71904762Y-33285771D01*
X71904762Y-33285771D02*
X71904762Y-33523866D01*
X71904762Y-33523866D02*
X71857143Y-33714342D01*
X71857143Y-33714342D02*
X71809524Y-33809580D01*
X71809524Y-33809580D02*
X71761905Y-33857200D01*
X71761905Y-33857200D02*
X71666667Y-33904819D01*
X71666667Y-33904819D02*
X71571429Y-33904819D01*
X71571429Y-33904819D02*
X71476191Y-33857200D01*
X71476191Y-33857200D02*
X71428572Y-33809580D01*
X71428572Y-33809580D02*
X71380953Y-33714342D01*
X71380953Y-33714342D02*
X71333334Y-33523866D01*
X71333334Y-33523866D02*
X71333334Y-33285771D01*
X71333334Y-33285771D02*
X71380953Y-33095295D01*
X71380953Y-33095295D02*
X71428572Y-33000057D01*
X71428572Y-33000057D02*
X71476191Y-32952438D01*
X71476191Y-32952438D02*
X71571429Y-32904819D01*
X72333334Y-33809580D02*
X72380953Y-33857200D01*
X72380953Y-33857200D02*
X72333334Y-33904819D01*
X72333334Y-33904819D02*
X72285715Y-33857200D01*
X72285715Y-33857200D02*
X72333334Y-33809580D01*
X72333334Y-33809580D02*
X72333334Y-33904819D01*
X73000000Y-32904819D02*
X73095238Y-32904819D01*
X73095238Y-32904819D02*
X73190476Y-32952438D01*
X73190476Y-32952438D02*
X73238095Y-33000057D01*
X73238095Y-33000057D02*
X73285714Y-33095295D01*
X73285714Y-33095295D02*
X73333333Y-33285771D01*
X73333333Y-33285771D02*
X73333333Y-33523866D01*
X73333333Y-33523866D02*
X73285714Y-33714342D01*
X73285714Y-33714342D02*
X73238095Y-33809580D01*
X73238095Y-33809580D02*
X73190476Y-33857200D01*
X73190476Y-33857200D02*
X73095238Y-33904819D01*
X73095238Y-33904819D02*
X73000000Y-33904819D01*
X73000000Y-33904819D02*
X72904762Y-33857200D01*
X72904762Y-33857200D02*
X72857143Y-33809580D01*
X72857143Y-33809580D02*
X72809524Y-33714342D01*
X72809524Y-33714342D02*
X72761905Y-33523866D01*
X72761905Y-33523866D02*
X72761905Y-33285771D01*
X72761905Y-33285771D02*
X72809524Y-33095295D01*
X72809524Y-33095295D02*
X72857143Y-33000057D01*
X72857143Y-33000057D02*
X72904762Y-32952438D01*
X72904762Y-32952438D02*
X73000000Y-32904819D01*
X73952381Y-32904819D02*
X74047619Y-32904819D01*
X74047619Y-32904819D02*
X74142857Y-32952438D01*
X74142857Y-32952438D02*
X74190476Y-33000057D01*
X74190476Y-33000057D02*
X74238095Y-33095295D01*
X74238095Y-33095295D02*
X74285714Y-33285771D01*
X74285714Y-33285771D02*
X74285714Y-33523866D01*
X74285714Y-33523866D02*
X74238095Y-33714342D01*
X74238095Y-33714342D02*
X74190476Y-33809580D01*
X74190476Y-33809580D02*
X74142857Y-33857200D01*
X74142857Y-33857200D02*
X74047619Y-33904819D01*
X74047619Y-33904819D02*
X73952381Y-33904819D01*
X73952381Y-33904819D02*
X73857143Y-33857200D01*
X73857143Y-33857200D02*
X73809524Y-33809580D01*
X73809524Y-33809580D02*
X73761905Y-33714342D01*
X73761905Y-33714342D02*
X73714286Y-33523866D01*
X73714286Y-33523866D02*
X73714286Y-33285771D01*
X73714286Y-33285771D02*
X73761905Y-33095295D01*
X73761905Y-33095295D02*
X73809524Y-33000057D01*
X73809524Y-33000057D02*
X73857143Y-32952438D01*
X73857143Y-32952438D02*
X73952381Y-32904819D01*
X74904762Y-32904819D02*
X75000000Y-32904819D01*
X75000000Y-32904819D02*
X75095238Y-32952438D01*
X75095238Y-32952438D02*
X75142857Y-33000057D01*
X75142857Y-33000057D02*
X75190476Y-33095295D01*
X75190476Y-33095295D02*
X75238095Y-33285771D01*
X75238095Y-33285771D02*
X75238095Y-33523866D01*
X75238095Y-33523866D02*
X75190476Y-33714342D01*
X75190476Y-33714342D02*
X75142857Y-33809580D01*
X75142857Y-33809580D02*
X75095238Y-33857200D01*
X75095238Y-33857200D02*
X75000000Y-33904819D01*
X75000000Y-33904819D02*
X74904762Y-33904819D01*
X74904762Y-33904819D02*
X74809524Y-33857200D01*
X74809524Y-33857200D02*
X74761905Y-33809580D01*
X74761905Y-33809580D02*
X74714286Y-33714342D01*
X74714286Y-33714342D02*
X74666667Y-33523866D01*
X74666667Y-33523866D02*
X74666667Y-33285771D01*
X74666667Y-33285771D02*
X74714286Y-33095295D01*
X74714286Y-33095295D02*
X74761905Y-33000057D01*
X74761905Y-33000057D02*
X74809524Y-32952438D01*
X74809524Y-32952438D02*
X74904762Y-32904819D01*
X75857143Y-32904819D02*
X75952381Y-32904819D01*
X75952381Y-32904819D02*
X76047619Y-32952438D01*
X76047619Y-32952438D02*
X76095238Y-33000057D01*
X76095238Y-33000057D02*
X76142857Y-33095295D01*
X76142857Y-33095295D02*
X76190476Y-33285771D01*
X76190476Y-33285771D02*
X76190476Y-33523866D01*
X76190476Y-33523866D02*
X76142857Y-33714342D01*
X76142857Y-33714342D02*
X76095238Y-33809580D01*
X76095238Y-33809580D02*
X76047619Y-33857200D01*
X76047619Y-33857200D02*
X75952381Y-33904819D01*
X75952381Y-33904819D02*
X75857143Y-33904819D01*
X75857143Y-33904819D02*
X75761905Y-33857200D01*
X75761905Y-33857200D02*
X75714286Y-33809580D01*
X75714286Y-33809580D02*
X75666667Y-33714342D01*
X75666667Y-33714342D02*
X75619048Y-33523866D01*
X75619048Y-33523866D02*
X75619048Y-33285771D01*
X75619048Y-33285771D02*
X75666667Y-33095295D01*
X75666667Y-33095295D02*
X75714286Y-33000057D01*
X75714286Y-33000057D02*
X75761905Y-32952438D01*
X75761905Y-32952438D02*
X75857143Y-32904819D01*
X77380953Y-33904819D02*
X77380953Y-33238152D01*
X77380953Y-33333390D02*
X77428572Y-33285771D01*
X77428572Y-33285771D02*
X77523810Y-33238152D01*
X77523810Y-33238152D02*
X77666667Y-33238152D01*
X77666667Y-33238152D02*
X77761905Y-33285771D01*
X77761905Y-33285771D02*
X77809524Y-33381009D01*
X77809524Y-33381009D02*
X77809524Y-33904819D01*
X77809524Y-33381009D02*
X77857143Y-33285771D01*
X77857143Y-33285771D02*
X77952381Y-33238152D01*
X77952381Y-33238152D02*
X78095238Y-33238152D01*
X78095238Y-33238152D02*
X78190477Y-33285771D01*
X78190477Y-33285771D02*
X78238096Y-33381009D01*
X78238096Y-33381009D02*
X78238096Y-33904819D01*
X78714286Y-33904819D02*
X78714286Y-33238152D01*
X78714286Y-33333390D02*
X78761905Y-33285771D01*
X78761905Y-33285771D02*
X78857143Y-33238152D01*
X78857143Y-33238152D02*
X79000000Y-33238152D01*
X79000000Y-33238152D02*
X79095238Y-33285771D01*
X79095238Y-33285771D02*
X79142857Y-33381009D01*
X79142857Y-33381009D02*
X79142857Y-33904819D01*
X79142857Y-33381009D02*
X79190476Y-33285771D01*
X79190476Y-33285771D02*
X79285714Y-33238152D01*
X79285714Y-33238152D02*
X79428571Y-33238152D01*
X79428571Y-33238152D02*
X79523810Y-33285771D01*
X79523810Y-33285771D02*
X79571429Y-33381009D01*
X79571429Y-33381009D02*
X79571429Y-33904819D01*
X55000000Y-37500000D02*
X55000000Y-34013580D01*
X95000000Y-34013580D02*
X95000000Y-37500000D01*
X55000000Y-34600000D02*
X95000000Y-34600000D01*
X55000000Y-34600000D02*
X95000000Y-34600000D01*
X55000000Y-34600000D02*
X56126504Y-34013579D01*
X55000000Y-34600000D02*
X56126504Y-35186421D01*
X95000000Y-34600000D02*
X93873496Y-35186421D01*
X95000000Y-34600000D02*
X93873496Y-34013579D01*
X55000000Y-34600000D02*
X95000000Y-34600000D01*
X55000000Y-34600000D02*
X95000000Y-34600000D01*
X55000000Y-34600000D02*
X56126504Y-34013579D01*
X55000000Y-34600000D02*
X56126504Y-35186421D01*
X95000000Y-34600000D02*
X93873496Y-35186421D01*
X95000000Y-34600000D02*
X93873496Y-34013579D01*
X139304819Y-56142856D02*
X139304819Y-56333332D01*
X139304819Y-56333332D02*
X139352438Y-56428570D01*
X139352438Y-56428570D02*
X139400057Y-56476189D01*
X139400057Y-56476189D02*
X139542914Y-56571427D01*
X139542914Y-56571427D02*
X139733390Y-56619046D01*
X139733390Y-56619046D02*
X140114342Y-56619046D01*
X140114342Y-56619046D02*
X140209580Y-56571427D01*
X140209580Y-56571427D02*
X140257200Y-56523808D01*
X140257200Y-56523808D02*
X140304819Y-56428570D01*
X140304819Y-56428570D02*
X140304819Y-56238094D01*
X140304819Y-56238094D02*
X140257200Y-56142856D01*
X140257200Y-56142856D02*
X140209580Y-56095237D01*
X140209580Y-56095237D02*
X140114342Y-56047618D01*
X140114342Y-56047618D02*
X139876247Y-56047618D01*
X139876247Y-56047618D02*
X139781009Y-56095237D01*
X139781009Y-56095237D02*
X139733390Y-56142856D01*
X139733390Y-56142856D02*
X139685771Y-56238094D01*
X139685771Y-56238094D02*
X139685771Y-56428570D01*
X139685771Y-56428570D02*
X139733390Y-56523808D01*
X139733390Y-56523808D02*
X139781009Y-56571427D01*
X139781009Y-56571427D02*
X139876247Y-56619046D01*
X139733390Y-55476189D02*
X139685771Y-55571427D01*
X139685771Y-55571427D02*
X139638152Y-55619046D01*
X139638152Y-55619046D02*
X139542914Y-55666665D01*
X139542914Y-55666665D02*
X139495295Y-55666665D01*
X139495295Y-55666665D02*
X139400057Y-55619046D01*
X139400057Y-55619046D02*
X139352438Y-55571427D01*
X139352438Y-55571427D02*
X139304819Y-55476189D01*
X139304819Y-55476189D02*
X139304819Y-55285713D01*
X139304819Y-55285713D02*
X139352438Y-55190475D01*
X139352438Y-55190475D02*
X139400057Y-55142856D01*
X139400057Y-55142856D02*
X139495295Y-55095237D01*
X139495295Y-55095237D02*
X139542914Y-55095237D01*
X139542914Y-55095237D02*
X139638152Y-55142856D01*
X139638152Y-55142856D02*
X139685771Y-55190475D01*
X139685771Y-55190475D02*
X139733390Y-55285713D01*
X139733390Y-55285713D02*
X139733390Y-55476189D01*
X139733390Y-55476189D02*
X139781009Y-55571427D01*
X139781009Y-55571427D02*
X139828628Y-55619046D01*
X139828628Y-55619046D02*
X139923866Y-55666665D01*
X139923866Y-55666665D02*
X140114342Y-55666665D01*
X140114342Y-55666665D02*
X140209580Y-55619046D01*
X140209580Y-55619046D02*
X140257200Y-55571427D01*
X140257200Y-55571427D02*
X140304819Y-55476189D01*
X140304819Y-55476189D02*
X140304819Y-55285713D01*
X140304819Y-55285713D02*
X140257200Y-55190475D01*
X140257200Y-55190475D02*
X140209580Y-55142856D01*
X140209580Y-55142856D02*
X140114342Y-55095237D01*
X140114342Y-55095237D02*
X139923866Y-55095237D01*
X139923866Y-55095237D02*
X139828628Y-55142856D01*
X139828628Y-55142856D02*
X139781009Y-55190475D01*
X139781009Y-55190475D02*
X139733390Y-55285713D01*
X140209580Y-54666665D02*
X140257200Y-54619046D01*
X140257200Y-54619046D02*
X140304819Y-54666665D01*
X140304819Y-54666665D02*
X140257200Y-54714284D01*
X140257200Y-54714284D02*
X140209580Y-54666665D01*
X140209580Y-54666665D02*
X140304819Y-54666665D01*
X139304819Y-53999999D02*
X139304819Y-53904761D01*
X139304819Y-53904761D02*
X139352438Y-53809523D01*
X139352438Y-53809523D02*
X139400057Y-53761904D01*
X139400057Y-53761904D02*
X139495295Y-53714285D01*
X139495295Y-53714285D02*
X139685771Y-53666666D01*
X139685771Y-53666666D02*
X139923866Y-53666666D01*
X139923866Y-53666666D02*
X140114342Y-53714285D01*
X140114342Y-53714285D02*
X140209580Y-53761904D01*
X140209580Y-53761904D02*
X140257200Y-53809523D01*
X140257200Y-53809523D02*
X140304819Y-53904761D01*
X140304819Y-53904761D02*
X140304819Y-53999999D01*
X140304819Y-53999999D02*
X140257200Y-54095237D01*
X140257200Y-54095237D02*
X140209580Y-54142856D01*
X140209580Y-54142856D02*
X140114342Y-54190475D01*
X140114342Y-54190475D02*
X139923866Y-54238094D01*
X139923866Y-54238094D02*
X139685771Y-54238094D01*
X139685771Y-54238094D02*
X139495295Y-54190475D01*
X139495295Y-54190475D02*
X139400057Y-54142856D01*
X139400057Y-54142856D02*
X139352438Y-54095237D01*
X139352438Y-54095237D02*
X139304819Y-53999999D01*
X139304819Y-53047618D02*
X139304819Y-52952380D01*
X139304819Y-52952380D02*
X139352438Y-52857142D01*
X139352438Y-52857142D02*
X139400057Y-52809523D01*
X139400057Y-52809523D02*
X139495295Y-52761904D01*
X139495295Y-52761904D02*
X139685771Y-52714285D01*
X139685771Y-52714285D02*
X139923866Y-52714285D01*
X139923866Y-52714285D02*
X140114342Y-52761904D01*
X140114342Y-52761904D02*
X140209580Y-52809523D01*
X140209580Y-52809523D02*
X140257200Y-52857142D01*
X140257200Y-52857142D02*
X140304819Y-52952380D01*
X140304819Y-52952380D02*
X140304819Y-53047618D01*
X140304819Y-53047618D02*
X140257200Y-53142856D01*
X140257200Y-53142856D02*
X140209580Y-53190475D01*
X140209580Y-53190475D02*
X140114342Y-53238094D01*
X140114342Y-53238094D02*
X139923866Y-53285713D01*
X139923866Y-53285713D02*
X139685771Y-53285713D01*
X139685771Y-53285713D02*
X139495295Y-53238094D01*
X139495295Y-53238094D02*
X139400057Y-53190475D01*
X139400057Y-53190475D02*
X139352438Y-53142856D01*
X139352438Y-53142856D02*
X139304819Y-53047618D01*
X139304819Y-52095237D02*
X139304819Y-51999999D01*
X139304819Y-51999999D02*
X139352438Y-51904761D01*
X139352438Y-51904761D02*
X139400057Y-51857142D01*
X139400057Y-51857142D02*
X139495295Y-51809523D01*
X139495295Y-51809523D02*
X139685771Y-51761904D01*
X139685771Y-51761904D02*
X139923866Y-51761904D01*
X139923866Y-51761904D02*
X140114342Y-51809523D01*
X140114342Y-51809523D02*
X140209580Y-51857142D01*
X140209580Y-51857142D02*
X140257200Y-51904761D01*
X140257200Y-51904761D02*
X140304819Y-51999999D01*
X140304819Y-51999999D02*
X140304819Y-52095237D01*
X140304819Y-52095237D02*
X140257200Y-52190475D01*
X140257200Y-52190475D02*
X140209580Y-52238094D01*
X140209580Y-52238094D02*
X140114342Y-52285713D01*
X140114342Y-52285713D02*
X139923866Y-52333332D01*
X139923866Y-52333332D02*
X139685771Y-52333332D01*
X139685771Y-52333332D02*
X139495295Y-52285713D01*
X139495295Y-52285713D02*
X139400057Y-52238094D01*
X139400057Y-52238094D02*
X139352438Y-52190475D01*
X139352438Y-52190475D02*
X139304819Y-52095237D01*
X139304819Y-51142856D02*
X139304819Y-51047618D01*
X139304819Y-51047618D02*
X139352438Y-50952380D01*
X139352438Y-50952380D02*
X139400057Y-50904761D01*
X139400057Y-50904761D02*
X139495295Y-50857142D01*
X139495295Y-50857142D02*
X139685771Y-50809523D01*
X139685771Y-50809523D02*
X139923866Y-50809523D01*
X139923866Y-50809523D02*
X140114342Y-50857142D01*
X140114342Y-50857142D02*
X140209580Y-50904761D01*
X140209580Y-50904761D02*
X140257200Y-50952380D01*
X140257200Y-50952380D02*
X140304819Y-51047618D01*
X140304819Y-51047618D02*
X140304819Y-51142856D01*
X140304819Y-51142856D02*
X140257200Y-51238094D01*
X140257200Y-51238094D02*
X140209580Y-51285713D01*
X140209580Y-51285713D02*
X140114342Y-51333332D01*
X140114342Y-51333332D02*
X139923866Y-51380951D01*
X139923866Y-51380951D02*
X139685771Y-51380951D01*
X139685771Y-51380951D02*
X139495295Y-51333332D01*
X139495295Y-51333332D02*
X139400057Y-51285713D01*
X139400057Y-51285713D02*
X139352438Y-51238094D01*
X139352438Y-51238094D02*
X139304819Y-51142856D01*
X140304819Y-49619046D02*
X139638152Y-49619046D01*
X139733390Y-49619046D02*
X139685771Y-49571427D01*
X139685771Y-49571427D02*
X139638152Y-49476189D01*
X139638152Y-49476189D02*
X139638152Y-49333332D01*
X139638152Y-49333332D02*
X139685771Y-49238094D01*
X139685771Y-49238094D02*
X139781009Y-49190475D01*
X139781009Y-49190475D02*
X140304819Y-49190475D01*
X139781009Y-49190475D02*
X139685771Y-49142856D01*
X139685771Y-49142856D02*
X139638152Y-49047618D01*
X139638152Y-49047618D02*
X139638152Y-48904761D01*
X139638152Y-48904761D02*
X139685771Y-48809522D01*
X139685771Y-48809522D02*
X139781009Y-48761903D01*
X139781009Y-48761903D02*
X140304819Y-48761903D01*
X140304819Y-48285713D02*
X139638152Y-48285713D01*
X139733390Y-48285713D02*
X139685771Y-48238094D01*
X139685771Y-48238094D02*
X139638152Y-48142856D01*
X139638152Y-48142856D02*
X139638152Y-47999999D01*
X139638152Y-47999999D02*
X139685771Y-47904761D01*
X139685771Y-47904761D02*
X139781009Y-47857142D01*
X139781009Y-47857142D02*
X140304819Y-47857142D01*
X139781009Y-47857142D02*
X139685771Y-47809523D01*
X139685771Y-47809523D02*
X139638152Y-47714285D01*
X139638152Y-47714285D02*
X139638152Y-47571428D01*
X139638152Y-47571428D02*
X139685771Y-47476189D01*
X139685771Y-47476189D02*
X139781009Y-47428570D01*
X139781009Y-47428570D02*
X140304819Y-47428570D01*
X134500000Y-86000000D02*
X141586420Y-86000000D01*
X141586420Y-18000000D02*
X134500000Y-18000000D01*
X141000000Y-86000000D02*
X141000000Y-18000000D01*
X141000000Y-86000000D02*
X141000000Y-18000000D01*
X141000000Y-86000000D02*
X140413579Y-84873496D01*
X141000000Y-86000000D02*
X141586421Y-84873496D01*
X141000000Y-18000000D02*
X141586421Y-19126504D01*
X141000000Y-18000000D02*
X140413579Y-19126504D01*
X141000000Y-86000000D02*
X141000000Y-18000000D01*
X141000000Y-86000000D02*
X141000000Y-18000000D01*
X141000000Y-86000000D02*
X140413579Y-84873496D01*
X141000000Y-86000000D02*
X141586421Y-84873496D01*
X141000000Y-18000000D02*
X141586421Y-19126504D01*
X141000000Y-18000000D02*
X140413579Y-19126504D01*
X40438152Y-62142856D02*
X41104819Y-62142856D01*
X40057200Y-62380951D02*
X40771485Y-62619046D01*
X40771485Y-62619046D02*
X40771485Y-61999999D01*
X40104819Y-61428570D02*
X40104819Y-61333332D01*
X40104819Y-61333332D02*
X40152438Y-61238094D01*
X40152438Y-61238094D02*
X40200057Y-61190475D01*
X40200057Y-61190475D02*
X40295295Y-61142856D01*
X40295295Y-61142856D02*
X40485771Y-61095237D01*
X40485771Y-61095237D02*
X40723866Y-61095237D01*
X40723866Y-61095237D02*
X40914342Y-61142856D01*
X40914342Y-61142856D02*
X41009580Y-61190475D01*
X41009580Y-61190475D02*
X41057200Y-61238094D01*
X41057200Y-61238094D02*
X41104819Y-61333332D01*
X41104819Y-61333332D02*
X41104819Y-61428570D01*
X41104819Y-61428570D02*
X41057200Y-61523808D01*
X41057200Y-61523808D02*
X41009580Y-61571427D01*
X41009580Y-61571427D02*
X40914342Y-61619046D01*
X40914342Y-61619046D02*
X40723866Y-61666665D01*
X40723866Y-61666665D02*
X40485771Y-61666665D01*
X40485771Y-61666665D02*
X40295295Y-61619046D01*
X40295295Y-61619046D02*
X40200057Y-61571427D01*
X40200057Y-61571427D02*
X40152438Y-61523808D01*
X40152438Y-61523808D02*
X40104819Y-61428570D01*
X41009580Y-60666665D02*
X41057200Y-60619046D01*
X41057200Y-60619046D02*
X41104819Y-60666665D01*
X41104819Y-60666665D02*
X41057200Y-60714284D01*
X41057200Y-60714284D02*
X41009580Y-60666665D01*
X41009580Y-60666665D02*
X41104819Y-60666665D01*
X40104819Y-59999999D02*
X40104819Y-59904761D01*
X40104819Y-59904761D02*
X40152438Y-59809523D01*
X40152438Y-59809523D02*
X40200057Y-59761904D01*
X40200057Y-59761904D02*
X40295295Y-59714285D01*
X40295295Y-59714285D02*
X40485771Y-59666666D01*
X40485771Y-59666666D02*
X40723866Y-59666666D01*
X40723866Y-59666666D02*
X40914342Y-59714285D01*
X40914342Y-59714285D02*
X41009580Y-59761904D01*
X41009580Y-59761904D02*
X41057200Y-59809523D01*
X41057200Y-59809523D02*
X41104819Y-59904761D01*
X41104819Y-59904761D02*
X41104819Y-59999999D01*
X41104819Y-59999999D02*
X41057200Y-60095237D01*
X41057200Y-60095237D02*
X41009580Y-60142856D01*
X41009580Y-60142856D02*
X40914342Y-60190475D01*
X40914342Y-60190475D02*
X40723866Y-60238094D01*
X40723866Y-60238094D02*
X40485771Y-60238094D01*
X40485771Y-60238094D02*
X40295295Y-60190475D01*
X40295295Y-60190475D02*
X40200057Y-60142856D01*
X40200057Y-60142856D02*
X40152438Y-60095237D01*
X40152438Y-60095237D02*
X40104819Y-59999999D01*
X40104819Y-59047618D02*
X40104819Y-58952380D01*
X40104819Y-58952380D02*
X40152438Y-58857142D01*
X40152438Y-58857142D02*
X40200057Y-58809523D01*
X40200057Y-58809523D02*
X40295295Y-58761904D01*
X40295295Y-58761904D02*
X40485771Y-58714285D01*
X40485771Y-58714285D02*
X40723866Y-58714285D01*
X40723866Y-58714285D02*
X40914342Y-58761904D01*
X40914342Y-58761904D02*
X41009580Y-58809523D01*
X41009580Y-58809523D02*
X41057200Y-58857142D01*
X41057200Y-58857142D02*
X41104819Y-58952380D01*
X41104819Y-58952380D02*
X41104819Y-59047618D01*
X41104819Y-59047618D02*
X41057200Y-59142856D01*
X41057200Y-59142856D02*
X41009580Y-59190475D01*
X41009580Y-59190475D02*
X40914342Y-59238094D01*
X40914342Y-59238094D02*
X40723866Y-59285713D01*
X40723866Y-59285713D02*
X40485771Y-59285713D01*
X40485771Y-59285713D02*
X40295295Y-59238094D01*
X40295295Y-59238094D02*
X40200057Y-59190475D01*
X40200057Y-59190475D02*
X40152438Y-59142856D01*
X40152438Y-59142856D02*
X40104819Y-59047618D01*
X40104819Y-58095237D02*
X40104819Y-57999999D01*
X40104819Y-57999999D02*
X40152438Y-57904761D01*
X40152438Y-57904761D02*
X40200057Y-57857142D01*
X40200057Y-57857142D02*
X40295295Y-57809523D01*
X40295295Y-57809523D02*
X40485771Y-57761904D01*
X40485771Y-57761904D02*
X40723866Y-57761904D01*
X40723866Y-57761904D02*
X40914342Y-57809523D01*
X40914342Y-57809523D02*
X41009580Y-57857142D01*
X41009580Y-57857142D02*
X41057200Y-57904761D01*
X41057200Y-57904761D02*
X41104819Y-57999999D01*
X41104819Y-57999999D02*
X41104819Y-58095237D01*
X41104819Y-58095237D02*
X41057200Y-58190475D01*
X41057200Y-58190475D02*
X41009580Y-58238094D01*
X41009580Y-58238094D02*
X40914342Y-58285713D01*
X40914342Y-58285713D02*
X40723866Y-58333332D01*
X40723866Y-58333332D02*
X40485771Y-58333332D01*
X40485771Y-58333332D02*
X40295295Y-58285713D01*
X40295295Y-58285713D02*
X40200057Y-58238094D01*
X40200057Y-58238094D02*
X40152438Y-58190475D01*
X40152438Y-58190475D02*
X40104819Y-58095237D01*
X40104819Y-57142856D02*
X40104819Y-57047618D01*
X40104819Y-57047618D02*
X40152438Y-56952380D01*
X40152438Y-56952380D02*
X40200057Y-56904761D01*
X40200057Y-56904761D02*
X40295295Y-56857142D01*
X40295295Y-56857142D02*
X40485771Y-56809523D01*
X40485771Y-56809523D02*
X40723866Y-56809523D01*
X40723866Y-56809523D02*
X40914342Y-56857142D01*
X40914342Y-56857142D02*
X41009580Y-56904761D01*
X41009580Y-56904761D02*
X41057200Y-56952380D01*
X41057200Y-56952380D02*
X41104819Y-57047618D01*
X41104819Y-57047618D02*
X41104819Y-57142856D01*
X41104819Y-57142856D02*
X41057200Y-57238094D01*
X41057200Y-57238094D02*
X41009580Y-57285713D01*
X41009580Y-57285713D02*
X40914342Y-57333332D01*
X40914342Y-57333332D02*
X40723866Y-57380951D01*
X40723866Y-57380951D02*
X40485771Y-57380951D01*
X40485771Y-57380951D02*
X40295295Y-57333332D01*
X40295295Y-57333332D02*
X40200057Y-57285713D01*
X40200057Y-57285713D02*
X40152438Y-57238094D01*
X40152438Y-57238094D02*
X40104819Y-57142856D01*
X41104819Y-55619046D02*
X40438152Y-55619046D01*
X40533390Y-55619046D02*
X40485771Y-55571427D01*
X40485771Y-55571427D02*
X40438152Y-55476189D01*
X40438152Y-55476189D02*
X40438152Y-55333332D01*
X40438152Y-55333332D02*
X40485771Y-55238094D01*
X40485771Y-55238094D02*
X40581009Y-55190475D01*
X40581009Y-55190475D02*
X41104819Y-55190475D01*
X40581009Y-55190475D02*
X40485771Y-55142856D01*
X40485771Y-55142856D02*
X40438152Y-55047618D01*
X40438152Y-55047618D02*
X40438152Y-54904761D01*
X40438152Y-54904761D02*
X40485771Y-54809522D01*
X40485771Y-54809522D02*
X40581009Y-54761903D01*
X40581009Y-54761903D02*
X41104819Y-54761903D01*
X41104819Y-54285713D02*
X40438152Y-54285713D01*
X40533390Y-54285713D02*
X40485771Y-54238094D01*
X40485771Y-54238094D02*
X40438152Y-54142856D01*
X40438152Y-54142856D02*
X40438152Y-53999999D01*
X40438152Y-53999999D02*
X40485771Y-53904761D01*
X40485771Y-53904761D02*
X40581009Y-53857142D01*
X40581009Y-53857142D02*
X41104819Y-53857142D01*
X40581009Y-53857142D02*
X40485771Y-53809523D01*
X40485771Y-53809523D02*
X40438152Y-53714285D01*
X40438152Y-53714285D02*
X40438152Y-53571428D01*
X40438152Y-53571428D02*
X40485771Y-53476189D01*
X40485771Y-53476189D02*
X40581009Y-53428570D01*
X40581009Y-53428570D02*
X41104819Y-53428570D01*
X54500000Y-78000000D02*
X41213580Y-78000000D01*
X41213580Y-38000000D02*
X54500000Y-38000000D01*
X41800000Y-78000000D02*
X41800000Y-38000000D01*
X41800000Y-78000000D02*
X41800000Y-38000000D01*
X41800000Y-78000000D02*
X41213579Y-76873496D01*
X41800000Y-78000000D02*
X42386421Y-76873496D01*
X41800000Y-38000000D02*
X42386421Y-39126504D01*
X41800000Y-38000000D02*
X41213579Y-39126504D01*
X41800000Y-78000000D02*
X41800000Y-38000000D01*
X41800000Y-78000000D02*
X41800000Y-38000000D01*
X41800000Y-78000000D02*
X41213579Y-76873496D01*
X41800000Y-78000000D02*
X42386421Y-76873496D01*
X41800000Y-38000000D02*
X42386421Y-39126504D01*
X41800000Y-38000000D02*
X41213579Y-39126504D01*
X46804819Y-76297618D02*
X46804819Y-76869046D01*
X46804819Y-76583332D02*
X45804819Y-76583332D01*
X45804819Y-76583332D02*
X45947676Y-76678570D01*
X45947676Y-76678570D02*
X46042914Y-76773808D01*
X46042914Y-76773808D02*
X46090533Y-76869046D01*
X46804819Y-75345237D02*
X46804819Y-75916665D01*
X46804819Y-75630951D02*
X45804819Y-75630951D01*
X45804819Y-75630951D02*
X45947676Y-75726189D01*
X45947676Y-75726189D02*
X46042914Y-75821427D01*
X46042914Y-75821427D02*
X46090533Y-75916665D01*
X46709580Y-74916665D02*
X46757200Y-74869046D01*
X46757200Y-74869046D02*
X46804819Y-74916665D01*
X46804819Y-74916665D02*
X46757200Y-74964284D01*
X46757200Y-74964284D02*
X46709580Y-74916665D01*
X46709580Y-74916665D02*
X46804819Y-74916665D01*
X45804819Y-73964285D02*
X45804819Y-74440475D01*
X45804819Y-74440475D02*
X46281009Y-74488094D01*
X46281009Y-74488094D02*
X46233390Y-74440475D01*
X46233390Y-74440475D02*
X46185771Y-74345237D01*
X46185771Y-74345237D02*
X46185771Y-74107142D01*
X46185771Y-74107142D02*
X46233390Y-74011904D01*
X46233390Y-74011904D02*
X46281009Y-73964285D01*
X46281009Y-73964285D02*
X46376247Y-73916666D01*
X46376247Y-73916666D02*
X46614342Y-73916666D01*
X46614342Y-73916666D02*
X46709580Y-73964285D01*
X46709580Y-73964285D02*
X46757200Y-74011904D01*
X46757200Y-74011904D02*
X46804819Y-74107142D01*
X46804819Y-74107142D02*
X46804819Y-74345237D01*
X46804819Y-74345237D02*
X46757200Y-74440475D01*
X46757200Y-74440475D02*
X46709580Y-74488094D01*
X45804819Y-73297618D02*
X45804819Y-73202380D01*
X45804819Y-73202380D02*
X45852438Y-73107142D01*
X45852438Y-73107142D02*
X45900057Y-73059523D01*
X45900057Y-73059523D02*
X45995295Y-73011904D01*
X45995295Y-73011904D02*
X46185771Y-72964285D01*
X46185771Y-72964285D02*
X46423866Y-72964285D01*
X46423866Y-72964285D02*
X46614342Y-73011904D01*
X46614342Y-73011904D02*
X46709580Y-73059523D01*
X46709580Y-73059523D02*
X46757200Y-73107142D01*
X46757200Y-73107142D02*
X46804819Y-73202380D01*
X46804819Y-73202380D02*
X46804819Y-73297618D01*
X46804819Y-73297618D02*
X46757200Y-73392856D01*
X46757200Y-73392856D02*
X46709580Y-73440475D01*
X46709580Y-73440475D02*
X46614342Y-73488094D01*
X46614342Y-73488094D02*
X46423866Y-73535713D01*
X46423866Y-73535713D02*
X46185771Y-73535713D01*
X46185771Y-73535713D02*
X45995295Y-73488094D01*
X45995295Y-73488094D02*
X45900057Y-73440475D01*
X45900057Y-73440475D02*
X45852438Y-73392856D01*
X45852438Y-73392856D02*
X45804819Y-73297618D01*
X45804819Y-72345237D02*
X45804819Y-72249999D01*
X45804819Y-72249999D02*
X45852438Y-72154761D01*
X45852438Y-72154761D02*
X45900057Y-72107142D01*
X45900057Y-72107142D02*
X45995295Y-72059523D01*
X45995295Y-72059523D02*
X46185771Y-72011904D01*
X46185771Y-72011904D02*
X46423866Y-72011904D01*
X46423866Y-72011904D02*
X46614342Y-72059523D01*
X46614342Y-72059523D02*
X46709580Y-72107142D01*
X46709580Y-72107142D02*
X46757200Y-72154761D01*
X46757200Y-72154761D02*
X46804819Y-72249999D01*
X46804819Y-72249999D02*
X46804819Y-72345237D01*
X46804819Y-72345237D02*
X46757200Y-72440475D01*
X46757200Y-72440475D02*
X46709580Y-72488094D01*
X46709580Y-72488094D02*
X46614342Y-72535713D01*
X46614342Y-72535713D02*
X46423866Y-72583332D01*
X46423866Y-72583332D02*
X46185771Y-72583332D01*
X46185771Y-72583332D02*
X45995295Y-72535713D01*
X45995295Y-72535713D02*
X45900057Y-72488094D01*
X45900057Y-72488094D02*
X45852438Y-72440475D01*
X45852438Y-72440475D02*
X45804819Y-72345237D01*
X45804819Y-71392856D02*
X45804819Y-71297618D01*
X45804819Y-71297618D02*
X45852438Y-71202380D01*
X45852438Y-71202380D02*
X45900057Y-71154761D01*
X45900057Y-71154761D02*
X45995295Y-71107142D01*
X45995295Y-71107142D02*
X46185771Y-71059523D01*
X46185771Y-71059523D02*
X46423866Y-71059523D01*
X46423866Y-71059523D02*
X46614342Y-71107142D01*
X46614342Y-71107142D02*
X46709580Y-71154761D01*
X46709580Y-71154761D02*
X46757200Y-71202380D01*
X46757200Y-71202380D02*
X46804819Y-71297618D01*
X46804819Y-71297618D02*
X46804819Y-71392856D01*
X46804819Y-71392856D02*
X46757200Y-71488094D01*
X46757200Y-71488094D02*
X46709580Y-71535713D01*
X46709580Y-71535713D02*
X46614342Y-71583332D01*
X46614342Y-71583332D02*
X46423866Y-71630951D01*
X46423866Y-71630951D02*
X46185771Y-71630951D01*
X46185771Y-71630951D02*
X45995295Y-71583332D01*
X45995295Y-71583332D02*
X45900057Y-71535713D01*
X45900057Y-71535713D02*
X45852438Y-71488094D01*
X45852438Y-71488094D02*
X45804819Y-71392856D01*
X46804819Y-69869046D02*
X46138152Y-69869046D01*
X46233390Y-69869046D02*
X46185771Y-69821427D01*
X46185771Y-69821427D02*
X46138152Y-69726189D01*
X46138152Y-69726189D02*
X46138152Y-69583332D01*
X46138152Y-69583332D02*
X46185771Y-69488094D01*
X46185771Y-69488094D02*
X46281009Y-69440475D01*
X46281009Y-69440475D02*
X46804819Y-69440475D01*
X46281009Y-69440475D02*
X46185771Y-69392856D01*
X46185771Y-69392856D02*
X46138152Y-69297618D01*
X46138152Y-69297618D02*
X46138152Y-69154761D01*
X46138152Y-69154761D02*
X46185771Y-69059522D01*
X46185771Y-69059522D02*
X46281009Y-69011903D01*
X46281009Y-69011903D02*
X46804819Y-69011903D01*
X46804819Y-68535713D02*
X46138152Y-68535713D01*
X46233390Y-68535713D02*
X46185771Y-68488094D01*
X46185771Y-68488094D02*
X46138152Y-68392856D01*
X46138152Y-68392856D02*
X46138152Y-68249999D01*
X46138152Y-68249999D02*
X46185771Y-68154761D01*
X46185771Y-68154761D02*
X46281009Y-68107142D01*
X46281009Y-68107142D02*
X46804819Y-68107142D01*
X46281009Y-68107142D02*
X46185771Y-68059523D01*
X46185771Y-68059523D02*
X46138152Y-67964285D01*
X46138152Y-67964285D02*
X46138152Y-67821428D01*
X46138152Y-67821428D02*
X46185771Y-67726189D01*
X46185771Y-67726189D02*
X46281009Y-67678570D01*
X46281009Y-67678570D02*
X46804819Y-67678570D01*
X54500000Y-78000000D02*
X46913580Y-78000000D01*
X46913580Y-66500000D02*
X54500000Y-66500000D01*
X47500000Y-78000000D02*
X47500000Y-66500000D01*
X47500000Y-78000000D02*
X47500000Y-66500000D01*
X47500000Y-78000000D02*
X46913579Y-76873496D01*
X47500000Y-78000000D02*
X48086421Y-76873496D01*
X47500000Y-66500000D02*
X48086421Y-67626504D01*
X47500000Y-66500000D02*
X46913579Y-67626504D01*
X47500000Y-78000000D02*
X47500000Y-66500000D01*
X47500000Y-78000000D02*
X47500000Y-66500000D01*
X47500000Y-78000000D02*
X46913579Y-76873496D01*
X47500000Y-78000000D02*
X48086421Y-76873496D01*
X47500000Y-66500000D02*
X48086421Y-67626504D01*
X47500000Y-66500000D02*
X46913579Y-67626504D01*
D11*
X138000000Y-195500000D02*
X138000000Y-14500000D01*
X136500000Y-13000000D02*
X50500000Y-13000000D01*
X136500000Y-13000000D02*
G75*
G02*
X138000000Y-14500000I0J-1500000D01*
G01*
X138000000Y-195500000D02*
G75*
G02*
X136500000Y-197000000I-1500000J0D01*
G01*
X50500000Y-197000000D02*
G75*
G02*
X49000000Y-195500000I0J1500000D01*
G01*
X50500000Y-197000000D02*
X136500000Y-197000000D01*
X49000000Y-14500000D02*
G75*
G02*
X50500000Y-13000000I1500000J0D01*
G01*
X49000000Y-14500000D02*
X49000000Y-195500000D01*
M02*
