M48
; DRILL file {KiCad 9.0.2} date 2025-06-03T19:19:23+0200
; FORMAT={-:-/ absolute / inch / decimal}
; #@! TF.CreationDate,2025-06-03T19:19:23+02:00
; #@! TF.GenerationSoftware,Kicad,Pcbnew,9.0.2
; #@! TF.FileFunction,Plated,1,6,PTH
FMAT,2
INCH
; #@! TA.AperFunction,Plated,PTH,ViaDrill
T1C0.0118
; #@! TA.AperFunction,Plated,PTH,ComponentDrill
T2C0.0118
; #@! TA.AperFunction,Plated,PTH,ViaDrill
T3C0.0157
; #@! TA.AperFunction,Plated,PTH,ComponentDrill
T4C0.0197
; #@! TA.AperFunction,Plated,PTH,ViaDrill
T5C0.0236
; #@! TA.AperFunction,Plated,PTH,ComponentDrill
T6C0.0236
; #@! TA.AperFunction,Plated,PTH,ComponentDrill
T7C0.0256
; #@! TA.AperFunction,Plated,PTH,ComponentDrill
T8C0.0394
; #@! TA.AperFunction,Plated,PTH,ComponentDrill
T9C0.0402
; #@! TA.AperFunction,Plated,PTH,ComponentDrill
T10C0.0701
; #@! TA.AperFunction,Plated,PTH,ComponentDrill
T11C0.1063
; #@! TA.AperFunction,Plated,PTH,ComponentDrill
T12C0.1260
%
G90
G05
T1
X2.3031Y-1.937
X2.3071Y-2.3386
X2.3246Y-2.262
X2.3504Y-1.9921
X2.3547Y-2.1774
X2.3898Y-2.2441
X2.4055Y-1.9449
X2.7244Y-1.937
X2.7402Y-2.2677
X2.7402Y-2.3415
X2.7717Y-2.0012
X2.7729Y-2.1956
X2.811Y-2.2459
X2.8245Y-1.9425
X3.0535Y-5.2815
X3.0669Y-2.1457
X3.0669Y-2.3937
X3.0669Y-5.8701
X3.0677Y-5.7504
X3.0685Y-5.6323
X3.0744Y-6.3469
X3.0748Y-6.2677
X3.0866Y-2.4291
X3.1102Y-2.4724
X3.1181Y-5.2283
X3.1415Y-5.6315
X3.1415Y-5.8665
X3.1415Y-6.2677
X3.1496Y-1.937
X3.1496Y-5.1256
X3.1614Y-2.2677
X3.1654Y-2.3425
X3.1654Y-5.0669
X3.1731Y-5.7835
X3.1878Y-5.2795
X3.1976Y-2.1781
X3.1979Y-2.0
X3.2008Y-6.3386
X3.2028Y-5.6339
X3.2031Y-5.8685
X3.2059Y-6.263
X3.2205Y-5.0157
X3.2231Y-5.1746
X3.2283Y-5.1256
X3.2331Y-2.2451
X3.2427Y-1.9424
X3.2626Y-5.8457
X3.2642Y-5.7953
X3.2676Y-5.1712
X3.3035Y-6.3315
X3.3035Y-5.6968
X3.315Y-5.1732
X3.3339Y-6.3457
X3.3602Y-5.6512
X3.376Y-6.3224
X3.4016Y-5.0197
X3.4057Y-5.8425
X3.4252Y-4.9882
X3.426Y-6.2587
X3.4271Y-5.2402
X3.4291Y-5.6378
X3.4291Y-5.8724
X3.4567Y-5.8555
X3.4572Y-5.2305
X3.463Y-6.263
X3.4722Y-5.6459
X3.485Y-5.8736
X3.4882Y-5.0118
X3.4996Y-5.6328
X3.5016Y-5.2362
X3.5031Y-5.5925
X3.5031Y-5.9126
X3.5031Y-6.2177
X3.5071Y-5.2803
X3.5118Y-6.2677
X3.5551Y-1.9606
X3.6496Y-1.9252
X3.6535Y-1.9966
X3.6535Y-2.1417
X3.661Y-5.8276
X3.6618Y-5.6803
X3.6772Y-3.687
X3.7008Y-2.3031
X3.7146Y-3.6496
X3.7185Y-5.7205
X3.7185Y-5.7795
X3.7205Y-2.063
X3.7402Y-2.0276
X3.7402Y-2.0947
X3.748Y-2.376
X3.752Y-1.9094
X3.7835Y-2.3031
X3.8091Y-3.6299
X3.811Y-3.4606
X3.811Y-6.2598
X3.8146Y-5.2356
X3.8176Y-6.2147
X3.8188Y-5.5833
X3.8189Y-5.6378
X3.8193Y-5.2811
X3.8201Y-5.9106
X3.826Y-5.8583
X3.8268Y-1.7047
X3.8532Y-2.1905
X3.8596Y-6.2661
X3.8602Y-5.8514
X3.8606Y-5.6398
X3.8638Y-5.234
X3.8858Y-2.2126
X3.8907Y-5.866
X3.8937Y-5.6496
X3.8938Y-6.2581
X3.8976Y-2.3228
X3.9016Y-1.8622
X3.9055Y-1.7047
X3.9055Y-2.7126
X3.9134Y-2.2323
X3.9144Y-5.8423
X3.9173Y-3.3287
X3.9213Y-3.6713
X3.9338Y-1.8824
X3.9421Y-6.3766
X3.9449Y-1.7835
X3.9476Y-5.2287
X3.9528Y-2.4488
X3.9528Y-3.4598
X3.9587Y-5.6512
X3.9764Y-2.4921
X3.9843Y-3.6673
X3.9846Y-1.7079
X4.022Y-6.2807
X4.0401Y-2.3189
X4.0402Y-5.6646
X4.0441Y-5.2283
X4.0441Y-5.8
X4.0551Y-3.3287
X4.0591Y-3.6713
X4.0604Y-1.7087
X4.063Y-2.4488
X4.0669Y-1.8701
X4.0906Y-6.3425
X4.0915Y-2.094
X4.0965Y-1.7835
X4.0984Y-1.6417
X4.1043Y-6.261
X4.1094Y-5.8654
X4.1142Y-2.7087
X4.1189Y-5.6246
X4.1256Y-5.2362
X4.1287Y-5.1024
X4.1327Y-5.2795
X4.1378Y-2.813
X4.1417Y-1.7077
X4.1548Y-5.6976
X4.1693Y-3.4614
X4.1815Y-6.263
X4.1827Y-5.835
X4.1839Y-5.6268
X4.185Y-2.3386
X4.189Y-2.9252
X4.2136Y-1.7077
X4.2168Y-5.6899
X4.2209Y-5.8705
X4.2303Y-2.4606
X4.2323Y-1.9685
X4.2323Y-2.0472
X4.2335Y-6.3425
X4.2411Y-2.28
X4.2441Y-1.8898
X4.2484Y-6.2634
X4.252Y-2.6555
X4.2528Y-5.628
X4.2539Y-2.8543
X4.2618Y-5.2768
X4.2717Y-1.9685
X4.2717Y-2.5394
X4.2953Y-2.6024
X4.3071Y-1.9094
X4.3189Y-2.4488
X4.3425Y-1.8425
X4.4134Y-4.9646
X4.4488Y-4.9961
X4.4724Y-4.9331
X4.4724Y-5.7787
X4.4921Y-3.6496
X4.5236Y-5.748
X4.5394Y-3.4646
X4.5394Y-3.5394
X4.5453Y-3.3858
X4.5866Y-5.7205
X4.5945Y-0.7717
X4.5984Y-2.7677
X4.6024Y-2.815
X4.6102Y-2.7283
X4.6634Y-1.4961
X4.7087Y-2.8169
X4.7441Y-1.4921
X4.7598Y-2.9252
X4.7913Y-3.3071
X4.8425Y-3.3346
X4.9252Y-3.2165
X4.9331Y-3.2835
X5.0591Y-2.5394
X5.1063Y-2.4488
X5.2087Y-1.2598
T2
X2.3819Y-2.0945
X2.4244Y-2.0433
X2.4244Y-2.0945
X2.4244Y-2.1457
X2.4764Y-2.0433
X2.4764Y-2.0945
X2.4764Y-2.1457
X2.5283Y-2.0433
X2.5283Y-2.0945
X2.5283Y-2.1457
X2.5709Y-2.0945
X2.8031Y-2.0945
X2.8457Y-2.0433
X2.8457Y-2.0945
X2.8457Y-2.1457
X2.8976Y-2.0433
X2.8976Y-2.0945
X2.8976Y-2.1457
X2.9496Y-2.0433
X2.9496Y-2.0945
X2.9496Y-2.1457
X2.9921Y-2.0945
X3.2244Y-2.0945
X3.2669Y-2.0433
X3.2669Y-2.0945
X3.2669Y-2.1457
X3.3189Y-2.0433
X3.3189Y-2.0945
X3.3189Y-2.1457
X3.3709Y-2.0433
X3.3709Y-2.0945
X3.3709Y-2.1457
X3.4134Y-2.0945
X3.8551Y-1.9744
X3.8551Y-2.0138
X3.8551Y-2.0531
X3.8551Y-2.0925
X3.8944Y-1.9744
X3.8944Y-2.0138
X3.8944Y-2.0531
X3.8944Y-2.0925
X3.9338Y-1.9744
X3.9338Y-2.0138
X3.9338Y-2.0531
X3.9338Y-2.0925
X3.9732Y-1.9744
X3.9732Y-2.0138
X3.9732Y-2.0531
X3.9732Y-2.0925
T3
X2.3307Y-1.6187
X2.3307Y-1.6581
X2.3307Y-1.6974
X2.3307Y-1.7368
X2.3307Y-1.7762
X2.3327Y-1.5793
X2.3386Y-2.8937
X2.3386Y-2.9331
X2.3386Y-2.9724
X2.3386Y-3.0197
X2.3386Y-3.0591
X2.3386Y-3.0984
X2.3386Y-3.1457
X2.3386Y-3.185
X2.3386Y-3.2244
X2.4213Y-1.5789
X2.4213Y-1.6183
X2.4213Y-1.6577
X2.4213Y-1.697
X2.4213Y-1.7364
X2.4213Y-1.7758
X2.6732Y-1.8858
X2.7018Y-2.8937
X2.7018Y-2.9331
X2.7018Y-2.9724
X2.7018Y-3.0197
X2.7018Y-3.0591
X2.7018Y-3.0984
X2.7018Y-3.1457
X2.7018Y-3.185
X2.7018Y-3.2244
X2.7165Y-1.5787
X2.7165Y-1.6181
X2.7165Y-1.6575
X2.7165Y-1.6969
X2.7165Y-1.7362
X2.7165Y-1.7756
X2.7559Y-1.5787
X2.7559Y-1.6181
X2.7559Y-1.6575
X2.7559Y-1.6969
X2.7559Y-1.7362
X2.7559Y-1.7756
X2.7598Y-3.0197
X2.7598Y-3.0591
X2.7598Y-3.0984
X2.7608Y-2.8937
X2.7608Y-2.9331
X2.7608Y-2.9724
X2.7608Y-3.1457
X2.7608Y-3.185
X2.7608Y-3.2244
X3.0945Y-1.8858
X3.125Y-3.0197
X3.125Y-3.0591
X3.125Y-3.0984
X3.126Y-2.8937
X3.126Y-2.9331
X3.126Y-2.9724
X3.126Y-3.1457
X3.126Y-3.185
X3.126Y-3.2244
X3.1378Y-1.5787
X3.1378Y-1.6181
X3.1378Y-1.6575
X3.1378Y-1.6969
X3.1378Y-1.7362
X3.1378Y-1.7756
X3.1772Y-1.5787
X3.1772Y-1.6181
X3.1772Y-1.6575
X3.1772Y-1.6969
X3.1772Y-1.7362
X3.1772Y-1.7756
X3.1841Y-3.0197
X3.1841Y-3.0591
X3.1841Y-3.0984
X3.185Y-2.8937
X3.185Y-2.9331
X3.185Y-2.9724
X3.185Y-3.1457
X3.185Y-3.185
X3.185Y-3.2244
X3.2031Y-5.9512
X3.2031Y-6.0024
X3.2031Y-6.0378
X3.2031Y-6.089
X3.2031Y-6.1205
X3.2031Y-6.1717
X3.2047Y-5.3228
X3.2047Y-5.374
X3.2047Y-5.4094
X3.2047Y-5.4606
X3.2047Y-5.4921
X3.2047Y-5.5433
X3.2425Y-5.9512
X3.2425Y-6.0024
X3.2425Y-6.0378
X3.2425Y-6.089
X3.2425Y-6.1205
X3.2425Y-6.1717
X3.2441Y-5.3228
X3.2441Y-5.374
X3.2441Y-5.4094
X3.2441Y-5.4606
X3.2441Y-5.4921
X3.2441Y-5.5433
X3.278Y-5.9512
X3.278Y-6.0024
X3.278Y-6.0378
X3.278Y-6.089
X3.278Y-6.1205
X3.278Y-6.1717
X3.2795Y-5.3228
X3.2795Y-5.374
X3.2795Y-5.4094
X3.2795Y-5.4606
X3.2795Y-5.4921
X3.2795Y-5.5433
X3.3173Y-5.9512
X3.3173Y-6.0024
X3.3173Y-6.0378
X3.3173Y-6.089
X3.3173Y-6.1209
X3.3173Y-6.1717
X3.3189Y-5.3228
X3.3189Y-5.374
X3.3189Y-5.4094
X3.3189Y-5.4606
X3.3189Y-5.4921
X3.3189Y-5.5433
X3.3488Y-5.9512
X3.3488Y-6.0024
X3.3488Y-6.0378
X3.3488Y-6.089
X3.3488Y-6.1205
X3.3488Y-6.1717
X3.3504Y-5.3228
X3.3504Y-5.374
X3.3504Y-5.4094
X3.3504Y-5.4606
X3.3504Y-5.4921
X3.3504Y-5.5433
X3.3921Y-5.9512
X3.3921Y-6.0024
X3.3921Y-6.0378
X3.3921Y-6.089
X3.3921Y-6.1205
X3.3921Y-6.1717
X3.3937Y-5.3228
X3.3937Y-5.374
X3.3937Y-5.4094
X3.3937Y-5.4606
X3.3937Y-5.4921
X3.3937Y-5.5433
X3.4315Y-5.9512
X3.4315Y-6.0024
X3.4315Y-6.0378
X3.4315Y-6.089
X3.4315Y-6.1205
X3.4315Y-6.1717
X3.4331Y-5.3228
X3.4331Y-5.374
X3.4331Y-5.4094
X3.4331Y-5.4606
X3.4331Y-5.4921
X3.4331Y-5.5433
X3.4764Y-1.5787
X3.4764Y-1.6181
X3.4764Y-1.6575
X3.4764Y-1.6969
X3.4764Y-1.7362
X3.4764Y-1.7756
X3.4827Y-5.9512
X3.4827Y-6.0024
X3.4827Y-6.0378
X3.4827Y-6.089
X3.4827Y-6.1205
X3.4827Y-6.1717
X3.4843Y-5.3228
X3.4843Y-5.374
X3.4843Y-5.4094
X3.4843Y-5.4606
X3.4843Y-5.4921
X3.4843Y-5.5433
X3.5157Y-1.8858
X3.5482Y-3.0197
X3.5482Y-3.0591
X3.5482Y-3.0984
X3.5482Y-3.1457
X3.5482Y-3.185
X3.5482Y-3.2244
X3.5482Y-3.2874
X3.5482Y-3.3268
X3.5482Y-3.3661
X3.5551Y-2.8937
X3.5551Y-2.9331
X3.5551Y-2.9724
X3.563Y-1.5787
X3.563Y-1.6181
X3.563Y-1.6575
X3.563Y-1.6969
X3.563Y-1.7362
X3.563Y-1.7756
X3.8386Y-5.3228
X3.8386Y-5.374
X3.8386Y-5.4055
X3.8386Y-5.4567
X3.8386Y-5.4921
X3.8386Y-5.5433
X3.8386Y-5.9528
X3.8386Y-6.0039
X3.8386Y-6.0354
X3.8386Y-6.0866
X3.8386Y-6.122
X3.8386Y-6.1732
X3.8898Y-5.3228
X3.8898Y-5.374
X3.8898Y-5.4055
X3.8898Y-5.4567
X3.8898Y-5.4921
X3.8898Y-5.5433
X3.8898Y-5.9528
X3.8898Y-6.0039
X3.8898Y-6.0354
X3.8898Y-6.0866
X3.8898Y-6.122
X3.8898Y-6.1732
X3.9291Y-5.3228
X3.9291Y-5.374
X3.9291Y-5.4055
X3.9291Y-5.4567
X3.9291Y-5.4921
X3.9291Y-5.5433
X3.9291Y-5.9528
X3.9291Y-6.0039
X3.9291Y-6.0354
X3.9291Y-6.0866
X3.9291Y-6.122
X3.9291Y-6.1732
X3.9724Y-5.3228
X3.9724Y-5.374
X3.9724Y-5.4055
X3.9724Y-5.4567
X3.9724Y-5.4921
X3.9724Y-5.5433
X3.9724Y-5.9528
X3.9724Y-6.0039
X3.9724Y-6.0354
X3.9724Y-6.0866
X3.9724Y-6.122
X3.9724Y-6.1732
X3.9843Y-1.3386
X3.9843Y-1.378
X3.9843Y-1.4173
X4.0039Y-5.3228
X4.0039Y-5.374
X4.0039Y-5.4055
X4.0039Y-5.4567
X4.0039Y-5.4921
X4.0039Y-5.5433
X4.0039Y-5.9528
X4.0039Y-6.0039
X4.0039Y-6.0354
X4.0039Y-6.0866
X4.0039Y-6.122
X4.0039Y-6.1732
X4.0315Y-1.2992
X4.0315Y-1.4528
X4.0433Y-5.3228
X4.0433Y-5.374
X4.0433Y-5.4055
X4.0433Y-5.4567
X4.0433Y-5.4921
X4.0433Y-5.5433
X4.0433Y-5.9528
X4.0433Y-6.0039
X4.0433Y-6.0354
X4.0433Y-6.0866
X4.0433Y-6.122
X4.0433Y-6.1732
X4.0709Y-1.2992
X4.0709Y-1.4528
X4.0787Y-5.3228
X4.0787Y-5.374
X4.0787Y-5.4055
X4.0787Y-5.4567
X4.0787Y-5.4921
X4.0787Y-5.5433
X4.0787Y-5.9528
X4.0787Y-6.0039
X4.0787Y-6.0354
X4.0787Y-6.0866
X4.0787Y-6.122
X4.0787Y-6.1732
X4.1102Y-1.2992
X4.1102Y-1.4528
X4.1181Y-5.3228
X4.1181Y-5.374
X4.1181Y-5.4055
X4.1181Y-5.4567
X4.1181Y-5.4921
X4.1181Y-5.5433
X4.1181Y-5.9528
X4.1181Y-6.0039
X4.1181Y-6.0354
X4.1181Y-6.0866
X4.1181Y-6.122
X4.1181Y-6.1732
X4.2008Y-1.2992
X4.2008Y-1.4528
X4.2402Y-1.2992
X4.2402Y-1.4528
X4.2795Y-1.2992
X4.2795Y-1.4528
X4.315Y-1.3386
X4.315Y-1.378
X4.315Y-1.4173
X4.5787Y-0.6535
X4.6339Y-0.6535
X4.685Y-1.0827
X4.685Y-1.1811
X4.8661Y-0.8189
T4
X1.9921Y-0.7087
X1.9921Y-3.3858
X1.9921Y-7.5994
X2.0198Y-0.6418
X2.0198Y-0.7755
X2.0198Y-3.319
X2.0198Y-3.4526
X2.0198Y-7.5326
X2.0198Y-7.6662
X2.0866Y-0.6142
X2.0866Y-0.8031
X2.0866Y-3.2913
X2.0866Y-3.4803
X2.0866Y-7.5049
X2.0866Y-7.6939
X2.1534Y-0.6418
X2.1534Y-0.7755
X2.1534Y-3.319
X2.1534Y-3.4526
X2.1534Y-7.5326
X2.1534Y-7.6662
X2.1811Y-0.7087
X2.1811Y-3.3858
X2.1811Y-7.5994
X5.1811Y-0.7087
X5.1811Y-3.3858
X5.1811Y-7.5994
X5.2088Y-0.6418
X5.2088Y-0.7755
X5.2088Y-3.319
X5.2088Y-3.4526
X5.2088Y-7.5326
X5.2088Y-7.6662
X5.2756Y-0.6142
X5.2756Y-0.8031
X5.2756Y-3.2913
X5.2756Y-3.4803
X5.2756Y-7.5049
X5.2756Y-7.6939
X5.3424Y-0.6418
X5.3424Y-0.7755
X5.3424Y-3.319
X5.3424Y-3.4526
X5.3424Y-7.5326
X5.3424Y-7.6662
X5.3701Y-0.7087
X5.3701Y-3.3858
X5.3701Y-7.5994
T5
X2.0374Y-1.7402
X2.0374Y-1.8189
X2.0374Y-1.8976
X2.0374Y-1.9764
X2.0374Y-2.063
X2.0374Y-2.1417
X2.0374Y-2.2205
X2.0374Y-2.2992
X2.0374Y-2.3976
X2.0374Y-2.4764
X2.0374Y-2.5551
X2.0374Y-2.6339
X2.0374Y-2.7126
X2.0374Y-2.7913
X2.0374Y-4.7244
X2.0374Y-4.8031
X2.0374Y-4.8819
X2.0374Y-4.9606
X2.0374Y-5.0472
X2.0374Y-5.126
X2.0374Y-5.2047
X2.0374Y-5.2835
X2.0374Y-5.3819
X2.0374Y-5.4606
X2.0374Y-5.5394
X2.0374Y-5.6181
X2.0374Y-5.6969
X2.0374Y-5.7756
X2.0374Y-5.8622
X2.0374Y-5.9409
X2.0374Y-6.0197
X2.0374Y-6.0984
X2.0374Y-6.185
X2.0374Y-6.2638
X2.0374Y-6.3425
X2.0374Y-6.4213
X2.0374Y-6.5197
X2.0374Y-6.5984
X2.0374Y-6.6772
X2.0374Y-6.7559
X2.0374Y-6.8346
X2.0374Y-6.9134
X2.4016Y-2.6772
X2.4055Y-3.2835
X2.4055Y-3.4016
X2.4055Y-3.5197
X2.4055Y-3.5787
X2.4803Y-2.6772
X2.4843Y-3.2835
X2.4843Y-3.4016
X2.4843Y-3.5197
X2.4843Y-3.5787
X2.4882Y-2.2746
X2.4882Y-2.378
X2.4882Y-2.5551
X2.5039Y-1.8465
X2.5197Y-2.8543
X2.5197Y-3.1299
X2.5236Y-2.9961
X2.5315Y-1.4409
X2.5591Y-2.6772
X2.563Y-2.2756
X2.563Y-2.378
X2.563Y-2.5551
X2.563Y-3.2835
X2.563Y-3.4016
X2.563Y-3.5197
X2.563Y-3.5787
X2.6102Y-1.4429
X2.6378Y-2.6772
X2.6417Y-3.2835
X2.6417Y-3.4016
X2.6417Y-3.5197
X2.6417Y-3.5787
X2.689Y-1.4429
X2.7677Y-1.4429
X2.8268Y-3.2795
X2.8268Y-3.3976
X2.8268Y-3.5157
X2.8268Y-3.5748
X2.8346Y-2.6772
X2.8543Y-1.4449
X2.9055Y-3.2815
X2.9055Y-3.3996
X2.9055Y-3.5177
X2.9055Y-3.5768
X2.9134Y-2.2756
X2.9134Y-2.378
X2.9134Y-2.5551
X2.9134Y-2.6772
X2.9213Y-1.8465
X2.9331Y-1.4469
X2.9449Y-2.8543
X2.9449Y-2.9961
X2.9449Y-3.126
X2.9843Y-2.2756
X2.9843Y-2.378
X2.9843Y-2.5551
X2.9843Y-3.2815
X2.9843Y-3.3996
X2.9843Y-3.5177
X2.9843Y-3.5768
X2.9921Y-2.6772
X3.0118Y-1.4469
X3.063Y-3.2815
X3.063Y-3.3996
X3.063Y-3.5177
X3.063Y-3.5768
X3.0709Y-2.6772
X3.0906Y-1.4469
X3.189Y-1.4488
X3.2441Y-3.2835
X3.2441Y-3.4016
X3.2441Y-3.5197
X3.2441Y-3.5787
X3.248Y-2.6772
X3.2677Y-1.4508
X3.3228Y-3.2854
X3.3228Y-3.4035
X3.3228Y-3.5217
X3.3228Y-3.5807
X3.3268Y-2.6772
X3.3307Y-2.2756
X3.3307Y-2.378
X3.3307Y-2.5551
X3.3425Y-1.8465
X3.3465Y-1.4508
X3.3661Y-2.8543
X3.3661Y-2.9921
X3.3661Y-3.1299
X3.4016Y-3.5217
X3.4016Y-3.5807
X3.4055Y-2.6772
X3.4134Y-2.2756
X3.4134Y-2.378
X3.4134Y-2.5551
X3.4252Y-1.4508
X3.4803Y-3.5217
X3.4803Y-3.5807
X3.4843Y-2.6772
X3.5039Y-1.4528
X3.5079Y-0.7008
X3.5079Y-0.7953
X3.5079Y-0.874
X3.5079Y-0.9843
X3.5079Y-1.0531
X3.5079Y-1.122
X3.5079Y-1.1811
X3.5827Y-1.4547
X3.5866Y-0.6988
X3.5866Y-1.1831
X3.622Y-5.3504
X3.622Y-5.4094
X3.622Y-5.4685
X3.622Y-5.5276
X3.622Y-5.9764
X3.622Y-6.0354
X3.622Y-6.0945
X3.622Y-6.1535
X3.6654Y-0.6988
X3.6654Y-1.1831
X3.7008Y-5.3524
X3.7008Y-5.4114
X3.7008Y-5.4705
X3.7008Y-5.5295
X3.7008Y-5.9783
X3.7008Y-6.0374
X3.7008Y-6.0965
X3.7008Y-6.1555
X3.7441Y-0.6988
X3.7441Y-0.7933
X3.7441Y-0.872
X3.7441Y-0.9823
X3.7441Y-1.0512
X3.7441Y-1.1201
X3.7441Y-1.1831
X3.8228Y-0.7008
X3.8228Y-0.7933
X3.8228Y-0.872
X3.8228Y-0.9823
X3.8228Y-1.0512
X3.8228Y-1.1201
X3.8228Y-1.185
X3.9016Y-0.6988
X3.9016Y-0.7933
X3.9016Y-0.872
X3.9016Y-0.9823
X3.9016Y-1.0512
X3.9016Y-1.1201
X3.9016Y-1.187
X3.9803Y-0.6988
X3.9803Y-1.187
X4.0591Y-0.6988
X4.0591Y-1.187
X4.1299Y-0.7008
X4.1299Y-0.7953
X4.1299Y-0.874
X4.1299Y-0.9843
X4.1299Y-1.0531
X4.1299Y-1.122
X4.1299Y-1.189
X4.7441Y-1.0433
X4.7441Y-1.2126
X5.2795Y-4.7244
X5.2795Y-4.8031
X5.2795Y-4.8819
X5.2795Y-4.9606
X5.2795Y-5.0472
X5.2795Y-5.126
X5.2795Y-5.2047
X5.2795Y-5.2835
X5.2795Y-5.3819
X5.2795Y-5.4606
X5.2795Y-5.5394
X5.2795Y-5.6181
X5.2795Y-5.6969
X5.2795Y-5.7756
X5.2795Y-5.8622
X5.2795Y-5.9409
X5.2795Y-6.0197
X5.2795Y-6.0984
X5.2795Y-6.185
X5.2795Y-6.2638
X5.2795Y-6.3425
X5.2795Y-6.4213
X5.2795Y-6.5197
X5.2795Y-6.5984
X5.2795Y-6.6772
X5.2795Y-6.7559
X5.2795Y-6.8346
X5.2795Y-6.9134
T7
X4.3307Y-3.7283
X4.3807Y-3.7283
X4.4307Y-3.7283
X4.4807Y-3.7283
T8
X4.4087Y-1.4945
X4.4087Y-1.5945
X4.4087Y-1.6945
X4.4087Y-1.7945
X4.4087Y-1.8945
X4.4087Y-1.9945
X4.4087Y-2.0945
X4.4087Y-2.1945
X4.4087Y-2.2945
X4.4087Y-2.3945
X4.4087Y-2.4945
X4.4087Y-2.5945
X5.311Y-1.4945
X5.311Y-1.5945
X5.311Y-1.6945
X5.311Y-1.7945
X5.311Y-1.8945
X5.311Y-1.9945
X5.311Y-2.0945
X5.311Y-2.1945
X5.311Y-2.2945
X5.311Y-2.3945
X5.311Y-2.4945
X5.311Y-2.5945
T9
X4.0386Y-3.122
X4.1386Y-3.122
X4.2386Y-3.122
X4.3386Y-3.122
X4.5512Y-3.122
X4.6512Y-3.122
X4.7512Y-3.122
X4.8512Y-3.122
X5.0638Y-3.122
X5.1638Y-3.122
X5.2638Y-3.122
X5.3638Y-3.122
T10
X3.1417Y-0.7496
X3.1417Y-1.1402
X3.2756Y-0.7496
X3.2756Y-1.1402
T11
X2.4882Y-1.1594
X2.7717Y-1.1594
T12
X2.0866Y-0.7087
X2.0866Y-3.3858
X2.0866Y-7.5994
X2.1654Y-1.4961
X2.1654Y-3.0709
X3.7402Y-1.4961
X3.7402Y-3.0709
X5.2756Y-0.7087
X5.2756Y-3.3858
X5.2756Y-7.5994
T6
G00X2.3642Y-0.9016
M15
G01X2.3642Y-0.9449
M16
G05
G00X2.8957Y-0.9016
M15
G01X2.8957Y-0.9449
M16
G05
M30
