G04 #@! TF.GenerationSoftware,KiCad,Pcbnew,9.0.7*
G04 #@! TF.CreationDate,2026-01-14T12:00:45+02:00*
G04 #@! TF.ProjectId,Nerd QX,4e657264-2051-4582-9e6b-696361645f70,1.0.1*
G04 #@! TF.SameCoordinates,Original*
G04 #@! TF.FileFunction,Paste,Top*
G04 #@! TF.FilePolarity,Positive*
%FSLAX46Y46*%
G04 Gerber Fmt 4.6, Leading zero omitted, Abs format (unit mm)*
G04 Created by KiCad (PCBNEW 9.0.7) date 2026-01-14 12:00:45*
%MOMM*%
%LPD*%
G01*
G04 APERTURE LIST*
G04 Aperture macros list*
%AMRoundRect*
0 Rectangle with rounded corners*
0 $1 Rounding radius*
0 $2 $3 $4 $5 $6 $7 $8 $9 X,Y pos of 4 corners*
0 Add a 4 corners polygon primitive as box body*
4,1,4,$2,$3,$4,$5,$6,$7,$8,$9,$2,$3,0*
0 Add four circle primitives for the rounded corners*
1,1,$1+$1,$2,$3*
1,1,$1+$1,$4,$5*
1,1,$1+$1,$6,$7*
1,1,$1+$1,$8,$9*
0 Add four rect primitives between the rounded corners*
20,1,$1+$1,$2,$3,$4,$5,0*
20,1,$1+$1,$4,$5,$6,$7,0*
20,1,$1+$1,$6,$7,$8,$9,0*
20,1,$1+$1,$8,$9,$2,$3,0*%
%AMFreePoly0*
4,1,19,0.178553,0.213392,0.221317,0.164040,0.231790,0.115895,0.231790,-0.012362,0.213392,-0.075020,0.197845,-0.094312,0.094312,-0.197845,0.036997,-0.229141,0.012362,-0.231790,-0.115895,-0.231790,-0.178553,-0.213392,-0.221317,-0.164040,-0.231790,-0.115895,-0.231790,0.115895,-0.213392,0.178553,-0.164040,0.221317,-0.115895,0.231790,0.115895,0.231790,0.178553,0.213392,0.178553,0.213392,
$1*%
%AMFreePoly1*
4,1,21,0.122595,0.381565,0.128518,0.376137,0.204814,0.299841,0.231439,0.242746,0.231789,0.234719,0.231789,-0.234719,0.210242,-0.293918,0.204814,-0.299841,0.128518,-0.376137,0.071423,-0.402762,0.063396,-0.403112,-0.139692,-0.403112,-0.198891,-0.381565,-0.230390,-0.327007,-0.231789,-0.311015,-0.231789,0.311015,-0.210242,0.370214,-0.155684,0.401713,-0.139692,0.403112,0.063396,0.403112,
0.122595,0.381565,0.122595,0.381565,$1*%
%AMFreePoly2*
4,1,19,0.075020,0.213392,0.094312,0.197845,0.197845,0.094312,0.229141,0.036997,0.231790,0.012362,0.231790,-0.115895,0.213392,-0.178553,0.164040,-0.221317,0.115895,-0.231790,-0.115895,-0.231790,-0.178553,-0.213392,-0.221317,-0.164040,-0.231790,-0.115895,-0.231790,0.115895,-0.213392,0.178553,-0.164040,0.221317,-0.115895,0.231790,0.012362,0.231790,0.075020,0.213392,0.075020,0.213392,
$1*%
%AMFreePoly3*
4,1,21,0.370214,0.210242,0.401713,0.155684,0.403112,0.139692,0.403112,-0.063396,0.381565,-0.122595,0.376137,-0.128518,0.299841,-0.204814,0.242746,-0.231439,0.234719,-0.231789,-0.234719,-0.231789,-0.293918,-0.210242,-0.299841,-0.204814,-0.376137,-0.128518,-0.402762,-0.071423,-0.403112,-0.063396,-0.403112,0.139692,-0.381565,0.198891,-0.327007,0.230390,-0.311015,0.231789,0.311015,0.231789,
0.370214,0.210242,0.370214,0.210242,$1*%
%AMFreePoly4*
4,1,21,0.293918,0.210242,0.299841,0.204814,0.376137,0.128518,0.402762,0.071423,0.403112,0.063396,0.403112,-0.139692,0.381565,-0.198891,0.327007,-0.230390,0.311015,-0.231789,-0.311015,-0.231789,-0.370214,-0.210242,-0.401713,-0.155684,-0.403112,-0.139692,-0.403112,0.063396,-0.381565,0.122595,-0.376137,0.128518,-0.299841,0.204814,-0.242746,0.231439,-0.234719,0.231789,0.234719,0.231789,
0.293918,0.210242,0.293918,0.210242,$1*%
%AMFreePoly5*
4,1,19,0.178553,0.213392,0.221317,0.164040,0.231790,0.115895,0.231790,-0.115895,0.213392,-0.178553,0.164040,-0.221317,0.115895,-0.231790,-0.012362,-0.231790,-0.075020,-0.213392,-0.094312,-0.197845,-0.197845,-0.094312,-0.229141,-0.036997,-0.231790,-0.012362,-0.231790,0.115895,-0.213392,0.178553,-0.164040,0.221317,-0.115895,0.231790,0.115895,0.231790,0.178553,0.213392,0.178553,0.213392,
$1*%
%AMFreePoly6*
4,1,21,0.198891,0.381565,0.230390,0.327007,0.231789,0.311015,0.231789,-0.311015,0.210242,-0.370214,0.155684,-0.401713,0.139692,-0.403112,-0.063396,-0.403112,-0.122595,-0.381565,-0.128518,-0.376137,-0.204814,-0.299841,-0.231439,-0.242746,-0.231789,-0.234719,-0.231789,0.234719,-0.210242,0.293918,-0.204814,0.299841,-0.128518,0.376137,-0.071423,0.402762,-0.063396,0.403112,0.139692,0.403112,
0.198891,0.381565,0.198891,0.381565,$1*%
%AMFreePoly7*
4,1,19,0.178553,0.213392,0.221317,0.164040,0.231790,0.115895,0.231790,-0.115895,0.213392,-0.178553,0.164040,-0.221317,0.115895,-0.231790,-0.115895,-0.231790,-0.178553,-0.213392,-0.221317,-0.164040,-0.231790,-0.115895,-0.231790,0.012362,-0.213392,0.075020,-0.197845,0.094312,-0.094312,0.197845,-0.036997,0.229141,-0.012362,0.231790,0.115895,0.231790,0.178553,0.213392,0.178553,0.213392,
$1*%
G04 Aperture macros list end*
%ADD10C,0.750000*%
%ADD11C,0.001000*%
%ADD12C,0.000000*%
%ADD13RoundRect,0.250000X-0.325000X-1.100000X0.325000X-1.100000X0.325000X1.100000X-0.325000X1.100000X0*%
%ADD14RoundRect,0.250000X-0.450000X0.262500X-0.450000X-0.262500X0.450000X-0.262500X0.450000X0.262500X0*%
%ADD15RoundRect,0.250000X-0.250000X-0.475000X0.250000X-0.475000X0.250000X0.475000X-0.250000X0.475000X0*%
%ADD16RoundRect,0.250000X0.250000X0.475000X-0.250000X0.475000X-0.250000X-0.475000X0.250000X-0.475000X0*%
%ADD17RoundRect,0.250000X1.100000X-0.325000X1.100000X0.325000X-1.100000X0.325000X-1.100000X-0.325000X0*%
%ADD18RoundRect,0.087500X0.250000X0.087500X-0.250000X0.087500X-0.250000X-0.087500X0.250000X-0.087500X0*%
%ADD19RoundRect,0.055250X-0.055250X0.340750X-0.055250X-0.340750X0.055250X-0.340750X0.055250X0.340750X0*%
%ADD20RoundRect,0.250000X0.325000X1.100000X-0.325000X1.100000X-0.325000X-1.100000X0.325000X-1.100000X0*%
%ADD21R,2.800000X3.300000*%
%ADD22R,0.249999X0.700001*%
%ADD23R,0.249998X1.100000*%
%ADD24R,2.849999X0.800001*%
%ADD25RoundRect,0.250000X0.450000X-0.262500X0.450000X0.262500X-0.450000X0.262500X-0.450000X-0.262500X0*%
%ADD26RoundRect,0.087500X-0.087500X0.250000X-0.087500X-0.250000X0.087500X-0.250000X0.087500X0.250000X0*%
%ADD27RoundRect,0.250000X1.000000X-1.500000X1.000000X1.500000X-1.000000X1.500000X-1.000000X-1.500000X0*%
%ADD28RoundRect,0.225000X-0.250000X0.225000X-0.250000X-0.225000X0.250000X-0.225000X0.250000X0.225000X0*%
%ADD29FreePoly0,90.000000*%
%ADD30FreePoly1,90.000000*%
%ADD31FreePoly2,90.000000*%
%ADD32FreePoly3,90.000000*%
%ADD33RoundRect,0.201557X0.201556X-0.201556X0.201556X0.201556X-0.201556X0.201556X-0.201556X-0.201556X0*%
%ADD34FreePoly4,90.000000*%
%ADD35FreePoly5,90.000000*%
%ADD36FreePoly6,90.000000*%
%ADD37FreePoly7,90.000000*%
%ADD38RoundRect,0.062500X0.062500X-0.375000X0.062500X0.375000X-0.062500X0.375000X-0.062500X-0.375000X0*%
%ADD39RoundRect,0.062500X0.375000X-0.062500X0.375000X0.062500X-0.375000X0.062500X-0.375000X-0.062500X0*%
%ADD40RoundRect,0.250000X-0.475000X0.250000X-0.475000X-0.250000X0.475000X-0.250000X0.475000X0.250000X0*%
%ADD41RoundRect,0.250000X0.475000X-0.250000X0.475000X0.250000X-0.475000X0.250000X-0.475000X-0.250000X0*%
%ADD42RoundRect,0.250000X-0.262500X-0.450000X0.262500X-0.450000X0.262500X0.450000X-0.262500X0.450000X0*%
%ADD43RoundRect,0.250000X-1.000000X-0.900000X1.000000X-0.900000X1.000000X0.900000X-1.000000X0.900000X0*%
%ADD44RoundRect,0.100000X-0.100000X0.637500X-0.100000X-0.637500X0.100000X-0.637500X0.100000X0.637500X0*%
%ADD45RoundRect,0.150000X-0.150000X0.512500X-0.150000X-0.512500X0.150000X-0.512500X0.150000X0.512500X0*%
%ADD46RoundRect,0.225000X-0.225000X-0.250000X0.225000X-0.250000X0.225000X0.250000X-0.225000X0.250000X0*%
%ADD47RoundRect,0.250000X-0.450000X-0.800000X0.450000X-0.800000X0.450000X0.800000X-0.450000X0.800000X0*%
%ADD48RoundRect,0.150000X0.512500X0.150000X-0.512500X0.150000X-0.512500X-0.150000X0.512500X-0.150000X0*%
%ADD49RoundRect,0.055250X0.055250X-0.340750X0.055250X0.340750X-0.055250X0.340750X-0.055250X-0.340750X0*%
%ADD50R,1.500000X4.000000*%
%ADD51RoundRect,0.225000X0.250000X-0.225000X0.250000X0.225000X-0.250000X0.225000X-0.250000X-0.225000X0*%
%ADD52R,0.800000X0.300000*%
%ADD53RoundRect,0.087500X-0.725000X-0.087500X0.725000X-0.087500X0.725000X0.087500X-0.725000X0.087500X0*%
%ADD54RoundRect,0.225000X-0.225000X-0.375000X0.225000X-0.375000X0.225000X0.375000X-0.225000X0.375000X0*%
G04 #@! TA.AperFunction,Profile*
%ADD55C,0.100000*%
G04 #@! TD*
G04 APERTURE END LIST*
D10*
X60375000Y-113000000D02*
G75*
G02*
X59625000Y-113000000I-375000J0D01*
G01*
X59625000Y-113000000D02*
G75*
G02*
X60375000Y-113000000I375000J0D01*
G01*
D11*
X81435000Y-138650000D02*
X82385000Y-138650000D01*
X82385000Y-137450000D01*
X81435000Y-137450000D01*
X81435000Y-138650000D01*
G36*
X81435000Y-138650000D02*
G01*
X82385000Y-138650000D01*
X82385000Y-137450000D01*
X81435000Y-137450000D01*
X81435000Y-138650000D01*
G37*
X81435000Y-140800000D02*
X82385000Y-140800000D01*
X82385000Y-139600000D01*
X81435000Y-139600000D01*
X81435000Y-140800000D01*
G36*
X81435000Y-140800000D02*
G01*
X82385000Y-140800000D01*
X82385000Y-139600000D01*
X81435000Y-139600000D01*
X81435000Y-140800000D01*
G37*
X81445000Y-136440000D02*
X82395000Y-136440000D01*
X82395000Y-135240000D01*
X81445000Y-135240000D01*
X81445000Y-136440000D01*
G36*
X81445000Y-136440000D02*
G01*
X82395000Y-136440000D01*
X82395000Y-135240000D01*
X81445000Y-135240000D01*
X81445000Y-136440000D01*
G37*
X83295000Y-138640000D02*
X84245000Y-138640000D01*
X84245000Y-137440000D01*
X83295000Y-137440000D01*
X83295000Y-138640000D01*
G36*
X83295000Y-138640000D02*
G01*
X84245000Y-138640000D01*
X84245000Y-137440000D01*
X83295000Y-137440000D01*
X83295000Y-138640000D01*
G37*
X83295000Y-140790000D02*
X84245000Y-140790000D01*
X84245000Y-139590000D01*
X83295000Y-139590000D01*
X83295000Y-140790000D01*
G36*
X83295000Y-140790000D02*
G01*
X84245000Y-140790000D01*
X84245000Y-139590000D01*
X83295000Y-139590000D01*
X83295000Y-140790000D01*
G37*
X83305000Y-136430000D02*
X84255000Y-136430000D01*
X84255000Y-135230000D01*
X83305000Y-135230000D01*
X83305000Y-136430000D01*
G36*
X83305000Y-136430000D02*
G01*
X84255000Y-136430000D01*
X84255000Y-135230000D01*
X83305000Y-135230000D01*
X83305000Y-136430000D01*
G37*
X85125000Y-138630000D02*
X86075000Y-138630000D01*
X86075000Y-137430000D01*
X85125000Y-137430000D01*
X85125000Y-138630000D01*
G36*
X85125000Y-138630000D02*
G01*
X86075000Y-138630000D01*
X86075000Y-137430000D01*
X85125000Y-137430000D01*
X85125000Y-138630000D01*
G37*
X85125000Y-140780000D02*
X86075000Y-140780000D01*
X86075000Y-139580000D01*
X85125000Y-139580000D01*
X85125000Y-140780000D01*
G36*
X85125000Y-140780000D02*
G01*
X86075000Y-140780000D01*
X86075000Y-139580000D01*
X85125000Y-139580000D01*
X85125000Y-140780000D01*
G37*
X85135000Y-136420000D02*
X86085000Y-136420000D01*
X86085000Y-135220000D01*
X85135000Y-135220000D01*
X85135000Y-136420000D01*
G36*
X85135000Y-136420000D02*
G01*
X86085000Y-136420000D01*
X86085000Y-135220000D01*
X85135000Y-135220000D01*
X85135000Y-136420000D01*
G37*
X87340000Y-136460000D02*
X88460000Y-136460000D01*
X88460000Y-135260000D01*
X87340000Y-135260000D01*
X87340000Y-136460000D01*
G36*
X87340000Y-136460000D02*
G01*
X88460000Y-136460000D01*
X88460000Y-135260000D01*
X87340000Y-135260000D01*
X87340000Y-136460000D01*
G37*
X87350000Y-138600000D02*
X88460000Y-138600000D01*
X88460000Y-137400000D01*
X87350000Y-137400000D01*
X87350000Y-138600000D01*
G36*
X87350000Y-138600000D02*
G01*
X88460000Y-138600000D01*
X88460000Y-137400000D01*
X87350000Y-137400000D01*
X87350000Y-138600000D01*
G37*
X87370000Y-140780000D02*
X88480000Y-140780000D01*
X88480000Y-139580000D01*
X87370000Y-139580000D01*
X87370000Y-140780000D01*
G36*
X87370000Y-140780000D02*
G01*
X88480000Y-140780000D01*
X88480000Y-139580000D01*
X87370000Y-139580000D01*
X87370000Y-140780000D01*
G37*
D12*
G36*
X72139431Y-53300971D02*
G01*
X72148885Y-53303838D01*
X72157600Y-53308497D01*
X72165238Y-53314765D01*
X72171504Y-53322403D01*
X72176162Y-53331115D01*
X72179030Y-53340569D01*
X72179998Y-53350404D01*
X72179998Y-54659601D01*
X72179030Y-54669436D01*
X72176162Y-54678890D01*
X72171504Y-54687602D01*
X72165238Y-54695240D01*
X72157600Y-54701509D01*
X72148885Y-54706167D01*
X72139431Y-54709035D01*
X72129599Y-54710003D01*
X71110399Y-54710003D01*
X71100566Y-54709035D01*
X71091112Y-54706167D01*
X71082398Y-54701509D01*
X71074760Y-54695240D01*
X71068494Y-54687602D01*
X71063835Y-54678890D01*
X71060968Y-54669436D01*
X71059997Y-54659601D01*
X71059997Y-53350404D01*
X71060968Y-53340569D01*
X71063835Y-53331115D01*
X71068494Y-53322403D01*
X71074760Y-53314765D01*
X71082398Y-53308497D01*
X71091112Y-53303838D01*
X71100566Y-53300971D01*
X71110399Y-53300003D01*
X72129599Y-53300003D01*
X72139431Y-53300971D01*
G37*
G36*
X72139431Y-51690971D02*
G01*
X72148885Y-51693839D01*
X72157600Y-51698497D01*
X72165238Y-51704766D01*
X72171504Y-51712404D01*
X72176162Y-51721116D01*
X72179030Y-51730570D01*
X72179998Y-51740405D01*
X72179998Y-53049602D01*
X72179030Y-53059437D01*
X72176162Y-53068891D01*
X72171504Y-53077603D01*
X72165238Y-53085241D01*
X72157600Y-53091509D01*
X72148885Y-53096168D01*
X72139431Y-53099035D01*
X72129599Y-53100003D01*
X71110399Y-53100003D01*
X71100566Y-53099035D01*
X71091112Y-53096168D01*
X71082398Y-53091509D01*
X71074760Y-53085241D01*
X71068494Y-53077603D01*
X71063835Y-53068891D01*
X71060968Y-53059437D01*
X71059997Y-53049602D01*
X71059997Y-51740405D01*
X71060968Y-51730570D01*
X71063835Y-51721116D01*
X71068494Y-51712404D01*
X71074760Y-51704766D01*
X71082398Y-51698497D01*
X71091112Y-51693839D01*
X71100566Y-51690971D01*
X71110399Y-51690003D01*
X72129599Y-51690003D01*
X72139431Y-51690971D01*
G37*
G36*
X73459431Y-53300971D02*
G01*
X73468885Y-53303838D01*
X73477600Y-53308497D01*
X73485238Y-53314765D01*
X73491504Y-53322403D01*
X73496162Y-53331115D01*
X73499030Y-53340569D01*
X73499998Y-53350404D01*
X73499998Y-54659601D01*
X73499030Y-54669436D01*
X73496162Y-54678890D01*
X73491504Y-54687602D01*
X73485238Y-54695240D01*
X73477600Y-54701509D01*
X73468885Y-54706167D01*
X73459431Y-54709035D01*
X73449599Y-54710003D01*
X72430399Y-54710003D01*
X72420566Y-54709035D01*
X72411112Y-54706167D01*
X72402398Y-54701509D01*
X72394760Y-54695240D01*
X72388494Y-54687602D01*
X72383835Y-54678890D01*
X72380968Y-54669436D01*
X72379997Y-54659601D01*
X72379997Y-53350404D01*
X72380968Y-53340569D01*
X72383835Y-53331115D01*
X72388494Y-53322403D01*
X72394760Y-53314765D01*
X72402398Y-53308497D01*
X72411112Y-53303838D01*
X72420566Y-53300971D01*
X72430399Y-53300003D01*
X73449599Y-53300003D01*
X73459431Y-53300971D01*
G37*
G36*
X73459431Y-51690971D02*
G01*
X73468885Y-51693839D01*
X73477600Y-51698497D01*
X73485238Y-51704766D01*
X73491504Y-51712404D01*
X73496162Y-51721116D01*
X73499030Y-51730570D01*
X73499998Y-51740405D01*
X73499998Y-53049602D01*
X73499030Y-53059437D01*
X73496162Y-53068891D01*
X73491504Y-53077603D01*
X73485238Y-53085241D01*
X73477600Y-53091509D01*
X73468885Y-53096168D01*
X73459431Y-53099035D01*
X73449599Y-53100003D01*
X72430399Y-53100003D01*
X72420566Y-53099035D01*
X72411112Y-53096168D01*
X72402398Y-53091509D01*
X72394760Y-53085241D01*
X72388494Y-53077603D01*
X72383835Y-53068891D01*
X72380968Y-53059437D01*
X72379997Y-53049602D01*
X72379997Y-51740405D01*
X72380968Y-51730570D01*
X72383835Y-51721116D01*
X72388494Y-51712404D01*
X72394760Y-51704766D01*
X72402398Y-51698497D01*
X72411112Y-51693839D01*
X72420566Y-51690971D01*
X72430399Y-51690003D01*
X73449599Y-51690003D01*
X73459431Y-51690971D01*
G37*
G36*
X74779434Y-53300971D02*
G01*
X74788888Y-53303838D01*
X74797602Y-53308497D01*
X74805240Y-53314765D01*
X74811506Y-53322403D01*
X74816165Y-53331115D01*
X74819032Y-53340569D01*
X74820003Y-53350404D01*
X74820003Y-54659601D01*
X74819032Y-54669436D01*
X74816165Y-54678890D01*
X74811506Y-54687602D01*
X74805240Y-54695240D01*
X74797602Y-54701509D01*
X74788888Y-54706167D01*
X74779434Y-54709035D01*
X74769601Y-54710003D01*
X73750401Y-54710003D01*
X73740569Y-54709035D01*
X73731115Y-54706167D01*
X73722400Y-54701509D01*
X73714762Y-54695240D01*
X73708496Y-54687602D01*
X73703838Y-54678890D01*
X73700970Y-54669436D01*
X73700002Y-54659601D01*
X73700002Y-53350404D01*
X73700970Y-53340569D01*
X73703838Y-53331115D01*
X73708496Y-53322403D01*
X73714762Y-53314765D01*
X73722400Y-53308497D01*
X73731115Y-53303838D01*
X73740569Y-53300971D01*
X73750401Y-53300003D01*
X74769601Y-53300003D01*
X74779434Y-53300971D01*
G37*
G36*
X74779434Y-51690971D02*
G01*
X74788888Y-51693839D01*
X74797602Y-51698497D01*
X74805240Y-51704766D01*
X74811506Y-51712404D01*
X74816165Y-51721116D01*
X74819032Y-51730570D01*
X74820003Y-51740405D01*
X74820003Y-53049602D01*
X74819032Y-53059437D01*
X74816165Y-53068891D01*
X74811506Y-53077603D01*
X74805240Y-53085241D01*
X74797602Y-53091509D01*
X74788888Y-53096168D01*
X74779434Y-53099035D01*
X74769601Y-53100003D01*
X73750401Y-53100003D01*
X73740569Y-53099035D01*
X73731115Y-53096168D01*
X73722400Y-53091509D01*
X73714762Y-53085241D01*
X73708496Y-53077603D01*
X73703838Y-53068891D01*
X73700970Y-53059437D01*
X73700002Y-53049602D01*
X73700002Y-51740405D01*
X73700970Y-51730570D01*
X73703838Y-51721116D01*
X73708496Y-51712404D01*
X73714762Y-51704766D01*
X73722400Y-51698497D01*
X73731115Y-51693839D01*
X73740569Y-51690971D01*
X73750401Y-51690003D01*
X74769601Y-51690003D01*
X74779434Y-51690971D01*
G37*
G36*
X76099434Y-53300971D02*
G01*
X76108888Y-53303838D01*
X76117602Y-53308497D01*
X76125240Y-53314765D01*
X76131506Y-53322403D01*
X76136165Y-53331115D01*
X76139032Y-53340569D01*
X76140003Y-53350404D01*
X76140003Y-54659601D01*
X76139032Y-54669436D01*
X76136165Y-54678890D01*
X76131506Y-54687602D01*
X76125240Y-54695240D01*
X76117602Y-54701509D01*
X76108888Y-54706167D01*
X76099434Y-54709035D01*
X76089601Y-54710003D01*
X75070401Y-54710003D01*
X75060569Y-54709035D01*
X75051115Y-54706167D01*
X75042400Y-54701509D01*
X75034762Y-54695240D01*
X75028496Y-54687602D01*
X75023838Y-54678890D01*
X75020970Y-54669436D01*
X75020002Y-54659601D01*
X75020002Y-53350404D01*
X75020970Y-53340569D01*
X75023838Y-53331115D01*
X75028496Y-53322403D01*
X75034762Y-53314765D01*
X75042400Y-53308497D01*
X75051115Y-53303838D01*
X75060569Y-53300971D01*
X75070401Y-53300003D01*
X76089601Y-53300003D01*
X76099434Y-53300971D01*
G37*
G36*
X76099434Y-51690971D02*
G01*
X76108888Y-51693839D01*
X76117602Y-51698497D01*
X76125240Y-51704766D01*
X76131506Y-51712404D01*
X76136165Y-51721116D01*
X76139032Y-51730570D01*
X76140003Y-51740405D01*
X76140003Y-53049602D01*
X76139032Y-53059437D01*
X76136165Y-53068891D01*
X76131506Y-53077603D01*
X76125240Y-53085241D01*
X76117602Y-53091509D01*
X76108888Y-53096168D01*
X76099434Y-53099035D01*
X76089601Y-53100003D01*
X75070401Y-53100003D01*
X75060569Y-53099035D01*
X75051115Y-53096168D01*
X75042400Y-53091509D01*
X75034762Y-53085241D01*
X75028496Y-53077603D01*
X75023838Y-53068891D01*
X75020970Y-53059437D01*
X75020002Y-53049602D01*
X75020002Y-51740405D01*
X75020970Y-51730570D01*
X75023838Y-51721116D01*
X75028496Y-51712404D01*
X75034762Y-51704766D01*
X75042400Y-51698497D01*
X75051115Y-51693839D01*
X75060569Y-51690971D01*
X75070401Y-51690003D01*
X76089601Y-51690003D01*
X76099434Y-51690971D01*
G37*
G36*
X73724998Y-50550003D02*
G01*
X73724998Y-50760005D01*
X73774998Y-50810005D01*
X73924998Y-50810005D01*
X73974998Y-50760005D01*
X73974998Y-50550003D01*
X74024998Y-50500003D01*
X74175000Y-50500003D01*
X74225000Y-50550003D01*
X74225000Y-50760005D01*
X74275000Y-50810005D01*
X74425000Y-50810005D01*
X74475000Y-50760005D01*
X74475000Y-50550003D01*
X74524999Y-50500003D01*
X74674999Y-50500003D01*
X74724999Y-50550003D01*
X74724999Y-50760005D01*
X74774999Y-50810005D01*
X74924999Y-50810005D01*
X74974999Y-50760005D01*
X74974999Y-50550003D01*
X75024998Y-50500003D01*
X75174998Y-50500003D01*
X75224998Y-50550003D01*
X75224998Y-50760005D01*
X75274998Y-50810005D01*
X75425000Y-50810005D01*
X75475000Y-50760005D01*
X75475000Y-50550003D01*
X75525000Y-50500003D01*
X75675000Y-50500003D01*
X75725000Y-50550003D01*
X75725000Y-50760005D01*
X75774999Y-50810005D01*
X75924999Y-50810005D01*
X75974999Y-50760005D01*
X75974999Y-50550003D01*
X76024999Y-50500003D01*
X76174999Y-50500003D01*
X76224999Y-50550003D01*
X76224999Y-51150005D01*
X76174999Y-51200004D01*
X73524999Y-51200004D01*
X73474999Y-51150005D01*
X73474999Y-50550003D01*
X73524999Y-50500003D01*
X73674999Y-50500003D01*
X73724998Y-50550003D01*
G37*
G36*
X76224999Y-55250001D02*
G01*
X76224999Y-55850003D01*
X76174999Y-55900003D01*
X76024999Y-55900003D01*
X75974999Y-55850003D01*
X75974999Y-55640001D01*
X75924999Y-55590001D01*
X75774999Y-55590001D01*
X75725000Y-55640001D01*
X75725000Y-55850003D01*
X75675000Y-55900003D01*
X75525000Y-55900003D01*
X75475000Y-55850003D01*
X75475000Y-55640001D01*
X75425000Y-55590001D01*
X75274998Y-55590001D01*
X75224998Y-55640001D01*
X75224998Y-55850003D01*
X75174998Y-55900003D01*
X75024998Y-55900003D01*
X74974999Y-55850003D01*
X74974999Y-55640001D01*
X74924999Y-55590001D01*
X74774999Y-55590001D01*
X74724999Y-55640001D01*
X74724999Y-55850003D01*
X74674999Y-55900003D01*
X74524999Y-55900003D01*
X74475000Y-55850003D01*
X74475000Y-55640001D01*
X74425000Y-55590001D01*
X74275000Y-55590001D01*
X74225000Y-55640001D01*
X74225000Y-55850003D01*
X74175000Y-55900003D01*
X74024998Y-55900003D01*
X73974998Y-55850003D01*
X73974998Y-55640001D01*
X73924998Y-55590001D01*
X73774998Y-55590001D01*
X73724998Y-55640001D01*
X73724998Y-55850003D01*
X73674999Y-55900003D01*
X73524999Y-55900003D01*
X73474999Y-55850003D01*
X73474999Y-55250001D01*
X73524999Y-55200002D01*
X76174999Y-55200002D01*
X76224999Y-55250001D01*
G37*
G36*
X61439431Y-53300968D02*
G01*
X61448885Y-53303835D01*
X61457600Y-53308494D01*
X61465238Y-53314762D01*
X61471504Y-53322400D01*
X61476162Y-53331112D01*
X61479030Y-53340566D01*
X61479998Y-53350401D01*
X61479998Y-54659598D01*
X61479030Y-54669433D01*
X61476162Y-54678887D01*
X61471504Y-54687599D01*
X61465238Y-54695237D01*
X61457600Y-54701506D01*
X61448885Y-54706164D01*
X61439431Y-54709032D01*
X61429599Y-54710000D01*
X60410399Y-54710000D01*
X60400566Y-54709032D01*
X60391112Y-54706164D01*
X60382398Y-54701506D01*
X60374760Y-54695237D01*
X60368494Y-54687599D01*
X60363835Y-54678887D01*
X60360968Y-54669433D01*
X60359997Y-54659598D01*
X60359997Y-53350401D01*
X60360968Y-53340566D01*
X60363835Y-53331112D01*
X60368494Y-53322400D01*
X60374760Y-53314762D01*
X60382398Y-53308494D01*
X60391112Y-53303835D01*
X60400566Y-53300968D01*
X60410399Y-53300000D01*
X61429599Y-53300000D01*
X61439431Y-53300968D01*
G37*
G36*
X61439431Y-51690968D02*
G01*
X61448885Y-51693836D01*
X61457600Y-51698494D01*
X61465238Y-51704763D01*
X61471504Y-51712401D01*
X61476162Y-51721113D01*
X61479030Y-51730567D01*
X61479998Y-51740402D01*
X61479998Y-53049599D01*
X61479030Y-53059434D01*
X61476162Y-53068888D01*
X61471504Y-53077600D01*
X61465238Y-53085238D01*
X61457600Y-53091506D01*
X61448885Y-53096165D01*
X61439431Y-53099032D01*
X61429599Y-53100000D01*
X60410399Y-53100000D01*
X60400566Y-53099032D01*
X60391112Y-53096165D01*
X60382398Y-53091506D01*
X60374760Y-53085238D01*
X60368494Y-53077600D01*
X60363835Y-53068888D01*
X60360968Y-53059434D01*
X60359997Y-53049599D01*
X60359997Y-51740402D01*
X60360968Y-51730567D01*
X60363835Y-51721113D01*
X60368494Y-51712401D01*
X60374760Y-51704763D01*
X60382398Y-51698494D01*
X60391112Y-51693836D01*
X60400566Y-51690968D01*
X60410399Y-51690000D01*
X61429599Y-51690000D01*
X61439431Y-51690968D01*
G37*
G36*
X62759431Y-53300968D02*
G01*
X62768885Y-53303835D01*
X62777600Y-53308494D01*
X62785238Y-53314762D01*
X62791504Y-53322400D01*
X62796162Y-53331112D01*
X62799030Y-53340566D01*
X62799998Y-53350401D01*
X62799998Y-54659598D01*
X62799030Y-54669433D01*
X62796162Y-54678887D01*
X62791504Y-54687599D01*
X62785238Y-54695237D01*
X62777600Y-54701506D01*
X62768885Y-54706164D01*
X62759431Y-54709032D01*
X62749599Y-54710000D01*
X61730399Y-54710000D01*
X61720566Y-54709032D01*
X61711112Y-54706164D01*
X61702398Y-54701506D01*
X61694760Y-54695237D01*
X61688494Y-54687599D01*
X61683835Y-54678887D01*
X61680968Y-54669433D01*
X61679997Y-54659598D01*
X61679997Y-53350401D01*
X61680968Y-53340566D01*
X61683835Y-53331112D01*
X61688494Y-53322400D01*
X61694760Y-53314762D01*
X61702398Y-53308494D01*
X61711112Y-53303835D01*
X61720566Y-53300968D01*
X61730399Y-53300000D01*
X62749599Y-53300000D01*
X62759431Y-53300968D01*
G37*
G36*
X62759431Y-51690968D02*
G01*
X62768885Y-51693836D01*
X62777600Y-51698494D01*
X62785238Y-51704763D01*
X62791504Y-51712401D01*
X62796162Y-51721113D01*
X62799030Y-51730567D01*
X62799998Y-51740402D01*
X62799998Y-53049599D01*
X62799030Y-53059434D01*
X62796162Y-53068888D01*
X62791504Y-53077600D01*
X62785238Y-53085238D01*
X62777600Y-53091506D01*
X62768885Y-53096165D01*
X62759431Y-53099032D01*
X62749599Y-53100000D01*
X61730399Y-53100000D01*
X61720566Y-53099032D01*
X61711112Y-53096165D01*
X61702398Y-53091506D01*
X61694760Y-53085238D01*
X61688494Y-53077600D01*
X61683835Y-53068888D01*
X61680968Y-53059434D01*
X61679997Y-53049599D01*
X61679997Y-51740402D01*
X61680968Y-51730567D01*
X61683835Y-51721113D01*
X61688494Y-51712401D01*
X61694760Y-51704763D01*
X61702398Y-51698494D01*
X61711112Y-51693836D01*
X61720566Y-51690968D01*
X61730399Y-51690000D01*
X62749599Y-51690000D01*
X62759431Y-51690968D01*
G37*
G36*
X64079434Y-53300968D02*
G01*
X64088888Y-53303835D01*
X64097602Y-53308494D01*
X64105240Y-53314762D01*
X64111506Y-53322400D01*
X64116165Y-53331112D01*
X64119032Y-53340566D01*
X64120003Y-53350401D01*
X64120003Y-54659598D01*
X64119032Y-54669433D01*
X64116165Y-54678887D01*
X64111506Y-54687599D01*
X64105240Y-54695237D01*
X64097602Y-54701506D01*
X64088888Y-54706164D01*
X64079434Y-54709032D01*
X64069601Y-54710000D01*
X63050401Y-54710000D01*
X63040569Y-54709032D01*
X63031115Y-54706164D01*
X63022400Y-54701506D01*
X63014762Y-54695237D01*
X63008496Y-54687599D01*
X63003838Y-54678887D01*
X63000970Y-54669433D01*
X63000002Y-54659598D01*
X63000002Y-53350401D01*
X63000970Y-53340566D01*
X63003838Y-53331112D01*
X63008496Y-53322400D01*
X63014762Y-53314762D01*
X63022400Y-53308494D01*
X63031115Y-53303835D01*
X63040569Y-53300968D01*
X63050401Y-53300000D01*
X64069601Y-53300000D01*
X64079434Y-53300968D01*
G37*
G36*
X64079434Y-51690968D02*
G01*
X64088888Y-51693836D01*
X64097602Y-51698494D01*
X64105240Y-51704763D01*
X64111506Y-51712401D01*
X64116165Y-51721113D01*
X64119032Y-51730567D01*
X64120003Y-51740402D01*
X64120003Y-53049599D01*
X64119032Y-53059434D01*
X64116165Y-53068888D01*
X64111506Y-53077600D01*
X64105240Y-53085238D01*
X64097602Y-53091506D01*
X64088888Y-53096165D01*
X64079434Y-53099032D01*
X64069601Y-53100000D01*
X63050401Y-53100000D01*
X63040569Y-53099032D01*
X63031115Y-53096165D01*
X63022400Y-53091506D01*
X63014762Y-53085238D01*
X63008496Y-53077600D01*
X63003838Y-53068888D01*
X63000970Y-53059434D01*
X63000002Y-53049599D01*
X63000002Y-51740402D01*
X63000970Y-51730567D01*
X63003838Y-51721113D01*
X63008496Y-51712401D01*
X63014762Y-51704763D01*
X63022400Y-51698494D01*
X63031115Y-51693836D01*
X63040569Y-51690968D01*
X63050401Y-51690000D01*
X64069601Y-51690000D01*
X64079434Y-51690968D01*
G37*
G36*
X65399434Y-53300968D02*
G01*
X65408888Y-53303835D01*
X65417602Y-53308494D01*
X65425240Y-53314762D01*
X65431506Y-53322400D01*
X65436165Y-53331112D01*
X65439032Y-53340566D01*
X65440003Y-53350401D01*
X65440003Y-54659598D01*
X65439032Y-54669433D01*
X65436165Y-54678887D01*
X65431506Y-54687599D01*
X65425240Y-54695237D01*
X65417602Y-54701506D01*
X65408888Y-54706164D01*
X65399434Y-54709032D01*
X65389601Y-54710000D01*
X64370401Y-54710000D01*
X64360569Y-54709032D01*
X64351115Y-54706164D01*
X64342400Y-54701506D01*
X64334762Y-54695237D01*
X64328496Y-54687599D01*
X64323838Y-54678887D01*
X64320970Y-54669433D01*
X64320002Y-54659598D01*
X64320002Y-53350401D01*
X64320970Y-53340566D01*
X64323838Y-53331112D01*
X64328496Y-53322400D01*
X64334762Y-53314762D01*
X64342400Y-53308494D01*
X64351115Y-53303835D01*
X64360569Y-53300968D01*
X64370401Y-53300000D01*
X65389601Y-53300000D01*
X65399434Y-53300968D01*
G37*
G36*
X65399434Y-51690968D02*
G01*
X65408888Y-51693836D01*
X65417602Y-51698494D01*
X65425240Y-51704763D01*
X65431506Y-51712401D01*
X65436165Y-51721113D01*
X65439032Y-51730567D01*
X65440003Y-51740402D01*
X65440003Y-53049599D01*
X65439032Y-53059434D01*
X65436165Y-53068888D01*
X65431506Y-53077600D01*
X65425240Y-53085238D01*
X65417602Y-53091506D01*
X65408888Y-53096165D01*
X65399434Y-53099032D01*
X65389601Y-53100000D01*
X64370401Y-53100000D01*
X64360569Y-53099032D01*
X64351115Y-53096165D01*
X64342400Y-53091506D01*
X64334762Y-53085238D01*
X64328496Y-53077600D01*
X64323838Y-53068888D01*
X64320970Y-53059434D01*
X64320002Y-53049599D01*
X64320002Y-51740402D01*
X64320970Y-51730567D01*
X64323838Y-51721113D01*
X64328496Y-51712401D01*
X64334762Y-51704763D01*
X64342400Y-51698494D01*
X64351115Y-51693836D01*
X64360569Y-51690968D01*
X64370401Y-51690000D01*
X65389601Y-51690000D01*
X65399434Y-51690968D01*
G37*
G36*
X63024998Y-50550000D02*
G01*
X63024998Y-50760002D01*
X63074998Y-50810002D01*
X63224998Y-50810002D01*
X63274998Y-50760002D01*
X63274998Y-50550000D01*
X63324998Y-50500000D01*
X63475000Y-50500000D01*
X63525000Y-50550000D01*
X63525000Y-50760002D01*
X63575000Y-50810002D01*
X63725000Y-50810002D01*
X63775000Y-50760002D01*
X63775000Y-50550000D01*
X63824999Y-50500000D01*
X63974999Y-50500000D01*
X64024999Y-50550000D01*
X64024999Y-50760002D01*
X64074999Y-50810002D01*
X64224999Y-50810002D01*
X64274999Y-50760002D01*
X64274999Y-50550000D01*
X64324998Y-50500000D01*
X64474998Y-50500000D01*
X64524998Y-50550000D01*
X64524998Y-50760002D01*
X64574998Y-50810002D01*
X64725000Y-50810002D01*
X64775000Y-50760002D01*
X64775000Y-50550000D01*
X64825000Y-50500000D01*
X64975000Y-50500000D01*
X65025000Y-50550000D01*
X65025000Y-50760002D01*
X65074999Y-50810002D01*
X65224999Y-50810002D01*
X65274999Y-50760002D01*
X65274999Y-50550000D01*
X65324999Y-50500000D01*
X65474999Y-50500000D01*
X65524999Y-50550000D01*
X65524999Y-51150002D01*
X65474999Y-51200001D01*
X62824999Y-51200001D01*
X62774999Y-51150002D01*
X62774999Y-50550000D01*
X62824999Y-50500000D01*
X62974999Y-50500000D01*
X63024998Y-50550000D01*
G37*
G36*
X65524999Y-55249998D02*
G01*
X65524999Y-55850000D01*
X65474999Y-55900000D01*
X65324999Y-55900000D01*
X65274999Y-55850000D01*
X65274999Y-55639998D01*
X65224999Y-55589998D01*
X65074999Y-55589998D01*
X65025000Y-55639998D01*
X65025000Y-55850000D01*
X64975000Y-55900000D01*
X64825000Y-55900000D01*
X64775000Y-55850000D01*
X64775000Y-55639998D01*
X64725000Y-55589998D01*
X64574998Y-55589998D01*
X64524998Y-55639998D01*
X64524998Y-55850000D01*
X64474998Y-55900000D01*
X64324998Y-55900000D01*
X64274999Y-55850000D01*
X64274999Y-55639998D01*
X64224999Y-55589998D01*
X64074999Y-55589998D01*
X64024999Y-55639998D01*
X64024999Y-55850000D01*
X63974999Y-55900000D01*
X63824999Y-55900000D01*
X63775000Y-55850000D01*
X63775000Y-55639998D01*
X63725000Y-55589998D01*
X63575000Y-55589998D01*
X63525000Y-55639998D01*
X63525000Y-55850000D01*
X63475000Y-55900000D01*
X63324998Y-55900000D01*
X63274998Y-55850000D01*
X63274998Y-55639998D01*
X63224998Y-55589998D01*
X63074998Y-55589998D01*
X63024998Y-55639998D01*
X63024998Y-55850000D01*
X62974999Y-55900000D01*
X62824999Y-55900000D01*
X62774999Y-55850000D01*
X62774999Y-55249998D01*
X62824999Y-55199999D01*
X65474999Y-55199999D01*
X65524999Y-55249998D01*
G37*
G36*
X82839431Y-53300971D02*
G01*
X82848885Y-53303838D01*
X82857600Y-53308497D01*
X82865238Y-53314765D01*
X82871504Y-53322403D01*
X82876162Y-53331115D01*
X82879030Y-53340569D01*
X82879998Y-53350404D01*
X82879998Y-54659601D01*
X82879030Y-54669436D01*
X82876162Y-54678890D01*
X82871504Y-54687602D01*
X82865238Y-54695240D01*
X82857600Y-54701509D01*
X82848885Y-54706167D01*
X82839431Y-54709035D01*
X82829599Y-54710003D01*
X81810399Y-54710003D01*
X81800566Y-54709035D01*
X81791112Y-54706167D01*
X81782398Y-54701509D01*
X81774760Y-54695240D01*
X81768494Y-54687602D01*
X81763835Y-54678890D01*
X81760968Y-54669436D01*
X81759997Y-54659601D01*
X81759997Y-53350404D01*
X81760968Y-53340569D01*
X81763835Y-53331115D01*
X81768494Y-53322403D01*
X81774760Y-53314765D01*
X81782398Y-53308497D01*
X81791112Y-53303838D01*
X81800566Y-53300971D01*
X81810399Y-53300003D01*
X82829599Y-53300003D01*
X82839431Y-53300971D01*
G37*
G36*
X82839431Y-51690971D02*
G01*
X82848885Y-51693839D01*
X82857600Y-51698497D01*
X82865238Y-51704766D01*
X82871504Y-51712404D01*
X82876162Y-51721116D01*
X82879030Y-51730570D01*
X82879998Y-51740405D01*
X82879998Y-53049602D01*
X82879030Y-53059437D01*
X82876162Y-53068891D01*
X82871504Y-53077603D01*
X82865238Y-53085241D01*
X82857600Y-53091509D01*
X82848885Y-53096168D01*
X82839431Y-53099035D01*
X82829599Y-53100003D01*
X81810399Y-53100003D01*
X81800566Y-53099035D01*
X81791112Y-53096168D01*
X81782398Y-53091509D01*
X81774760Y-53085241D01*
X81768494Y-53077603D01*
X81763835Y-53068891D01*
X81760968Y-53059437D01*
X81759997Y-53049602D01*
X81759997Y-51740405D01*
X81760968Y-51730570D01*
X81763835Y-51721116D01*
X81768494Y-51712404D01*
X81774760Y-51704766D01*
X81782398Y-51698497D01*
X81791112Y-51693839D01*
X81800566Y-51690971D01*
X81810399Y-51690003D01*
X82829599Y-51690003D01*
X82839431Y-51690971D01*
G37*
G36*
X84159431Y-53300971D02*
G01*
X84168885Y-53303838D01*
X84177600Y-53308497D01*
X84185238Y-53314765D01*
X84191504Y-53322403D01*
X84196162Y-53331115D01*
X84199030Y-53340569D01*
X84199998Y-53350404D01*
X84199998Y-54659601D01*
X84199030Y-54669436D01*
X84196162Y-54678890D01*
X84191504Y-54687602D01*
X84185238Y-54695240D01*
X84177600Y-54701509D01*
X84168885Y-54706167D01*
X84159431Y-54709035D01*
X84149599Y-54710003D01*
X83130399Y-54710003D01*
X83120566Y-54709035D01*
X83111112Y-54706167D01*
X83102398Y-54701509D01*
X83094760Y-54695240D01*
X83088494Y-54687602D01*
X83083835Y-54678890D01*
X83080968Y-54669436D01*
X83079997Y-54659601D01*
X83079997Y-53350404D01*
X83080968Y-53340569D01*
X83083835Y-53331115D01*
X83088494Y-53322403D01*
X83094760Y-53314765D01*
X83102398Y-53308497D01*
X83111112Y-53303838D01*
X83120566Y-53300971D01*
X83130399Y-53300003D01*
X84149599Y-53300003D01*
X84159431Y-53300971D01*
G37*
G36*
X84159431Y-51690971D02*
G01*
X84168885Y-51693839D01*
X84177600Y-51698497D01*
X84185238Y-51704766D01*
X84191504Y-51712404D01*
X84196162Y-51721116D01*
X84199030Y-51730570D01*
X84199998Y-51740405D01*
X84199998Y-53049602D01*
X84199030Y-53059437D01*
X84196162Y-53068891D01*
X84191504Y-53077603D01*
X84185238Y-53085241D01*
X84177600Y-53091509D01*
X84168885Y-53096168D01*
X84159431Y-53099035D01*
X84149599Y-53100003D01*
X83130399Y-53100003D01*
X83120566Y-53099035D01*
X83111112Y-53096168D01*
X83102398Y-53091509D01*
X83094760Y-53085241D01*
X83088494Y-53077603D01*
X83083835Y-53068891D01*
X83080968Y-53059437D01*
X83079997Y-53049602D01*
X83079997Y-51740405D01*
X83080968Y-51730570D01*
X83083835Y-51721116D01*
X83088494Y-51712404D01*
X83094760Y-51704766D01*
X83102398Y-51698497D01*
X83111112Y-51693839D01*
X83120566Y-51690971D01*
X83130399Y-51690003D01*
X84149599Y-51690003D01*
X84159431Y-51690971D01*
G37*
G36*
X85479434Y-53300971D02*
G01*
X85488888Y-53303838D01*
X85497602Y-53308497D01*
X85505240Y-53314765D01*
X85511506Y-53322403D01*
X85516165Y-53331115D01*
X85519032Y-53340569D01*
X85520003Y-53350404D01*
X85520003Y-54659601D01*
X85519032Y-54669436D01*
X85516165Y-54678890D01*
X85511506Y-54687602D01*
X85505240Y-54695240D01*
X85497602Y-54701509D01*
X85488888Y-54706167D01*
X85479434Y-54709035D01*
X85469601Y-54710003D01*
X84450401Y-54710003D01*
X84440569Y-54709035D01*
X84431115Y-54706167D01*
X84422400Y-54701509D01*
X84414762Y-54695240D01*
X84408496Y-54687602D01*
X84403838Y-54678890D01*
X84400970Y-54669436D01*
X84400002Y-54659601D01*
X84400002Y-53350404D01*
X84400970Y-53340569D01*
X84403838Y-53331115D01*
X84408496Y-53322403D01*
X84414762Y-53314765D01*
X84422400Y-53308497D01*
X84431115Y-53303838D01*
X84440569Y-53300971D01*
X84450401Y-53300003D01*
X85469601Y-53300003D01*
X85479434Y-53300971D01*
G37*
G36*
X85479434Y-51690971D02*
G01*
X85488888Y-51693839D01*
X85497602Y-51698497D01*
X85505240Y-51704766D01*
X85511506Y-51712404D01*
X85516165Y-51721116D01*
X85519032Y-51730570D01*
X85520003Y-51740405D01*
X85520003Y-53049602D01*
X85519032Y-53059437D01*
X85516165Y-53068891D01*
X85511506Y-53077603D01*
X85505240Y-53085241D01*
X85497602Y-53091509D01*
X85488888Y-53096168D01*
X85479434Y-53099035D01*
X85469601Y-53100003D01*
X84450401Y-53100003D01*
X84440569Y-53099035D01*
X84431115Y-53096168D01*
X84422400Y-53091509D01*
X84414762Y-53085241D01*
X84408496Y-53077603D01*
X84403838Y-53068891D01*
X84400970Y-53059437D01*
X84400002Y-53049602D01*
X84400002Y-51740405D01*
X84400970Y-51730570D01*
X84403838Y-51721116D01*
X84408496Y-51712404D01*
X84414762Y-51704766D01*
X84422400Y-51698497D01*
X84431115Y-51693839D01*
X84440569Y-51690971D01*
X84450401Y-51690003D01*
X85469601Y-51690003D01*
X85479434Y-51690971D01*
G37*
G36*
X86799434Y-53300971D02*
G01*
X86808888Y-53303838D01*
X86817602Y-53308497D01*
X86825240Y-53314765D01*
X86831506Y-53322403D01*
X86836165Y-53331115D01*
X86839032Y-53340569D01*
X86840003Y-53350404D01*
X86840003Y-54659601D01*
X86839032Y-54669436D01*
X86836165Y-54678890D01*
X86831506Y-54687602D01*
X86825240Y-54695240D01*
X86817602Y-54701509D01*
X86808888Y-54706167D01*
X86799434Y-54709035D01*
X86789601Y-54710003D01*
X85770401Y-54710003D01*
X85760569Y-54709035D01*
X85751115Y-54706167D01*
X85742400Y-54701509D01*
X85734762Y-54695240D01*
X85728496Y-54687602D01*
X85723838Y-54678890D01*
X85720970Y-54669436D01*
X85720002Y-54659601D01*
X85720002Y-53350404D01*
X85720970Y-53340569D01*
X85723838Y-53331115D01*
X85728496Y-53322403D01*
X85734762Y-53314765D01*
X85742400Y-53308497D01*
X85751115Y-53303838D01*
X85760569Y-53300971D01*
X85770401Y-53300003D01*
X86789601Y-53300003D01*
X86799434Y-53300971D01*
G37*
G36*
X86799434Y-51690971D02*
G01*
X86808888Y-51693839D01*
X86817602Y-51698497D01*
X86825240Y-51704766D01*
X86831506Y-51712404D01*
X86836165Y-51721116D01*
X86839032Y-51730570D01*
X86840003Y-51740405D01*
X86840003Y-53049602D01*
X86839032Y-53059437D01*
X86836165Y-53068891D01*
X86831506Y-53077603D01*
X86825240Y-53085241D01*
X86817602Y-53091509D01*
X86808888Y-53096168D01*
X86799434Y-53099035D01*
X86789601Y-53100003D01*
X85770401Y-53100003D01*
X85760569Y-53099035D01*
X85751115Y-53096168D01*
X85742400Y-53091509D01*
X85734762Y-53085241D01*
X85728496Y-53077603D01*
X85723838Y-53068891D01*
X85720970Y-53059437D01*
X85720002Y-53049602D01*
X85720002Y-51740405D01*
X85720970Y-51730570D01*
X85723838Y-51721116D01*
X85728496Y-51712404D01*
X85734762Y-51704766D01*
X85742400Y-51698497D01*
X85751115Y-51693839D01*
X85760569Y-51690971D01*
X85770401Y-51690003D01*
X86789601Y-51690003D01*
X86799434Y-51690971D01*
G37*
G36*
X84424998Y-50550003D02*
G01*
X84424998Y-50760005D01*
X84474998Y-50810005D01*
X84624998Y-50810005D01*
X84674998Y-50760005D01*
X84674998Y-50550003D01*
X84724998Y-50500003D01*
X84875000Y-50500003D01*
X84925000Y-50550003D01*
X84925000Y-50760005D01*
X84975000Y-50810005D01*
X85125000Y-50810005D01*
X85175000Y-50760005D01*
X85175000Y-50550003D01*
X85224999Y-50500003D01*
X85374999Y-50500003D01*
X85424999Y-50550003D01*
X85424999Y-50760005D01*
X85474999Y-50810005D01*
X85624999Y-50810005D01*
X85674999Y-50760005D01*
X85674999Y-50550003D01*
X85724998Y-50500003D01*
X85874998Y-50500003D01*
X85924998Y-50550003D01*
X85924998Y-50760005D01*
X85974998Y-50810005D01*
X86125000Y-50810005D01*
X86175000Y-50760005D01*
X86175000Y-50550003D01*
X86225000Y-50500003D01*
X86375000Y-50500003D01*
X86425000Y-50550003D01*
X86425000Y-50760005D01*
X86474999Y-50810005D01*
X86624999Y-50810005D01*
X86674999Y-50760005D01*
X86674999Y-50550003D01*
X86724999Y-50500003D01*
X86874999Y-50500003D01*
X86924999Y-50550003D01*
X86924999Y-51150005D01*
X86874999Y-51200004D01*
X84224999Y-51200004D01*
X84174999Y-51150005D01*
X84174999Y-50550003D01*
X84224999Y-50500003D01*
X84374999Y-50500003D01*
X84424998Y-50550003D01*
G37*
G36*
X86924999Y-55250001D02*
G01*
X86924999Y-55850003D01*
X86874999Y-55900003D01*
X86724999Y-55900003D01*
X86674999Y-55850003D01*
X86674999Y-55640001D01*
X86624999Y-55590001D01*
X86474999Y-55590001D01*
X86425000Y-55640001D01*
X86425000Y-55850003D01*
X86375000Y-55900003D01*
X86225000Y-55900003D01*
X86175000Y-55850003D01*
X86175000Y-55640001D01*
X86125000Y-55590001D01*
X85974998Y-55590001D01*
X85924998Y-55640001D01*
X85924998Y-55850003D01*
X85874998Y-55900003D01*
X85724998Y-55900003D01*
X85674999Y-55850003D01*
X85674999Y-55640001D01*
X85624999Y-55590001D01*
X85474999Y-55590001D01*
X85424999Y-55640001D01*
X85424999Y-55850003D01*
X85374999Y-55900003D01*
X85224999Y-55900003D01*
X85175000Y-55850003D01*
X85175000Y-55640001D01*
X85125000Y-55590001D01*
X84975000Y-55590001D01*
X84925000Y-55640001D01*
X84925000Y-55850003D01*
X84875000Y-55900003D01*
X84724998Y-55900003D01*
X84674998Y-55850003D01*
X84674998Y-55640001D01*
X84624998Y-55590001D01*
X84474998Y-55590001D01*
X84424998Y-55640001D01*
X84424998Y-55850003D01*
X84374999Y-55900003D01*
X84224999Y-55900003D01*
X84174999Y-55850003D01*
X84174999Y-55250001D01*
X84224999Y-55200002D01*
X86874999Y-55200002D01*
X86924999Y-55250001D01*
G37*
D10*
X60375000Y-179000000D02*
G75*
G02*
X59625000Y-179000000I-375000J0D01*
G01*
X59625000Y-179000000D02*
G75*
G02*
X60375000Y-179000000I375000J0D01*
G01*
X126375000Y-179000000D02*
G75*
G02*
X125625000Y-179000000I-375000J0D01*
G01*
X125625000Y-179000000D02*
G75*
G02*
X126375000Y-179000000I375000J0D01*
G01*
D11*
X81435000Y-154650000D02*
X82385000Y-154650000D01*
X82385000Y-153450000D01*
X81435000Y-153450000D01*
X81435000Y-154650000D01*
G36*
X81435000Y-154650000D02*
G01*
X82385000Y-154650000D01*
X82385000Y-153450000D01*
X81435000Y-153450000D01*
X81435000Y-154650000D01*
G37*
X81435000Y-156800000D02*
X82385000Y-156800000D01*
X82385000Y-155600000D01*
X81435000Y-155600000D01*
X81435000Y-156800000D01*
G36*
X81435000Y-156800000D02*
G01*
X82385000Y-156800000D01*
X82385000Y-155600000D01*
X81435000Y-155600000D01*
X81435000Y-156800000D01*
G37*
X81445000Y-152440000D02*
X82395000Y-152440000D01*
X82395000Y-151240000D01*
X81445000Y-151240000D01*
X81445000Y-152440000D01*
G36*
X81445000Y-152440000D02*
G01*
X82395000Y-152440000D01*
X82395000Y-151240000D01*
X81445000Y-151240000D01*
X81445000Y-152440000D01*
G37*
X83295000Y-154640000D02*
X84245000Y-154640000D01*
X84245000Y-153440000D01*
X83295000Y-153440000D01*
X83295000Y-154640000D01*
G36*
X83295000Y-154640000D02*
G01*
X84245000Y-154640000D01*
X84245000Y-153440000D01*
X83295000Y-153440000D01*
X83295000Y-154640000D01*
G37*
X83295000Y-156790000D02*
X84245000Y-156790000D01*
X84245000Y-155590000D01*
X83295000Y-155590000D01*
X83295000Y-156790000D01*
G36*
X83295000Y-156790000D02*
G01*
X84245000Y-156790000D01*
X84245000Y-155590000D01*
X83295000Y-155590000D01*
X83295000Y-156790000D01*
G37*
X83305000Y-152430000D02*
X84255000Y-152430000D01*
X84255000Y-151230000D01*
X83305000Y-151230000D01*
X83305000Y-152430000D01*
G36*
X83305000Y-152430000D02*
G01*
X84255000Y-152430000D01*
X84255000Y-151230000D01*
X83305000Y-151230000D01*
X83305000Y-152430000D01*
G37*
X85125000Y-154630000D02*
X86075000Y-154630000D01*
X86075000Y-153430000D01*
X85125000Y-153430000D01*
X85125000Y-154630000D01*
G36*
X85125000Y-154630000D02*
G01*
X86075000Y-154630000D01*
X86075000Y-153430000D01*
X85125000Y-153430000D01*
X85125000Y-154630000D01*
G37*
X85125000Y-156780000D02*
X86075000Y-156780000D01*
X86075000Y-155580000D01*
X85125000Y-155580000D01*
X85125000Y-156780000D01*
G36*
X85125000Y-156780000D02*
G01*
X86075000Y-156780000D01*
X86075000Y-155580000D01*
X85125000Y-155580000D01*
X85125000Y-156780000D01*
G37*
X85135000Y-152420000D02*
X86085000Y-152420000D01*
X86085000Y-151220000D01*
X85135000Y-151220000D01*
X85135000Y-152420000D01*
G36*
X85135000Y-152420000D02*
G01*
X86085000Y-152420000D01*
X86085000Y-151220000D01*
X85135000Y-151220000D01*
X85135000Y-152420000D01*
G37*
X87340000Y-152460000D02*
X88460000Y-152460000D01*
X88460000Y-151260000D01*
X87340000Y-151260000D01*
X87340000Y-152460000D01*
G36*
X87340000Y-152460000D02*
G01*
X88460000Y-152460000D01*
X88460000Y-151260000D01*
X87340000Y-151260000D01*
X87340000Y-152460000D01*
G37*
X87350000Y-154600000D02*
X88460000Y-154600000D01*
X88460000Y-153400000D01*
X87350000Y-153400000D01*
X87350000Y-154600000D01*
G36*
X87350000Y-154600000D02*
G01*
X88460000Y-154600000D01*
X88460000Y-153400000D01*
X87350000Y-153400000D01*
X87350000Y-154600000D01*
G37*
X87370000Y-156780000D02*
X88480000Y-156780000D01*
X88480000Y-155580000D01*
X87370000Y-155580000D01*
X87370000Y-156780000D01*
G36*
X87370000Y-156780000D02*
G01*
X88480000Y-156780000D01*
X88480000Y-155580000D01*
X87370000Y-155580000D01*
X87370000Y-156780000D01*
G37*
X98630000Y-135220000D02*
X97520000Y-135220000D01*
X97520000Y-136420000D01*
X98630000Y-136420000D01*
X98630000Y-135220000D01*
G36*
X98630000Y-135220000D02*
G01*
X97520000Y-135220000D01*
X97520000Y-136420000D01*
X98630000Y-136420000D01*
X98630000Y-135220000D01*
G37*
X98650000Y-137400000D02*
X97540000Y-137400000D01*
X97540000Y-138600000D01*
X98650000Y-138600000D01*
X98650000Y-137400000D01*
G36*
X98650000Y-137400000D02*
G01*
X97540000Y-137400000D01*
X97540000Y-138600000D01*
X98650000Y-138600000D01*
X98650000Y-137400000D01*
G37*
X98660000Y-139540000D02*
X97540000Y-139540000D01*
X97540000Y-140740000D01*
X98660000Y-140740000D01*
X98660000Y-139540000D01*
G36*
X98660000Y-139540000D02*
G01*
X97540000Y-139540000D01*
X97540000Y-140740000D01*
X98660000Y-140740000D01*
X98660000Y-139540000D01*
G37*
X100865000Y-139580000D02*
X99915000Y-139580000D01*
X99915000Y-140780000D01*
X100865000Y-140780000D01*
X100865000Y-139580000D01*
G36*
X100865000Y-139580000D02*
G01*
X99915000Y-139580000D01*
X99915000Y-140780000D01*
X100865000Y-140780000D01*
X100865000Y-139580000D01*
G37*
X100875000Y-135220000D02*
X99925000Y-135220000D01*
X99925000Y-136420000D01*
X100875000Y-136420000D01*
X100875000Y-135220000D01*
G36*
X100875000Y-135220000D02*
G01*
X99925000Y-135220000D01*
X99925000Y-136420000D01*
X100875000Y-136420000D01*
X100875000Y-135220000D01*
G37*
X100875000Y-137370000D02*
X99925000Y-137370000D01*
X99925000Y-138570000D01*
X100875000Y-138570000D01*
X100875000Y-137370000D01*
G36*
X100875000Y-137370000D02*
G01*
X99925000Y-137370000D01*
X99925000Y-138570000D01*
X100875000Y-138570000D01*
X100875000Y-137370000D01*
G37*
X102695000Y-139570000D02*
X101745000Y-139570000D01*
X101745000Y-140770000D01*
X102695000Y-140770000D01*
X102695000Y-139570000D01*
G36*
X102695000Y-139570000D02*
G01*
X101745000Y-139570000D01*
X101745000Y-140770000D01*
X102695000Y-140770000D01*
X102695000Y-139570000D01*
G37*
X102705000Y-135210000D02*
X101755000Y-135210000D01*
X101755000Y-136410000D01*
X102705000Y-136410000D01*
X102705000Y-135210000D01*
G36*
X102705000Y-135210000D02*
G01*
X101755000Y-135210000D01*
X101755000Y-136410000D01*
X102705000Y-136410000D01*
X102705000Y-135210000D01*
G37*
X102705000Y-137360000D02*
X101755000Y-137360000D01*
X101755000Y-138560000D01*
X102705000Y-138560000D01*
X102705000Y-137360000D01*
G36*
X102705000Y-137360000D02*
G01*
X101755000Y-137360000D01*
X101755000Y-138560000D01*
X102705000Y-138560000D01*
X102705000Y-137360000D01*
G37*
X104555000Y-139560000D02*
X103605000Y-139560000D01*
X103605000Y-140760000D01*
X104555000Y-140760000D01*
X104555000Y-139560000D01*
G36*
X104555000Y-139560000D02*
G01*
X103605000Y-139560000D01*
X103605000Y-140760000D01*
X104555000Y-140760000D01*
X104555000Y-139560000D01*
G37*
X104565000Y-135200000D02*
X103615000Y-135200000D01*
X103615000Y-136400000D01*
X104565000Y-136400000D01*
X104565000Y-135200000D01*
G36*
X104565000Y-135200000D02*
G01*
X103615000Y-135200000D01*
X103615000Y-136400000D01*
X104565000Y-136400000D01*
X104565000Y-135200000D01*
G37*
X104565000Y-137350000D02*
X103615000Y-137350000D01*
X103615000Y-138550000D01*
X104565000Y-138550000D01*
X104565000Y-137350000D01*
G36*
X104565000Y-137350000D02*
G01*
X103615000Y-137350000D01*
X103615000Y-138550000D01*
X104565000Y-138550000D01*
X104565000Y-137350000D01*
G37*
X98630000Y-151220000D02*
X97520000Y-151220000D01*
X97520000Y-152420000D01*
X98630000Y-152420000D01*
X98630000Y-151220000D01*
G36*
X98630000Y-151220000D02*
G01*
X97520000Y-151220000D01*
X97520000Y-152420000D01*
X98630000Y-152420000D01*
X98630000Y-151220000D01*
G37*
X98650000Y-153400000D02*
X97540000Y-153400000D01*
X97540000Y-154600000D01*
X98650000Y-154600000D01*
X98650000Y-153400000D01*
G36*
X98650000Y-153400000D02*
G01*
X97540000Y-153400000D01*
X97540000Y-154600000D01*
X98650000Y-154600000D01*
X98650000Y-153400000D01*
G37*
X98660000Y-155540000D02*
X97540000Y-155540000D01*
X97540000Y-156740000D01*
X98660000Y-156740000D01*
X98660000Y-155540000D01*
G36*
X98660000Y-155540000D02*
G01*
X97540000Y-155540000D01*
X97540000Y-156740000D01*
X98660000Y-156740000D01*
X98660000Y-155540000D01*
G37*
X100865000Y-155580000D02*
X99915000Y-155580000D01*
X99915000Y-156780000D01*
X100865000Y-156780000D01*
X100865000Y-155580000D01*
G36*
X100865000Y-155580000D02*
G01*
X99915000Y-155580000D01*
X99915000Y-156780000D01*
X100865000Y-156780000D01*
X100865000Y-155580000D01*
G37*
X100875000Y-151220000D02*
X99925000Y-151220000D01*
X99925000Y-152420000D01*
X100875000Y-152420000D01*
X100875000Y-151220000D01*
G36*
X100875000Y-151220000D02*
G01*
X99925000Y-151220000D01*
X99925000Y-152420000D01*
X100875000Y-152420000D01*
X100875000Y-151220000D01*
G37*
X100875000Y-153370000D02*
X99925000Y-153370000D01*
X99925000Y-154570000D01*
X100875000Y-154570000D01*
X100875000Y-153370000D01*
G36*
X100875000Y-153370000D02*
G01*
X99925000Y-153370000D01*
X99925000Y-154570000D01*
X100875000Y-154570000D01*
X100875000Y-153370000D01*
G37*
X102695000Y-155570000D02*
X101745000Y-155570000D01*
X101745000Y-156770000D01*
X102695000Y-156770000D01*
X102695000Y-155570000D01*
G36*
X102695000Y-155570000D02*
G01*
X101745000Y-155570000D01*
X101745000Y-156770000D01*
X102695000Y-156770000D01*
X102695000Y-155570000D01*
G37*
X102705000Y-151210000D02*
X101755000Y-151210000D01*
X101755000Y-152410000D01*
X102705000Y-152410000D01*
X102705000Y-151210000D01*
G36*
X102705000Y-151210000D02*
G01*
X101755000Y-151210000D01*
X101755000Y-152410000D01*
X102705000Y-152410000D01*
X102705000Y-151210000D01*
G37*
X102705000Y-153360000D02*
X101755000Y-153360000D01*
X101755000Y-154560000D01*
X102705000Y-154560000D01*
X102705000Y-153360000D01*
G36*
X102705000Y-153360000D02*
G01*
X101755000Y-153360000D01*
X101755000Y-154560000D01*
X102705000Y-154560000D01*
X102705000Y-153360000D01*
G37*
X104555000Y-155560000D02*
X103605000Y-155560000D01*
X103605000Y-156760000D01*
X104555000Y-156760000D01*
X104555000Y-155560000D01*
G36*
X104555000Y-155560000D02*
G01*
X103605000Y-155560000D01*
X103605000Y-156760000D01*
X104555000Y-156760000D01*
X104555000Y-155560000D01*
G37*
X104565000Y-151200000D02*
X103615000Y-151200000D01*
X103615000Y-152400000D01*
X104565000Y-152400000D01*
X104565000Y-151200000D01*
G36*
X104565000Y-151200000D02*
G01*
X103615000Y-151200000D01*
X103615000Y-152400000D01*
X104565000Y-152400000D01*
X104565000Y-151200000D01*
G37*
X104565000Y-153350000D02*
X103615000Y-153350000D01*
X103615000Y-154550000D01*
X104565000Y-154550000D01*
X104565000Y-153350000D01*
G36*
X104565000Y-153350000D02*
G01*
X103615000Y-153350000D01*
X103615000Y-154550000D01*
X104565000Y-154550000D01*
X104565000Y-153350000D01*
G37*
D10*
X126375000Y-113000000D02*
G75*
G02*
X125625000Y-113000000I-375000J0D01*
G01*
X125625000Y-113000000D02*
G75*
G02*
X126375000Y-113000000I375000J0D01*
G01*
D13*
X65000000Y-80950000D03*
X67950000Y-80950000D03*
D14*
X119600000Y-72487500D03*
X119600000Y-74312500D03*
D15*
X104875000Y-52012500D03*
X106775000Y-52012500D03*
D16*
X99550000Y-92200000D03*
X97650000Y-92200000D03*
D17*
X118500000Y-20775000D03*
X118500000Y-17825000D03*
D18*
X79612500Y-53500000D03*
X79612500Y-53000000D03*
X79612500Y-52500000D03*
X78187500Y-52500000D03*
X78187500Y-53000000D03*
X78187500Y-53500000D03*
D19*
X88514000Y-134084000D03*
X88012000Y-134084000D03*
X87510000Y-134084000D03*
X87008000Y-134084000D03*
X86506000Y-134084000D03*
X86004000Y-134084000D03*
X85502000Y-134084000D03*
X85000000Y-134084000D03*
X84498000Y-134084000D03*
X83996000Y-134084000D03*
X83494000Y-134084000D03*
X82992000Y-134084000D03*
X82490000Y-134084000D03*
X81988000Y-134084000D03*
X81486000Y-134084000D03*
X81486000Y-141916000D03*
X81988000Y-141916000D03*
X82490000Y-141916000D03*
X82992000Y-141916000D03*
X83494000Y-141916000D03*
X83996000Y-141916000D03*
X84498000Y-141916000D03*
X85000000Y-141916000D03*
X85502000Y-141916000D03*
X86004000Y-141916000D03*
X86506000Y-141916000D03*
X87008000Y-141916000D03*
X87510000Y-141916000D03*
X88012000Y-141916000D03*
X88514000Y-141916000D03*
D20*
X63260000Y-41105000D03*
X60310000Y-41105000D03*
D14*
X105100000Y-72487500D03*
X105100000Y-74312500D03*
X101225000Y-44410000D03*
X101225000Y-46235000D03*
D21*
X85600000Y-62705000D03*
X85600000Y-70315000D03*
D22*
X71099370Y-55550003D03*
X71599496Y-55550003D03*
X72099622Y-55550003D03*
D23*
X72599748Y-55350003D03*
D22*
X73099874Y-55550003D03*
D24*
X74850000Y-55550003D03*
X74850000Y-50850003D03*
D22*
X73099874Y-50850003D03*
X72599748Y-50850003D03*
X72099622Y-50850003D03*
X71599496Y-50850003D03*
X71099370Y-50850003D03*
D25*
X121100000Y-20812500D03*
X121100000Y-18987500D03*
D22*
X60399370Y-55550000D03*
X60899496Y-55550000D03*
X61399622Y-55550000D03*
D23*
X61899748Y-55350000D03*
D22*
X62399874Y-55550000D03*
D24*
X64150000Y-55550000D03*
X64150000Y-50850000D03*
D22*
X62399874Y-50850000D03*
X61899748Y-50850000D03*
X61399622Y-50850000D03*
X60899496Y-50850000D03*
X60399370Y-50850000D03*
D14*
X123100000Y-18987500D03*
X123100000Y-20812500D03*
D13*
X86425000Y-77700000D03*
X89375000Y-77700000D03*
D26*
X93500000Y-145287500D03*
X93000000Y-145287500D03*
X92500000Y-145287500D03*
X92500000Y-146712500D03*
X93000000Y-146712500D03*
X93500000Y-146712500D03*
D25*
X100900000Y-68212500D03*
X100900000Y-66387500D03*
X99225000Y-46225000D03*
X99225000Y-44400000D03*
D20*
X73905000Y-77690000D03*
X70955000Y-77690000D03*
D16*
X103050000Y-85780000D03*
X101150000Y-85780000D03*
D27*
X92200000Y-27207500D03*
X92200000Y-20707500D03*
D20*
X73950000Y-44315000D03*
X71000000Y-44315000D03*
D25*
X104318750Y-58512500D03*
X104318750Y-56687500D03*
D28*
X104500000Y-66425000D03*
X104500000Y-67975000D03*
D29*
X97631250Y-53437500D03*
D30*
X98418750Y-53437500D03*
X99418750Y-53437500D03*
X100418750Y-53437500D03*
D31*
X101206250Y-53437500D03*
D32*
X97631250Y-52650000D03*
D33*
X98418750Y-52650000D03*
X99418750Y-52650000D03*
X100418750Y-52650000D03*
D34*
X101206250Y-52650000D03*
D32*
X97631250Y-51650000D03*
D33*
X98418750Y-51650000D03*
X99418750Y-51650000D03*
X100418750Y-51650000D03*
D34*
X101206250Y-51650000D03*
D32*
X97631250Y-50650000D03*
D33*
X98418750Y-50650000D03*
X99418750Y-50650000D03*
X100418750Y-50650000D03*
D34*
X101206250Y-50650000D03*
D35*
X97631250Y-49862500D03*
D36*
X98418750Y-49862500D03*
X99418750Y-49862500D03*
X100418750Y-49862500D03*
D37*
X101206250Y-49862500D03*
D38*
X97168750Y-54587500D03*
X97668750Y-54587500D03*
X98168750Y-54587500D03*
X98668750Y-54587500D03*
X99168750Y-54587500D03*
X99668750Y-54587500D03*
X100168750Y-54587500D03*
X100668750Y-54587500D03*
X101168750Y-54587500D03*
X101668750Y-54587500D03*
D39*
X102356250Y-53900000D03*
X102356250Y-53400000D03*
X102356250Y-52900000D03*
X102356250Y-52400000D03*
X102356250Y-51900000D03*
X102356250Y-51400000D03*
X102356250Y-50900000D03*
X102356250Y-50400000D03*
X102356250Y-49900000D03*
X102356250Y-49400000D03*
D38*
X101668750Y-48712500D03*
X101168750Y-48712500D03*
X100668750Y-48712500D03*
X100168750Y-48712500D03*
X99668750Y-48712500D03*
X99168750Y-48712500D03*
X98668750Y-48712500D03*
X98168750Y-48712500D03*
X97668750Y-48712500D03*
X97168750Y-48712500D03*
D39*
X96481250Y-49400000D03*
X96481250Y-49900000D03*
X96481250Y-50400000D03*
X96481250Y-50900000D03*
X96481250Y-51400000D03*
X96481250Y-51900000D03*
X96481250Y-52400000D03*
X96481250Y-52900000D03*
X96481250Y-53400000D03*
X96481250Y-53900000D03*
D40*
X109300000Y-72450000D03*
X109300000Y-74350000D03*
D15*
X86470000Y-46925000D03*
X88370000Y-46925000D03*
D41*
X97225000Y-46262500D03*
X97225000Y-44362500D03*
D40*
X108000000Y-68350000D03*
X108000000Y-70250000D03*
D25*
X95113750Y-58525000D03*
X95113750Y-56700000D03*
D13*
X86375000Y-84450000D03*
X89325000Y-84450000D03*
D42*
X70487500Y-59465000D03*
X72312500Y-59465000D03*
D13*
X75700000Y-41065000D03*
X78650000Y-41065000D03*
D14*
X107025000Y-44400000D03*
X107025000Y-46225000D03*
D43*
X103350000Y-35000000D03*
X107650000Y-35000000D03*
D41*
X58300000Y-48650000D03*
X58300000Y-46750000D03*
D44*
X112250000Y-85997500D03*
X111600000Y-85997500D03*
X110950000Y-85997500D03*
X110300000Y-85997500D03*
X109650000Y-85997500D03*
X109000000Y-85997500D03*
X108350000Y-85997500D03*
X108350000Y-91722500D03*
X109000000Y-91722500D03*
X109650000Y-91722500D03*
X110300000Y-91722500D03*
X110950000Y-91722500D03*
X111600000Y-91722500D03*
X112250000Y-91722500D03*
D40*
X116900000Y-72450000D03*
X116900000Y-74350000D03*
D21*
X74800000Y-62695000D03*
X74800000Y-70305000D03*
D40*
X114130000Y-86050000D03*
X114130000Y-87950000D03*
D15*
X81570000Y-48125000D03*
X83470000Y-48125000D03*
D13*
X86400000Y-80950000D03*
X89350000Y-80950000D03*
D25*
X104803685Y-87893911D03*
X104803685Y-86068911D03*
D40*
X104300000Y-60350000D03*
X104300000Y-62250000D03*
D14*
X105125000Y-44400000D03*
X105125000Y-46225000D03*
D25*
X97400000Y-62212500D03*
X97400000Y-60387500D03*
D20*
X73950000Y-80950000D03*
X71000000Y-80950000D03*
D14*
X127800000Y-59287500D03*
X127800000Y-61112500D03*
D40*
X97100000Y-56662500D03*
X97100000Y-58562500D03*
D41*
X79800000Y-48650000D03*
X79800000Y-46750000D03*
D45*
X103100000Y-87800000D03*
X102150000Y-87800000D03*
X101200000Y-87800000D03*
X101200000Y-90075000D03*
X103100000Y-90075000D03*
D22*
X81799370Y-55550003D03*
X82299496Y-55550003D03*
X82799622Y-55550003D03*
D23*
X83299748Y-55350003D03*
D22*
X83799874Y-55550003D03*
D24*
X85550000Y-55550003D03*
X85550000Y-50850003D03*
D22*
X83799874Y-50850003D03*
X83299748Y-50850003D03*
X82799622Y-50850003D03*
X82299496Y-50850003D03*
X81799370Y-50850003D03*
D16*
X83070000Y-57475000D03*
X81170000Y-57475000D03*
D14*
X103125000Y-44420000D03*
X103125000Y-46245000D03*
D13*
X65010000Y-41055000D03*
X67960000Y-41055000D03*
D14*
X93900000Y-48887500D03*
X93900000Y-50712500D03*
D13*
X75700000Y-80950000D03*
X78650000Y-80950000D03*
D41*
X69100000Y-48650000D03*
X69100000Y-46750000D03*
D14*
X93400000Y-90887500D03*
X93400000Y-92712500D03*
D13*
X86400000Y-74450000D03*
X89350000Y-74450000D03*
D20*
X63215000Y-77680000D03*
X60265000Y-77680000D03*
X84670000Y-44325000D03*
X81720000Y-44325000D03*
D15*
X75750000Y-46915000D03*
X77650000Y-46915000D03*
D40*
X106300000Y-60350000D03*
X106300000Y-62250000D03*
D16*
X115350000Y-31400000D03*
X113450000Y-31400000D03*
D13*
X86420000Y-41075000D03*
X89370000Y-41075000D03*
D42*
X59797500Y-59455000D03*
X61622500Y-59455000D03*
D13*
X64990000Y-74430000D03*
X67940000Y-74430000D03*
X75705000Y-77690000D03*
X78655000Y-77690000D03*
D15*
X65060000Y-48905000D03*
X66960000Y-48905000D03*
D25*
X106300000Y-58512500D03*
X106300000Y-56687500D03*
D14*
X99400000Y-60387500D03*
X99400000Y-62212500D03*
D46*
X101125000Y-64812500D03*
X102675000Y-64812500D03*
D13*
X65010000Y-44305000D03*
X67960000Y-44305000D03*
D47*
X113200000Y-28800000D03*
X117600000Y-28800000D03*
D15*
X75750000Y-48915000D03*
X77650000Y-48915000D03*
D19*
X88514000Y-150084000D03*
X88012000Y-150084000D03*
X87510000Y-150084000D03*
X87008000Y-150084000D03*
X86506000Y-150084000D03*
X86004000Y-150084000D03*
X85502000Y-150084000D03*
X85000000Y-150084000D03*
X84498000Y-150084000D03*
X83996000Y-150084000D03*
X83494000Y-150084000D03*
X82992000Y-150084000D03*
X82490000Y-150084000D03*
X81988000Y-150084000D03*
X81486000Y-150084000D03*
X81486000Y-157916000D03*
X81988000Y-157916000D03*
X82490000Y-157916000D03*
X82992000Y-157916000D03*
X83494000Y-157916000D03*
X83996000Y-157916000D03*
X84498000Y-157916000D03*
X85000000Y-157916000D03*
X85502000Y-157916000D03*
X86004000Y-157916000D03*
X86506000Y-157916000D03*
X87008000Y-157916000D03*
X87510000Y-157916000D03*
X88012000Y-157916000D03*
X88514000Y-157916000D03*
D41*
X114110000Y-91840000D03*
X114110000Y-89940000D03*
D20*
X84625000Y-74450000D03*
X81675000Y-74450000D03*
D15*
X70850000Y-48115000D03*
X72750000Y-48115000D03*
D27*
X101700000Y-27307500D03*
X101700000Y-20807500D03*
D48*
X115337500Y-20950000D03*
X115337500Y-20000000D03*
X115337500Y-19050000D03*
X113062500Y-19050000D03*
X113062500Y-20000000D03*
X113062500Y-20950000D03*
D49*
X97486000Y-141916000D03*
X97988000Y-141916000D03*
X98490000Y-141916000D03*
X98992000Y-141916000D03*
X99494000Y-141916000D03*
X99996000Y-141916000D03*
X100498000Y-141916000D03*
X101000000Y-141916000D03*
X101502000Y-141916000D03*
X102004000Y-141916000D03*
X102506000Y-141916000D03*
X103008000Y-141916000D03*
X103510000Y-141916000D03*
X104012000Y-141916000D03*
X104514000Y-141916000D03*
X104514000Y-134084000D03*
X104012000Y-134084000D03*
X103510000Y-134084000D03*
X103008000Y-134084000D03*
X102506000Y-134084000D03*
X102004000Y-134084000D03*
X101502000Y-134084000D03*
X101000000Y-134084000D03*
X100498000Y-134084000D03*
X99996000Y-134084000D03*
X99494000Y-134084000D03*
X98992000Y-134084000D03*
X98490000Y-134084000D03*
X97988000Y-134084000D03*
X97486000Y-134084000D03*
D16*
X103050000Y-92080000D03*
X101150000Y-92080000D03*
D50*
X113200000Y-24500000D03*
X116800000Y-24500000D03*
D20*
X63215000Y-80950000D03*
X60265000Y-80950000D03*
D25*
X102800000Y-68212500D03*
X102800000Y-66387500D03*
D13*
X75680000Y-74440000D03*
X78630000Y-74440000D03*
D45*
X99600000Y-87920000D03*
X98650000Y-87920000D03*
X97700000Y-87920000D03*
X97700000Y-90195000D03*
X99600000Y-90195000D03*
D16*
X99550000Y-85800000D03*
X97650000Y-85800000D03*
D14*
X91500000Y-48887500D03*
X91500000Y-50712500D03*
D51*
X99200000Y-67987500D03*
X99200000Y-66437500D03*
D49*
X97486000Y-157916000D03*
X97988000Y-157916000D03*
X98490000Y-157916000D03*
X98992000Y-157916000D03*
X99494000Y-157916000D03*
X99996000Y-157916000D03*
X100498000Y-157916000D03*
X101000000Y-157916000D03*
X101502000Y-157916000D03*
X102004000Y-157916000D03*
X102506000Y-157916000D03*
X103008000Y-157916000D03*
X103510000Y-157916000D03*
X104012000Y-157916000D03*
X104514000Y-157916000D03*
X104514000Y-150084000D03*
X104012000Y-150084000D03*
X103510000Y-150084000D03*
X103008000Y-150084000D03*
X102506000Y-150084000D03*
X102004000Y-150084000D03*
X101502000Y-150084000D03*
X101000000Y-150084000D03*
X100498000Y-150084000D03*
X99996000Y-150084000D03*
X99494000Y-150084000D03*
X98992000Y-150084000D03*
X98490000Y-150084000D03*
X97988000Y-150084000D03*
X97486000Y-150084000D03*
D13*
X75700000Y-44315000D03*
X78650000Y-44315000D03*
D16*
X106775000Y-48012500D03*
X104875000Y-48012500D03*
X72350000Y-57465000D03*
X70450000Y-57465000D03*
D40*
X91500000Y-52450000D03*
X91500000Y-54350000D03*
D14*
X91400000Y-90887500D03*
X91400000Y-92712500D03*
D21*
X64100000Y-62685000D03*
X64100000Y-70295000D03*
D28*
X102618750Y-56637500D03*
X102618750Y-58187500D03*
D15*
X60160000Y-48105000D03*
X62060000Y-48105000D03*
D42*
X81207500Y-59475000D03*
X83032500Y-59475000D03*
D16*
X106775000Y-50012500D03*
X104875000Y-50012500D03*
D52*
X114650000Y-74150000D03*
X114650000Y-73650000D03*
X114650000Y-73150000D03*
X114650000Y-72650000D03*
X111550000Y-72650000D03*
X111550000Y-73150000D03*
X111550000Y-73650000D03*
X111550000Y-74150000D03*
D20*
X63215000Y-74430000D03*
X60265000Y-74430000D03*
D53*
X110987500Y-68300000D03*
X110987500Y-68800000D03*
X110987500Y-69300000D03*
X110987500Y-69800000D03*
X110987500Y-70300000D03*
X115212500Y-70300000D03*
X115212500Y-69800000D03*
X115212500Y-69300000D03*
X115212500Y-68800000D03*
X115212500Y-68300000D03*
D54*
X114350000Y-38000000D03*
X117650000Y-38000000D03*
D16*
X61660000Y-57455000D03*
X59760000Y-57455000D03*
D20*
X63260000Y-44305000D03*
X60310000Y-44305000D03*
D15*
X65060000Y-46905000D03*
X66960000Y-46905000D03*
X86470000Y-48925000D03*
X88370000Y-48925000D03*
D20*
X73950000Y-41115000D03*
X71000000Y-41115000D03*
D13*
X65015000Y-77680000D03*
X67965000Y-77680000D03*
D20*
X84670000Y-41125000D03*
X81720000Y-41125000D03*
D13*
X86420000Y-44325000D03*
X89370000Y-44325000D03*
D40*
X95200000Y-60350000D03*
X95200000Y-62250000D03*
D20*
X84625000Y-77700000D03*
X81675000Y-77700000D03*
D14*
X129700000Y-59287500D03*
X129700000Y-61112500D03*
D15*
X113250000Y-17100000D03*
X115150000Y-17100000D03*
D20*
X73905000Y-74440000D03*
X70955000Y-74440000D03*
X84650000Y-80950000D03*
X81700000Y-80950000D03*
D55*
X138000000Y-195500000D02*
X138000000Y-14500000D01*
X136500000Y-13000000D02*
X50500000Y-13000000D01*
X136500000Y-13000000D02*
G75*
G02*
X138000000Y-14500000I0J-1500000D01*
G01*
X138000000Y-195500000D02*
G75*
G02*
X136500000Y-197000000I-1500000J0D01*
G01*
X50500000Y-197000000D02*
G75*
G02*
X49000000Y-195500000I0J1500000D01*
G01*
X50500000Y-197000000D02*
X136500000Y-197000000D01*
X49000000Y-14500000D02*
G75*
G02*
X50500000Y-13000000I1500000J0D01*
G01*
X49000000Y-14500000D02*
X49000000Y-195500000D01*
M02*
