G04 #@! TF.GenerationSoftware,KiCad,Pcbnew,9.0.7*
G04 #@! TF.CreationDate,2026-01-14T12:00:45+02:00*
G04 #@! TF.ProjectId,Nerd QX,4e657264-2051-4582-9e6b-696361645f70,1.0.1*
G04 #@! TF.SameCoordinates,Original*
G04 #@! TF.FileFunction,Paste,Bot*
G04 #@! TF.FilePolarity,Positive*
%FSLAX46Y46*%
G04 Gerber Fmt 4.6, Leading zero omitted, Abs format (unit mm)*
G04 Created by KiCad (PCBNEW 9.0.7) date 2026-01-14 12:00:45*
%MOMM*%
%LPD*%
G01*
G04 APERTURE LIST*
G04 Aperture macros list*
%AMRoundRect*
0 Rectangle with rounded corners*
0 $1 Rounding radius*
0 $2 $3 $4 $5 $6 $7 $8 $9 X,Y pos of 4 corners*
0 Add a 4 corners polygon primitive as box body*
4,1,4,$2,$3,$4,$5,$6,$7,$8,$9,$2,$3,0*
0 Add four circle primitives for the rounded corners*
1,1,$1+$1,$2,$3*
1,1,$1+$1,$4,$5*
1,1,$1+$1,$6,$7*
1,1,$1+$1,$8,$9*
0 Add four rect primitives between the rounded corners*
20,1,$1+$1,$2,$3,$4,$5,0*
20,1,$1+$1,$4,$5,$6,$7,0*
20,1,$1+$1,$6,$7,$8,$9,0*
20,1,$1+$1,$8,$9,$2,$3,0*%
G04 Aperture macros list end*
%ADD10RoundRect,0.250000X-0.475000X0.250000X-0.475000X-0.250000X0.475000X-0.250000X0.475000X0.250000X0*%
%ADD11RoundRect,0.250000X0.250000X0.475000X-0.250000X0.475000X-0.250000X-0.475000X0.250000X-0.475000X0*%
%ADD12RoundRect,0.250000X-0.262500X-0.450000X0.262500X-0.450000X0.262500X0.450000X-0.262500X0.450000X0*%
%ADD13RoundRect,0.250000X0.262500X0.450000X-0.262500X0.450000X-0.262500X-0.450000X0.262500X-0.450000X0*%
%ADD14RoundRect,0.250000X0.475000X-0.250000X0.475000X0.250000X-0.475000X0.250000X-0.475000X-0.250000X0*%
%ADD15RoundRect,0.250000X-0.450000X0.262500X-0.450000X-0.262500X0.450000X-0.262500X0.450000X0.262500X0*%
%ADD16RoundRect,0.250000X-0.325000X-1.100000X0.325000X-1.100000X0.325000X1.100000X-0.325000X1.100000X0*%
%ADD17RoundRect,0.050000X-0.400000X-0.050000X0.400000X-0.050000X0.400000X0.050000X-0.400000X0.050000X0*%
%ADD18RoundRect,0.050000X-0.350000X-0.050000X0.350000X-0.050000X0.350000X0.050000X-0.350000X0.050000X0*%
%ADD19RoundRect,0.050000X-0.050000X-0.350000X0.050000X-0.350000X0.050000X0.350000X-0.050000X0.350000X0*%
%ADD20RoundRect,0.250000X0.450000X-0.262500X0.450000X0.262500X-0.450000X0.262500X-0.450000X-0.262500X0*%
%ADD21RoundRect,0.250000X-0.250000X-0.475000X0.250000X-0.475000X0.250000X0.475000X-0.250000X0.475000X0*%
%ADD22RoundRect,0.250000X0.325000X1.100000X-0.325000X1.100000X-0.325000X-1.100000X0.325000X-1.100000X0*%
%ADD23R,1.000000X0.900000*%
%ADD24R,0.650000X0.750000*%
%ADD25RoundRect,0.062500X0.062500X-0.187500X0.062500X0.187500X-0.062500X0.187500X-0.062500X-0.187500X0*%
G04 #@! TA.AperFunction,Profile*
%ADD26C,0.100000*%
G04 #@! TD*
G04 APERTURE END LIST*
D10*
X90180000Y-150340000D03*
X90180000Y-152240000D03*
X113200000Y-142250000D03*
X113200000Y-144150000D03*
D11*
X107190000Y-148190000D03*
X105290000Y-148190000D03*
D12*
X83697500Y-148460000D03*
X85522500Y-148460000D03*
D13*
X77612500Y-59500000D03*
X75787500Y-59500000D03*
D10*
X100860000Y-130190000D03*
X100860000Y-132090000D03*
D14*
X95190000Y-161950000D03*
X95190000Y-160050000D03*
D15*
X102720000Y-144687500D03*
X102720000Y-146512500D03*
D10*
X90855000Y-160020000D03*
X90855000Y-161920000D03*
D16*
X97725000Y-153100000D03*
X100675000Y-153100000D03*
D14*
X84890000Y-146545000D03*
X84890000Y-144645000D03*
D15*
X101100000Y-160077500D03*
X101100000Y-161902500D03*
D14*
X118100000Y-130950000D03*
X118100000Y-129050000D03*
D17*
X114700000Y-141000000D03*
D18*
X114650000Y-140600000D03*
X114650000Y-140200000D03*
X114650000Y-139800000D03*
D19*
X114900000Y-139150000D03*
X115300000Y-139150000D03*
X115700000Y-139150000D03*
X116100000Y-139150000D03*
D18*
X116350000Y-139800000D03*
X116350000Y-140200000D03*
X116350000Y-140600000D03*
X116350000Y-141000000D03*
D19*
X116100000Y-141650000D03*
X115700000Y-141650000D03*
X115300000Y-141650000D03*
X114900000Y-141650000D03*
D10*
X104790000Y-130220000D03*
X104790000Y-132120000D03*
D20*
X82900000Y-146522500D03*
X82900000Y-144697500D03*
D13*
X84212500Y-142900000D03*
X82387500Y-142900000D03*
D11*
X87600000Y-155700000D03*
X85700000Y-155700000D03*
D10*
X86870000Y-160020000D03*
X86870000Y-161920000D03*
D11*
X80190000Y-134120000D03*
X78290000Y-134120000D03*
D12*
X101757500Y-142890000D03*
X103582500Y-142890000D03*
D14*
X77600000Y-57750000D03*
X77600000Y-55850000D03*
D21*
X105130000Y-145500000D03*
X107030000Y-145500000D03*
X98340000Y-139770000D03*
X100240000Y-139770000D03*
X98210000Y-157700000D03*
X100110000Y-157700000D03*
X98220000Y-150400000D03*
X100120000Y-150400000D03*
X98330000Y-141750000D03*
X100230000Y-141750000D03*
D11*
X80590000Y-146030000D03*
X78690000Y-146030000D03*
D10*
X90200000Y-155930000D03*
X90200000Y-157830000D03*
X82100000Y-57650000D03*
X82100000Y-59550000D03*
D14*
X66900000Y-57750000D03*
X66900000Y-55850000D03*
X99150000Y-161965000D03*
X99150000Y-160065000D03*
D11*
X107160000Y-159110000D03*
X105260000Y-159110000D03*
X116650000Y-132900000D03*
X114750000Y-132900000D03*
D10*
X60700000Y-57650000D03*
X60700000Y-59550000D03*
D14*
X93000000Y-147050000D03*
X93000000Y-145150000D03*
X86890000Y-146545000D03*
X86890000Y-144645000D03*
D15*
X83010000Y-160047500D03*
X83010000Y-161872500D03*
D21*
X78760000Y-143070000D03*
X80660000Y-143070000D03*
D14*
X97175000Y-161965000D03*
X97175000Y-160065000D03*
D21*
X78700000Y-149020000D03*
X80600000Y-149020000D03*
D10*
X90100000Y-139950000D03*
X90100000Y-141850000D03*
D14*
X77600000Y-53950000D03*
X77600000Y-52050000D03*
D20*
X84920000Y-161882500D03*
X84920000Y-160057500D03*
D14*
X88887476Y-132088486D03*
X88887476Y-130188486D03*
X100770000Y-146520000D03*
X100770000Y-144620000D03*
D11*
X87650000Y-141700000D03*
X85750000Y-141700000D03*
X87650000Y-139700000D03*
X85750000Y-139700000D03*
D14*
X95980000Y-157840000D03*
X95980000Y-155940000D03*
X85100000Y-128650000D03*
X85100000Y-126750000D03*
D13*
X66912500Y-59500000D03*
X65087500Y-59500000D03*
D21*
X105700000Y-134130000D03*
X107600000Y-134130000D03*
D14*
X95820000Y-141860000D03*
X95820000Y-139960000D03*
D15*
X82927476Y-130215986D03*
X82927476Y-132040986D03*
D22*
X88175000Y-137000000D03*
X85225000Y-137000000D03*
D14*
X57700000Y-59550000D03*
X57700000Y-57650000D03*
X86887476Y-132088486D03*
X86887476Y-130188486D03*
X95820000Y-152240000D03*
X95820000Y-150340000D03*
D13*
X102182500Y-148420000D03*
X100357500Y-148420000D03*
D10*
X98850000Y-130190000D03*
X98850000Y-132090000D03*
D13*
X116612500Y-134900000D03*
X114787500Y-134900000D03*
D12*
X114787500Y-136800000D03*
X116612500Y-136800000D03*
D23*
X83275000Y-128475000D03*
X81125000Y-128475000D03*
X81125000Y-126925000D03*
X83275000Y-126925000D03*
D21*
X98370000Y-134340000D03*
X100270000Y-134340000D03*
X98210000Y-155700000D03*
X100110000Y-155700000D03*
D24*
X115300000Y-130000000D03*
X116100000Y-130000000D03*
D25*
X116450000Y-130950000D03*
X115950000Y-130950000D03*
X115450000Y-130950000D03*
X114950000Y-130950000D03*
X114950000Y-129050000D03*
X115450000Y-129050000D03*
X115950000Y-129050000D03*
X116450000Y-129050000D03*
D11*
X107220000Y-142900000D03*
X105320000Y-142900000D03*
D20*
X81007476Y-132040986D03*
X81007476Y-130215986D03*
D13*
X88512500Y-59500000D03*
X86687500Y-59500000D03*
D22*
X88155000Y-153110000D03*
X85205000Y-153110000D03*
D10*
X71400000Y-57650000D03*
X71400000Y-59550000D03*
D20*
X102820000Y-132062500D03*
X102820000Y-130237500D03*
D21*
X78830000Y-159140000D03*
X80730000Y-159140000D03*
D11*
X80730000Y-161130000D03*
X78830000Y-161130000D03*
D14*
X88500000Y-57750000D03*
X88500000Y-55850000D03*
X88890000Y-146545000D03*
X88890000Y-144645000D03*
D11*
X87620000Y-150470000D03*
X85720000Y-150470000D03*
D16*
X97845000Y-137070000D03*
X100795000Y-137070000D03*
D11*
X87620000Y-157700000D03*
X85720000Y-157700000D03*
X87640000Y-134300000D03*
X85740000Y-134300000D03*
D21*
X104920000Y-161120000D03*
X106820000Y-161120000D03*
D14*
X84887476Y-132088486D03*
X84887476Y-130188486D03*
D10*
X88870000Y-160020000D03*
X88870000Y-161920000D03*
D14*
X96830000Y-146530000D03*
X96830000Y-144630000D03*
X95890000Y-135940000D03*
X95890000Y-134040000D03*
D10*
X79030000Y-130190000D03*
X79030000Y-132090000D03*
X90100000Y-134050000D03*
X90100000Y-135950000D03*
X96890000Y-130190000D03*
X96890000Y-132090000D03*
D14*
X98800000Y-146520000D03*
X98800000Y-144620000D03*
D26*
X138000000Y-195500000D02*
X138000000Y-14500000D01*
X136500000Y-13000000D02*
X50500000Y-13000000D01*
X136500000Y-13000000D02*
G75*
G02*
X138000000Y-14500000I0J-1500000D01*
G01*
X138000000Y-195500000D02*
G75*
G02*
X136500000Y-197000000I-1500000J0D01*
G01*
X50500000Y-197000000D02*
G75*
G02*
X49000000Y-195500000I0J1500000D01*
G01*
X50500000Y-197000000D02*
X136500000Y-197000000D01*
X49000000Y-14500000D02*
G75*
G02*
X50500000Y-13000000I1500000J0D01*
G01*
X49000000Y-14500000D02*
X49000000Y-195500000D01*
M02*
