#VRML V2.0 utf8


Group {
  children 
    DEF o0 Group {
      children [ 
        DEF o1 Group {
          children 
            DEF o2 Transform {
              translation 0 0 0
              rotation 0 0 1  0
              scale 1 1 1
              scaleOrientation 0 0 1  0
              center 0 0 0
              children 
                DEF o3 Group {
                  children [ 
                    DEF o4 Group {
                      children 
                        DEF o5 Shape {
                          appearance 
                          Appearance {
                            material 
                            Material {
                              emissiveColor 0.098039217 0.098039217 0.098039217

                            }

                          }
                          geometry 
                          PointSet {
                            coord 
                            DEF o6 Coordinate {
                              point [ 0 0 0,
                                  0 0 0.5,
                                  0 2.5999999 0,
                                  0 2.5999999 0.5,
                                  1.8 0 0,
                                  1.8 0 0.5,
                                  1.8 2.5999999 0,
                                  1.8 2.5999999 0.5,
                                  0 0 0,
                                  1.8 0 0,
                                  0 0 0.5,
                                  1.8 0 0.5,
                                  0 2.5999999 0,
                                  1.8 2.5999999 0,
                                  0 2.5999999 0.5,
                                  1.8 2.5999999 0.5,
                                  0 0 0,
                                  0 2.5999999 0,
                                  1.8 0 0,
                                  1.8 2.5999999 0,
                                  0 0 0.5,
                                  0 2.5999999 0.5,
                                  1.8 0 0.5,
                                  1.8 2.5999999 0.5,
                                  0 0 0.5,
                                  0 0 0,
                                  0 2.5999999 0.5,
                                  0 2.5999999 0,
                                  1.8 0 0.5,
                                  1.8 0 0,
                                  1.8 2.5999999 0.5,
                                  1.8 2.5999999 0 ]

                            }

                          }

                        }

                    },
                      
                    DEF o7 Group {
                      children 
                        DEF o8 Shape {
                          appearance 
                          Appearance {
                            material 
                            Material {
                              diffuseColor 0.098039217 0.098039217 0.098039217
                              shininess 1

                            }

                          }
                          geometry 
                          IndexedLineSet {
                            coord 
                            USE o6
                            coordIndex [ 0, 1, -1, 1, 3, -1, 2, 3,
                                -1, 0, 2, -1, 4, 5, -1, 5,
                                7, -1, 6, 7, -1, 4, 6, -1,
                                8, 9, -1, 10, 11, -1, 12, 13,
                                -1, 14, 15, -1 ]

                          }

                        }

                    },
                      
                    DEF o9 Group {
                      children 
                        DEF o10 Shape {
                          appearance 
                          Appearance {
                            material 
                            Material {
                              diffuseColor 0.31372601 0.31372601 0.31372601

                            }

                          }
                          geometry 
                          IndexedFaceSet {
                            coord 
                            USE o6
                            coordIndex [ 0, 1, 2, -1, 2, 1, 3, -1,
                                5, 4, 6, -1, 5, 6, 7, -1,
                                9, 11, 8, -1, 8, 11, 10, -1,
                                15, 13, 12, -1, 15, 12, 14, -1,
                                17, 19, 16, -1, 16, 19, 18, -1,
                                23, 21, 20, -1, 23, 20, 22, -1 ]
                            ccw TRUE
                            solid FALSE
                            convex TRUE
                            creaseAngle 0

                          }

                        }

                    } ]

                }

            }

        },
          
        DEF o11 Group {
          children 
            DEF o12 Transform {
              translation -0.2 -0.69999999 -0.064999998
              rotation 0 0 1  0
              scale 1 1 1
              scaleOrientation 0 0 1  0
              center 0 0 0

            }

        },
          
        DEF o13 Group {
          children 
            DEF o14 Transform {
              translation -0.2 -0.30000001 -0.064999998
              rotation 0 0 1  0
              scale 1 1 1
              scaleOrientation 0 0 1  0
              center 0 0 0

            }

        },
          
        DEF o15 Group {
          children 
            DEF o16 Transform {
              translation -0.2 0.1 -0.064999998
              rotation 0 0 1  0
              scale 1 1 1
              scaleOrientation 0 0 1  0
              center 0 0 0

            }

        },
          
        DEF o17 Group {
          children 
            DEF o18 Transform {
              translation -0.2 0.5 -0.064999998
              rotation 0 0 1  0
              scale 1 1 1
              scaleOrientation 0 0 1  0
              center 0 0 0

            }

        },
          
        DEF o19 Group {
          children 
            DEF o20 Transform {
              translation 0.15000001 1.3 0.055
              rotation 0 0 1  0
              scale 1 1 1
              scaleOrientation 0 0 1  0
              center 0 0 0
              children 
                DEF o21 Group {
                  children [ 
                    DEF o22 Group {
                      children 
                        DEF o23 Shape {
                          appearance 
                          Appearance {
                            material 
                            Material {
                              emissiveColor 0.098039217 0.098039217 0.098039217

                            }

                          }
                          geometry 
                          PointSet {
                            coord 
                            DEF o24 Coordinate {
                              point [ -0.2 -0.69999999 -0.064999998,
                                  -0.2 -0.69999999 0.064999998,
                                  -0.2 -0.5 -0.064999998,
                                  -0.2 -0.5 0.064999998,
                                  0.2 -0.69999999 -0.064999998,
                                  0.2 -0.69999999 0.064999998,
                                  0.2 -0.5 -0.064999998,
                                  0.2 -0.5 0.064999998,
                                  -0.2 -0.69999999 -0.064999998,
                                  0.2 -0.69999999 -0.064999998,
                                  -0.2 -0.69999999 0.064999998,
                                  0.2 -0.69999999 0.064999998,
                                  -0.2 -0.5 -0.064999998,
                                  0.2 -0.5 -0.064999998,
                                  -0.2 -0.5 0.064999998,
                                  0.2 -0.5 0.064999998,
                                  -0.2 -0.69999999 -0.064999998,
                                  -0.2 -0.5 -0.064999998,
                                  0.2 -0.69999999 -0.064999998,
                                  0.2 -0.5 -0.064999998,
                                  -0.2 -0.69999999 0.064999998,
                                  -0.2 -0.5 0.064999998,
                                  0.2 -0.69999999 0.064999998,
                                  0.2 -0.5 0.064999998,
                                  -0.2 -0.30000001 -0.064999998,
                                  -0.2 -0.30000001 0.064999998,
                                  -0.2 -0.1 -0.064999998,
                                  -0.2 -0.1 0.064999998,
                                  0.2 -0.30000001 -0.064999998,
                                  0.2 -0.30000001 0.064999998,
                                  0.2 -0.1 -0.064999998,
                                  0.2 -0.1 0.064999998,
                                  -0.2 -0.30000001 -0.064999998,
                                  0.2 -0.30000001 -0.064999998,
                                  -0.2 -0.30000001 0.064999998,
                                  0.2 -0.30000001 0.064999998,
                                  -0.2 -0.1 -0.064999998,
                                  0.2 -0.1 -0.064999998,
                                  -0.2 -0.1 0.064999998,
                                  0.2 -0.1 0.064999998,
                                  -0.2 -0.30000001 -0.064999998,
                                  -0.2 -0.1 -0.064999998,
                                  0.2 -0.30000001 -0.064999998,
                                  0.2 -0.1 -0.064999998,
                                  -0.2 -0.30000001 0.064999998,
                                  -0.2 -0.1 0.064999998,
                                  0.2 -0.30000001 0.064999998,
                                  0.2 -0.1 0.064999998,
                                  -0.2 0.1 -0.064999998,
                                  -0.2 0.1 0.064999998,
                                  -0.2 0.30000001 -0.064999998,
                                  -0.2 0.30000001 0.064999998,
                                  0.2 0.1 -0.064999998,
                                  0.2 0.1 0.064999998,
                                  0.2 0.30000001 -0.064999998,
                                  0.2 0.30000001 0.064999998,
                                  -0.2 0.1 -0.064999998,
                                  0.2 0.1 -0.064999998,
                                  -0.2 0.1 0.064999998,
                                  0.2 0.1 0.064999998,
                                  -0.2 0.30000001 -0.064999998,
                                  0.2 0.30000001 -0.064999998,
                                  -0.2 0.30000001 0.064999998,
                                  0.2 0.30000001 0.064999998,
                                  -0.2 0.1 -0.064999998,
                                  -0.2 0.30000001 -0.064999998,
                                  0.2 0.1 -0.064999998,
                                  0.2 0.30000001 -0.064999998,
                                  -0.2 0.1 0.064999998,
                                  -0.2 0.30000001 0.064999998,
                                  0.2 0.1 0.064999998,
                                  0.2 0.30000001 0.064999998,
                                  -0.2 0.5 -0.064999998,
                                  -0.2 0.5 0.064999998,
                                  -0.2 0.69999999 -0.064999998,
                                  -0.2 0.69999999 0.064999998,
                                  0.2 0.5 -0.064999998,
                                  0.2 0.5 0.064999998,
                                  0.2 0.69999999 -0.064999998,
                                  0.2 0.69999999 0.064999998,
                                  -0.2 0.5 -0.064999998,
                                  0.2 0.5 -0.064999998,
                                  -0.2 0.5 0.064999998,
                                  0.2 0.5 0.064999998,
                                  -0.2 0.69999999 -0.064999998,
                                  0.2 0.69999999 -0.064999998,
                                  -0.2 0.69999999 0.064999998,
                                  0.2 0.69999999 0.064999998,
                                  -0.2 0.5 -0.064999998,
                                  -0.2 0.69999999 -0.064999998,
                                  0.2 0.5 -0.064999998,
                                  0.2 0.69999999 -0.064999998,
                                  -0.2 0.5 0.064999998,
                                  -0.2 0.69999999 0.064999998,
                                  0.2 0.5 0.064999998,
                                  0.2 0.69999999 0.064999998,
                                  -0.2 -0.69999999 0.064999998,
                                  -0.2 -0.69999999 -0.064999998,
                                  -0.2 -0.5 0.064999998,
                                  -0.2 -0.5 -0.064999998,
                                  0.2 -0.69999999 0.064999998,
                                  0.2 -0.69999999 -0.064999998,
                                  0.2 -0.5 0.064999998,
                                  0.2 -0.5 -0.064999998,
                                  -0.2 -0.30000001 0.064999998,
                                  -0.2 -0.30000001 -0.064999998,
                                  -0.2 -0.1 0.064999998,
                                  -0.2 -0.1 -0.064999998,
                                  0.2 -0.30000001 0.064999998,
                                  0.2 -0.30000001 -0.064999998,
                                  0.2 -0.1 0.064999998,
                                  0.2 -0.1 -0.064999998,
                                  -0.2 0.1 0.064999998,
                                  -0.2 0.1 -0.064999998,
                                  -0.2 0.30000001 0.064999998,
                                  -0.2 0.30000001 -0.064999998,
                                  0.2 0.1 0.064999998,
                                  0.2 0.1 -0.064999998,
                                  0.2 0.30000001 0.064999998,
                                  0.2 0.30000001 -0.064999998,
                                  -0.2 0.5 0.064999998,
                                  -0.2 0.5 -0.064999998,
                                  -0.2 0.69999999 0.064999998,
                                  -0.2 0.69999999 -0.064999998,
                                  0.2 0.5 0.064999998,
                                  0.2 0.5 -0.064999998,
                                  0.2 0.69999999 0.064999998,
                                  0.2 0.69999999 -0.064999998 ]

                            }

                          }

                        }

                    },
                      
                    DEF o25 Group {
                      children 
                        DEF o26 Shape {
                          appearance 
                          Appearance {
                            material 
                            Material {
                              diffuseColor 0.098039217 0.098039217 0.098039217
                              shininess 1

                            }

                          }
                          geometry 
                          IndexedLineSet {
                            coord 
                            USE o24
                            coordIndex [ 0, 1, -1, 1, 3, -1, 2, 3,
                                -1, 0, 2, -1, 4, 5, -1, 5,
                                7, -1, 6, 7, -1, 4, 6, -1,
                                8, 9, -1, 10, 11, -1, 12, 13,
                                -1, 14, 15, -1, 24, 25, -1, 25,
                                27, -1, 26, 27, -1, 24, 26, -1,
                                28, 29, -1, 29, 31, -1, 30, 31,
                                -1, 28, 30, -1, 32, 33, -1, 34,
                                35, -1, 36, 37, -1, 38, 39, -1,
                                48, 49, -1, 49, 51, -1, 50, 51,
                                -1, 48, 50, -1, 52, 53, -1, 53,
                                55, -1, 54, 55, -1, 52, 54, -1,
                                56, 57, -1, 58, 59, -1, 60, 61,
                                -1, 62, 63, -1, 72, 73, -1, 73,
                                75, -1, 74, 75, -1, 72, 74, -1,
                                76, 77, -1, 77, 79, -1, 78, 79,
                                -1, 76, 78, -1, 80, 81, -1, 82,
                                83, -1, 84, 85, -1, 86, 87, -1 ]

                          }

                        }

                    },
                      
                    DEF o27 Group {
                      children 
                        DEF o28 Shape {
                          appearance 
                          Appearance {
                            material 
                            Material {
                              diffuseColor 0.82745099 0.82745099 0.82745099

                            }

                          }
                          geometry 
                          IndexedFaceSet {
                            coord 
                            USE o24
                            color 
                            DEF o29 Color {
                              color [ 0.82745099 0.82745099 0.82745099,
                                  0.82745099 0.82745099 0.82745099,
                                  0.82745099 0.82745099 0.82745099,
                                  0.82745099 0.82745099 0.82745099,
                                  0.82745099 0.82745099 0.82745099,
                                  0.82745099 0.82745099 0.82745099,
                                  0.82745099 0.82745099 0.82745099,
                                  0.82745099 0.82745099 0.82745099,
                                  0.82745099 0.82745099 0.82745099,
                                  0.82745099 0.82745099 0.82745099,
                                  0.82745099 0.82745099 0.82745099,
                                  0.82745099 0.82745099 0.82745099,
                                  0.82745099 0.82745099 0.82745099,
                                  0.82745099 0.82745099 0.82745099,
                                  0.82745099 0.82745099 0.82745099,
                                  0.82745099 0.82745099 0.82745099,
                                  0.82745099 0.82745099 0.82745099,
                                  0.82745099 0.82745099 0.82745099,
                                  0.82745099 0.82745099 0.82745099,
                                  0.82745099 0.82745099 0.82745099,
                                  0.82745099 0.82745099 0.82745099,
                                  0.82745099 0.82745099 0.82745099,
                                  0.82745099 0.82745099 0.82745099,
                                  0.82745099 0.82745099 0.82745099 ]

                            }
                            colorPerVertex FALSE
                            coordIndex [ 0, 1, 2, -1, 2, 1, 3, -1,
                                5, 4, 6, -1, 5, 6, 7, -1,
                                9, 11, 8, -1, 8, 11, 10, -1,
                                15, 13, 12, -1, 15, 12, 14, -1,
                                17, 19, 16, -1, 16, 19, 18, -1,
                                23, 21, 20, -1, 23, 20, 22, -1,
                                24, 25, 26, -1, 26, 25, 27, -1,
                                29, 28, 30, -1, 29, 30, 31, -1,
                                33, 35, 32, -1, 32, 35, 34, -1,
                                39, 37, 36, -1, 39, 36, 38, -1,
                                41, 43, 40, -1, 40, 43, 42, -1,
                                47, 45, 44, -1, 47, 44, 46, -1,
                                48, 49, 50, -1, 50, 49, 51, -1,
                                53, 52, 54, -1, 53, 54, 55, -1,
                                57, 59, 56, -1, 56, 59, 58, -1,
                                63, 61, 60, -1, 63, 60, 62, -1,
                                65, 67, 64, -1, 64, 67, 66, -1,
                                71, 69, 68, -1, 71, 68, 70, -1,
                                72, 73, 74, -1, 74, 73, 75, -1,
                                77, 76, 78, -1, 77, 78, 79, -1,
                                81, 83, 80, -1, 80, 83, 82, -1,
                                87, 85, 84, -1, 87, 84, 86, -1,
                                89, 91, 88, -1, 88, 91, 90, -1,
                                95, 93, 92, -1, 95, 92, 94, -1 ]
                            colorIndex [ 0, 0, 1, 1, 2, 2, 3, 3,
                                4, 4, 5, 5, 6, 6, 7, 7,
                                8, 8, 9, 9, 10, 10, 11, 11,
                                12, 12, 13, 13, 14, 14, 15, 15,
                                16, 16, 17, 17, 18, 18, 19, 19,
                                20, 20, 21, 21, 22, 22, 23, 23 ]
                            ccw TRUE
                            solid FALSE
                            convex TRUE
                            creaseAngle 0

                          }

                        }

                    } ]

                }

            }

        },
          
        DEF o30 Group {
          children 
            DEF o31 Transform {
              translation -0.2 -0.69999999 -0.064999998
              rotation 0 0 1  0
              scale 1 1 1
              scaleOrientation 0 0 1  0
              center 0 0 0

            }

        },
          
        DEF o32 Group {
          children 
            DEF o33 Transform {
              translation -0.2 -0.30000001 -0.064999998
              rotation 0 0 1  0
              scale 1 1 1
              scaleOrientation 0 0 1  0
              center 0 0 0

            }

        },
          
        DEF o34 Group {
          children 
            DEF o35 Transform {
              translation -0.2 0.1 -0.064999998
              rotation 0 0 1  0
              scale 1 1 1
              scaleOrientation 0 0 1  0
              center 0 0 0

            }

        },
          
        DEF o36 Group {
          children 
            DEF o37 Transform {
              translation -0.2 0.5 -0.064999998
              rotation 0 0 1  0
              scale 1 1 1
              scaleOrientation 0 0 1  0
              center 0 0 0

            }

        },
          
        DEF o38 Group {
          children 
            DEF o39 Transform {
              translation 1.65 1.3 0.055
              rotation 0 0 1  0
              scale 1 1 1
              scaleOrientation 0 0 1  0
              center 0 0 0
              children 
                DEF o40 Group {
                  children [ 
                    DEF o41 Group {
                      children 
                        DEF o42 Shape {
                          appearance 
                          Appearance {
                            material 
                            Material {
                              emissiveColor 0.098039217 0.098039217 0.098039217

                            }

                          }
                          geometry 
                          PointSet {
                            coord 
                            USE o24

                          }

                        }

                    },
                      
                    DEF o43 Group {
                      children 
                        DEF o44 Shape {
                          appearance 
                          Appearance {
                            material 
                            Material {
                              diffuseColor 0.098039217 0.098039217 0.098039217
                              shininess 1

                            }

                          }
                          geometry 
                          IndexedLineSet {
                            coord 
                            USE o24
                            coordIndex [ 0, 1, -1, 1, 3, -1, 2, 3,
                                -1, 0, 2, -1, 4, 5, -1, 5,
                                7, -1, 6, 7, -1, 4, 6, -1,
                                8, 9, -1, 10, 11, -1, 12, 13,
                                -1, 14, 15, -1, 24, 25, -1, 25,
                                27, -1, 26, 27, -1, 24, 26, -1,
                                28, 29, -1, 29, 31, -1, 30, 31,
                                -1, 28, 30, -1, 32, 33, -1, 34,
                                35, -1, 36, 37, -1, 38, 39, -1,
                                48, 49, -1, 49, 51, -1, 50, 51,
                                -1, 48, 50, -1, 52, 53, -1, 53,
                                55, -1, 54, 55, -1, 52, 54, -1,
                                56, 57, -1, 58, 59, -1, 60, 61,
                                -1, 62, 63, -1, 72, 73, -1, 73,
                                75, -1, 74, 75, -1, 72, 74, -1,
                                76, 77, -1, 77, 79, -1, 78, 79,
                                -1, 76, 78, -1, 80, 81, -1, 82,
                                83, -1, 84, 85, -1, 86, 87, -1 ]

                          }

                        }

                    },
                      
                    DEF o45 Group {
                      children 
                        DEF o46 Shape {
                          appearance 
                          Appearance {
                            material 
                            Material {
                              diffuseColor 0.82745099 0.82745099 0.82745099

                            }

                          }
                          geometry 
                          IndexedFaceSet {
                            coord 
                            USE o24
                            color 
                            USE o29
                            colorPerVertex FALSE
                            coordIndex [ 0, 1, 2, -1, 2, 1, 3, -1,
                                5, 4, 6, -1, 5, 6, 7, -1,
                                9, 11, 8, -1, 8, 11, 10, -1,
                                15, 13, 12, -1, 15, 12, 14, -1,
                                17, 19, 16, -1, 16, 19, 18, -1,
                                23, 21, 20, -1, 23, 20, 22, -1,
                                24, 25, 26, -1, 26, 25, 27, -1,
                                29, 28, 30, -1, 29, 30, 31, -1,
                                33, 35, 32, -1, 32, 35, 34, -1,
                                39, 37, 36, -1, 39, 36, 38, -1,
                                41, 43, 40, -1, 40, 43, 42, -1,
                                47, 45, 44, -1, 47, 44, 46, -1,
                                48, 49, 50, -1, 50, 49, 51, -1,
                                53, 52, 54, -1, 53, 54, 55, -1,
                                57, 59, 56, -1, 56, 59, 58, -1,
                                63, 61, 60, -1, 63, 60, 62, -1,
                                65, 67, 64, -1, 64, 67, 66, -1,
                                71, 69, 68, -1, 71, 68, 70, -1,
                                72, 73, 74, -1, 74, 73, 75, -1,
                                77, 76, 78, -1, 77, 78, 79, -1,
                                81, 83, 80, -1, 80, 83, 82, -1,
                                87, 85, 84, -1, 87, 84, 86, -1,
                                89, 91, 88, -1, 88, 91, 90, -1,
                                95, 93, 92, -1, 95, 92, 94, -1 ]
                            colorIndex [ 0, 0, 1, 1, 2, 2, 3, 3,
                                4, 4, 5, 5, 6, 6, 7, 7,
                                8, 8, 9, 9, 10, 10, 11, 11,
                                12, 12, 13, 13, 14, 14, 15, 15,
                                16, 16, 17, 17, 18, 18, 19, 19,
                                20, 20, 21, 21, 22, 22, 23, 23 ]
                            ccw TRUE
                            solid FALSE
                            convex TRUE
                            creaseAngle 0

                          }

                        }

                    } ]

                }

            }

        },
          
        DEF o47 Group {
          children 
            DEF o48 Transform {
              translation -0.69999999 -0.2 -0.064999998
              rotation 0 0 1  0
              scale 1 1 1
              scaleOrientation 0 0 1  0
              center 0 0 0

            }

        },
          
        DEF o49 Group {
          children 
            DEF o50 Transform {
              translation -0.30000001 -0.2 -0.064999998
              rotation 0 0 1  0
              scale 1 1 1
              scaleOrientation 0 0 1  0
              center 0 0 0

            }

        },
          
        DEF o51 Group {
          children 
            DEF o52 Transform {
              translation 0.1 -0.2 -0.064999998
              rotation 0 0 1  0
              scale 1 1 1
              scaleOrientation 0 0 1  0
              center 0 0 0

            }

        },
          
        DEF o53 Group {
          children 
            DEF o54 Transform {
              translation 0.5 -0.2 -0.064999998
              rotation 0 0 1  0
              scale 1 1 1
              scaleOrientation 0 0 1  0
              center 0 0 0

            }

        },
          
        DEF o55 Group {
          children 
            DEF o56 Transform {
              translation 0.89999998 0.16 0.055
              rotation 0 0 1  0
              scale 1 1 1
              scaleOrientation 0 0 1  0
              center 0 0 0
              children 
                DEF o57 Group {
                  children [ 
                    DEF o58 Group {
                      children 
                        DEF o59 Shape {
                          appearance 
                          Appearance {
                            material 
                            Material {
                              emissiveColor 0.098039217 0.098039217 0.098039217

                            }

                          }
                          geometry 
                          PointSet {
                            coord 
                            DEF o60 Coordinate {
                              point [ -0.69999999 -0.2 -0.064999998,
                                  -0.69999999 -0.2 0.064999998,
                                  -0.69999999 0.2 -0.064999998,
                                  -0.69999999 0.2 0.064999998,
                                  -0.5 -0.2 -0.064999998,
                                  -0.5 -0.2 0.064999998,
                                  -0.5 0.2 -0.064999998,
                                  -0.5 0.2 0.064999998,
                                  -0.69999999 -0.2 -0.064999998,
                                  -0.5 -0.2 -0.064999998,
                                  -0.69999999 -0.2 0.064999998,
                                  -0.5 -0.2 0.064999998,
                                  -0.69999999 0.2 -0.064999998,
                                  -0.5 0.2 -0.064999998,
                                  -0.69999999 0.2 0.064999998,
                                  -0.5 0.2 0.064999998,
                                  -0.69999999 -0.2 -0.064999998,
                                  -0.69999999 0.2 -0.064999998,
                                  -0.5 -0.2 -0.064999998,
                                  -0.5 0.2 -0.064999998,
                                  -0.69999999 -0.2 0.064999998,
                                  -0.69999999 0.2 0.064999998,
                                  -0.5 -0.2 0.064999998,
                                  -0.5 0.2 0.064999998,
                                  -0.30000001 -0.2 -0.064999998,
                                  -0.30000001 -0.2 0.064999998,
                                  -0.30000001 0.2 -0.064999998,
                                  -0.30000001 0.2 0.064999998,
                                  -0.1 -0.2 -0.064999998,
                                  -0.1 -0.2 0.064999998,
                                  -0.1 0.2 -0.064999998,
                                  -0.1 0.2 0.064999998,
                                  -0.30000001 -0.2 -0.064999998,
                                  -0.1 -0.2 -0.064999998,
                                  -0.30000001 -0.2 0.064999998,
                                  -0.1 -0.2 0.064999998,
                                  -0.30000001 0.2 -0.064999998,
                                  -0.1 0.2 -0.064999998,
                                  -0.30000001 0.2 0.064999998,
                                  -0.1 0.2 0.064999998,
                                  -0.30000001 -0.2 -0.064999998,
                                  -0.30000001 0.2 -0.064999998,
                                  -0.1 -0.2 -0.064999998,
                                  -0.1 0.2 -0.064999998,
                                  -0.30000001 -0.2 0.064999998,
                                  -0.30000001 0.2 0.064999998,
                                  -0.1 -0.2 0.064999998,
                                  -0.1 0.2 0.064999998,
                                  0.1 -0.2 -0.064999998,
                                  0.1 -0.2 0.064999998,
                                  0.1 0.2 -0.064999998,
                                  0.1 0.2 0.064999998,
                                  0.30000001 -0.2 -0.064999998,
                                  0.30000001 -0.2 0.064999998,
                                  0.30000001 0.2 -0.064999998,
                                  0.30000001 0.2 0.064999998,
                                  0.1 -0.2 -0.064999998,
                                  0.30000001 -0.2 -0.064999998,
                                  0.1 -0.2 0.064999998,
                                  0.30000001 -0.2 0.064999998,
                                  0.1 0.2 -0.064999998,
                                  0.30000001 0.2 -0.064999998,
                                  0.1 0.2 0.064999998,
                                  0.30000001 0.2 0.064999998,
                                  0.1 -0.2 -0.064999998,
                                  0.1 0.2 -0.064999998,
                                  0.30000001 -0.2 -0.064999998,
                                  0.30000001 0.2 -0.064999998,
                                  0.1 -0.2 0.064999998,
                                  0.1 0.2 0.064999998,
                                  0.30000001 -0.2 0.064999998,
                                  0.30000001 0.2 0.064999998,
                                  0.5 -0.2 -0.064999998,
                                  0.5 -0.2 0.064999998,
                                  0.5 0.2 -0.064999998,
                                  0.5 0.2 0.064999998,
                                  0.69999999 -0.2 -0.064999998,
                                  0.69999999 -0.2 0.064999998,
                                  0.69999999 0.2 -0.064999998,
                                  0.69999999 0.2 0.064999998,
                                  0.5 -0.2 -0.064999998,
                                  0.69999999 -0.2 -0.064999998,
                                  0.5 -0.2 0.064999998,
                                  0.69999999 -0.2 0.064999998,
                                  0.5 0.2 -0.064999998,
                                  0.69999999 0.2 -0.064999998,
                                  0.5 0.2 0.064999998,
                                  0.69999999 0.2 0.064999998,
                                  0.5 -0.2 -0.064999998,
                                  0.5 0.2 -0.064999998,
                                  0.69999999 -0.2 -0.064999998,
                                  0.69999999 0.2 -0.064999998,
                                  0.5 -0.2 0.064999998,
                                  0.5 0.2 0.064999998,
                                  0.69999999 -0.2 0.064999998,
                                  0.69999999 0.2 0.064999998,
                                  -0.69999999 -0.2 0.064999998,
                                  -0.69999999 -0.2 -0.064999998,
                                  -0.69999999 0.2 0.064999998,
                                  -0.69999999 0.2 -0.064999998,
                                  -0.5 -0.2 0.064999998,
                                  -0.5 -0.2 -0.064999998,
                                  -0.5 0.2 0.064999998,
                                  -0.5 0.2 -0.064999998,
                                  -0.30000001 -0.2 0.064999998,
                                  -0.30000001 -0.2 -0.064999998,
                                  -0.30000001 0.2 0.064999998,
                                  -0.30000001 0.2 -0.064999998,
                                  -0.1 -0.2 0.064999998,
                                  -0.1 -0.2 -0.064999998,
                                  -0.1 0.2 0.064999998,
                                  -0.1 0.2 -0.064999998,
                                  0.1 -0.2 0.064999998,
                                  0.1 -0.2 -0.064999998,
                                  0.1 0.2 0.064999998,
                                  0.1 0.2 -0.064999998,
                                  0.30000001 -0.2 0.064999998,
                                  0.30000001 -0.2 -0.064999998,
                                  0.30000001 0.2 0.064999998,
                                  0.30000001 0.2 -0.064999998,
                                  0.5 -0.2 0.064999998,
                                  0.5 -0.2 -0.064999998,
                                  0.5 0.2 0.064999998,
                                  0.5 0.2 -0.064999998,
                                  0.69999999 -0.2 0.064999998,
                                  0.69999999 -0.2 -0.064999998,
                                  0.69999999 0.2 0.064999998,
                                  0.69999999 0.2 -0.064999998 ]

                            }

                          }

                        }

                    },
                      
                    DEF o61 Group {
                      children 
                        DEF o62 Shape {
                          appearance 
                          Appearance {
                            material 
                            Material {
                              diffuseColor 0.098039217 0.098039217 0.098039217
                              shininess 1

                            }

                          }
                          geometry 
                          IndexedLineSet {
                            coord 
                            USE o60
                            coordIndex [ 0, 1, -1, 1, 3, -1, 2, 3,
                                -1, 0, 2, -1, 4, 5, -1, 5,
                                7, -1, 6, 7, -1, 4, 6, -1,
                                8, 9, -1, 10, 11, -1, 12, 13,
                                -1, 14, 15, -1, 24, 25, -1, 25,
                                27, -1, 26, 27, -1, 24, 26, -1,
                                28, 29, -1, 29, 31, -1, 30, 31,
                                -1, 28, 30, -1, 32, 33, -1, 34,
                                35, -1, 36, 37, -1, 38, 39, -1,
                                48, 49, -1, 49, 51, -1, 50, 51,
                                -1, 48, 50, -1, 52, 53, -1, 53,
                                55, -1, 54, 55, -1, 52, 54, -1,
                                56, 57, -1, 58, 59, -1, 60, 61,
                                -1, 62, 63, -1, 72, 73, -1, 73,
                                75, -1, 74, 75, -1, 72, 74, -1,
                                76, 77, -1, 77, 79, -1, 78, 79,
                                -1, 76, 78, -1, 80, 81, -1, 82,
                                83, -1, 84, 85, -1, 86, 87, -1 ]

                          }

                        }

                    },
                      
                    DEF o63 Group {
                      children 
                        DEF o64 Shape {
                          appearance 
                          Appearance {
                            material 
                            Material {
                              diffuseColor 0.82745099 0.82745099 0.82745099

                            }

                          }
                          geometry 
                          IndexedFaceSet {
                            coord 
                            USE o60
                            color 
                            USE o29
                            colorPerVertex FALSE
                            coordIndex [ 0, 1, 2, -1, 2, 1, 3, -1,
                                5, 4, 6, -1, 5, 6, 7, -1,
                                9, 11, 8, -1, 8, 11, 10, -1,
                                15, 13, 12, -1, 15, 12, 14, -1,
                                17, 19, 16, -1, 16, 19, 18, -1,
                                23, 21, 20, -1, 23, 20, 22, -1,
                                24, 25, 26, -1, 26, 25, 27, -1,
                                29, 28, 30, -1, 29, 30, 31, -1,
                                33, 35, 32, -1, 32, 35, 34, -1,
                                39, 37, 36, -1, 39, 36, 38, -1,
                                41, 43, 40, -1, 40, 43, 42, -1,
                                47, 45, 44, -1, 47, 44, 46, -1,
                                48, 49, 50, -1, 50, 49, 51, -1,
                                53, 52, 54, -1, 53, 54, 55, -1,
                                57, 59, 56, -1, 56, 59, 58, -1,
                                63, 61, 60, -1, 63, 60, 62, -1,
                                65, 67, 64, -1, 64, 67, 66, -1,
                                71, 69, 68, -1, 71, 68, 70, -1,
                                72, 73, 74, -1, 74, 73, 75, -1,
                                77, 76, 78, -1, 77, 78, 79, -1,
                                81, 83, 80, -1, 80, 83, 82, -1,
                                87, 85, 84, -1, 87, 84, 86, -1,
                                89, 91, 88, -1, 88, 91, 90, -1,
                                95, 93, 92, -1, 95, 92, 94, -1 ]
                            colorIndex [ 0, 0, 1, 1, 2, 2, 3, 3,
                                4, 4, 5, 5, 6, 6, 7, 7,
                                8, 8, 9, 9, 10, 10, 11, 11,
                                12, 12, 13, 13, 14, 14, 15, 15,
                                16, 16, 17, 17, 18, 18, 19, 19,
                                20, 20, 21, 21, 22, 22, 23, 23 ]
                            ccw TRUE
                            solid FALSE
                            convex TRUE
                            creaseAngle 0

                          }

                        }

                    } ]

                }

            }

        },
          
        DEF o65 Group {
          children 
            DEF o66 Transform {
              translation -0.69999999 -0.2 -0.064999998
              rotation 0 0 1  0
              scale 1 1 1
              scaleOrientation 0 0 1  0
              center 0 0 0

            }

        },
          
        DEF o67 Group {
          children 
            DEF o68 Transform {
              translation -0.30000001 -0.2 -0.064999998
              rotation 0 0 1  0
              scale 1 1 1
              scaleOrientation 0 0 1  0
              center 0 0 0

            }

        },
          
        DEF o69 Group {
          children 
            DEF o70 Transform {
              translation 0.1 -0.2 -0.064999998
              rotation 0 0 1  0
              scale 1 1 1
              scaleOrientation 0 0 1  0
              center 0 0 0

            }

        },
          
        DEF o71 Group {
          children 
            DEF o72 Transform {
              translation 0.5 -0.2 -0.064999998
              rotation 0 0 1  0
              scale 1 1 1
              scaleOrientation 0 0 1  0
              center 0 0 0

            }

        },
          
        DEF o73 Group {
          children 
            DEF o74 Transform {
              translation 0.89999998 2.45 0.055
              rotation 0 0 1  0
              scale 1 1 1
              scaleOrientation 0 0 1  0
              center 0 0 0
              children 
                DEF o75 Group {
                  children [ 
                    DEF o76 Group {
                      children 
                        DEF o77 Shape {
                          appearance 
                          Appearance {
                            material 
                            Material {
                              emissiveColor 0.098039217 0.098039217 0.098039217

                            }

                          }
                          geometry 
                          PointSet {
                            coord 
                            USE o60

                          }

                        }

                    },
                      
                    DEF o78 Group {
                      children 
                        DEF o79 Shape {
                          appearance 
                          Appearance {
                            material 
                            Material {
                              diffuseColor 0.098039217 0.098039217 0.098039217
                              shininess 1

                            }

                          }
                          geometry 
                          IndexedLineSet {
                            coord 
                            USE o60
                            coordIndex [ 0, 1, -1, 1, 3, -1, 2, 3,
                                -1, 0, 2, -1, 4, 5, -1, 5,
                                7, -1, 6, 7, -1, 4, 6, -1,
                                8, 9, -1, 10, 11, -1, 12, 13,
                                -1, 14, 15, -1, 24, 25, -1, 25,
                                27, -1, 26, 27, -1, 24, 26, -1,
                                28, 29, -1, 29, 31, -1, 30, 31,
                                -1, 28, 30, -1, 32, 33, -1, 34,
                                35, -1, 36, 37, -1, 38, 39, -1,
                                48, 49, -1, 49, 51, -1, 50, 51,
                                -1, 48, 50, -1, 52, 53, -1, 53,
                                55, -1, 54, 55, -1, 52, 54, -1,
                                56, 57, -1, 58, 59, -1, 60, 61,
                                -1, 62, 63, -1, 72, 73, -1, 73,
                                75, -1, 74, 75, -1, 72, 74, -1,
                                76, 77, -1, 77, 79, -1, 78, 79,
                                -1, 76, 78, -1, 80, 81, -1, 82,
                                83, -1, 84, 85, -1, 86, 87, -1 ]

                          }

                        }

                    },
                      
                    DEF o80 Group {
                      children 
                        DEF o81 Shape {
                          appearance 
                          Appearance {
                            material 
                            Material {
                              diffuseColor 0.82745099 0.82745099 0.82745099

                            }

                          }
                          geometry 
                          IndexedFaceSet {
                            coord 
                            USE o60
                            color 
                            USE o29
                            colorPerVertex FALSE
                            coordIndex [ 0, 1, 2, -1, 2, 1, 3, -1,
                                5, 4, 6, -1, 5, 6, 7, -1,
                                9, 11, 8, -1, 8, 11, 10, -1,
                                15, 13, 12, -1, 15, 12, 14, -1,
                                17, 19, 16, -1, 16, 19, 18, -1,
                                23, 21, 20, -1, 23, 20, 22, -1,
                                24, 25, 26, -1, 26, 25, 27, -1,
                                29, 28, 30, -1, 29, 30, 31, -1,
                                33, 35, 32, -1, 32, 35, 34, -1,
                                39, 37, 36, -1, 39, 36, 38, -1,
                                41, 43, 40, -1, 40, 43, 42, -1,
                                47, 45, 44, -1, 47, 44, 46, -1,
                                48, 49, 50, -1, 50, 49, 51, -1,
                                53, 52, 54, -1, 53, 54, 55, -1,
                                57, 59, 56, -1, 56, 59, 58, -1,
                                63, 61, 60, -1, 63, 60, 62, -1,
                                65, 67, 64, -1, 64, 67, 66, -1,
                                71, 69, 68, -1, 71, 68, 70, -1,
                                72, 73, 74, -1, 74, 73, 75, -1,
                                77, 76, 78, -1, 77, 78, 79, -1,
                                81, 83, 80, -1, 80, 83, 82, -1,
                                87, 85, 84, -1, 87, 84, 86, -1,
                                89, 91, 88, -1, 88, 91, 90, -1,
                                95, 93, 92, -1, 95, 92, 94, -1 ]
                            colorIndex [ 0, 0, 1, 1, 2, 2, 3, 3,
                                4, 4, 5, 5, 6, 6, 7, 7,
                                8, 8, 9, 9, 10, 10, 11, 11,
                                12, 12, 13, 13, 14, 14, 15, 15,
                                16, 16, 17, 17, 18, 18, 19, 19,
                                20, 20, 21, 21, 22, 22, 23, 23 ]
                            ccw TRUE
                            solid FALSE
                            convex TRUE
                            creaseAngle 0

                          }

                        }

                    } ]

                }

            }

        } ]

    }

}
